<?xml version="1.0" encoding="utf-8"?>
<!-- Generator: Adobe Illustrator 16.0.0, SVG Export Plug-In . SVG Version: 6.00 Build 0)  -->
<!DOCTYPE svg PUBLIC "-//W3C//DTD SVG 1.1//EN" "http://www.w3.org/Graphics/SVG/1.1/DTD/svg11.dtd">
<svg version="1.1" id="Layer_1" xmlns="http://www.w3.org/2000/svg" xmlns:xlink="http://www.w3.org/1999/xlink" x="0px" y="0px"
	 width="72px" height="72px" viewBox="0 0 72 72" enable-background="new 0 0 72 72" xml:space="preserve">
<path fill="none" stroke="#FFB74D" stroke-width="2" stroke-miterlimit="10" d="M17,64V26.893l6.422-16.063c0,0,2.508-6.125,5.758,0
	L35,26.893V64"/>
<path fill="none" stroke="#FFB74D" stroke-miterlimit="10" d="M6.5,64V36.366l4.651-9.833c0,0,4.108-7.446,7.35-4.565"/>
<path fill="none" stroke="#FFB74D" stroke-width="2" stroke-miterlimit="10" d="M36.15,33.779l6.159-12.75
	c0,0,2.845-6.79,6.012,0.71L53,33.726V64"/>
<path fill="none" stroke="#FFB74D" stroke-miterlimit="10" d="M50.536,23.813l3.05-6.018c0,0,2.926-5.513,5.363,1.924L64.5,34.455
	V64"/>
<line fill="none" stroke="#FFB74D" stroke-miterlimit="10" x1="31.5" y1="45" x2="31.5" y2="64"/>
<line fill="none" stroke="#FFB74D" stroke-miterlimit="10" x1="31.5" y1="39" x2="31.5" y2="43"/>
<line fill="none" stroke="#FFB74D" stroke-miterlimit="10" x1="49.5" y1="56" x2="49.5" y2="64"/>
<line fill="none" stroke="#FFB74D" stroke-miterlimit="10" x1="60.5" y1="52" x2="60.5" y2="64"/>
<line fill="none" stroke="#FFB74D" stroke-miterlimit="10" x1="49.5" y1="46" x2="49.5" y2="54"/>
<line fill="none" stroke="#FFB74D" stroke-miterlimit="10" x1="60.5" y1="47" x2="60.5" y2="50"/>
<line fill="none" stroke="#FFB74D" stroke-miterlimit="10" x1="21" y1="17.5" x2="32" y2="17.5"/>
<path fill="none" stroke="#FFB74D" stroke-miterlimit="10" d="M17.092,27.7c0,0,4.041-1.292,4.5,5.292c0,0,5.082-10.417,9.125-0.334
	c0,0,1.234-6.895,4.191-5.452"/>
<line fill="none" stroke="#FFB74D" stroke-miterlimit="10" x1="11" y1="27.5" x2="17" y2="27.5"/>
<line fill="none" stroke="#FFB74D" stroke-miterlimit="10" x1="39" y1="27.5" x2="51" y2="27.5"/>
<line fill="none" stroke="#FFB74D" stroke-miterlimit="10" x1="51" y1="25.5" x2="61" y2="25.5"/>
<path fill="none" stroke="#FFB74D" stroke-miterlimit="10" d="M5.938,36.686c0,0,5.083-2.157,5.708,5.15c0,0,1.875-6.608,4.417-5.56
	"/>
<path fill="none" stroke="#FFB74D" stroke-miterlimit="10" d="M35.416,36.958c0,0,4.834,0.418,4.918,4.084c0,0,5.332-8.333,8.166,0
	c0,0,2-5.416,4.084-3.5"/>
<path fill="none" stroke="#FFB74D" stroke-miterlimit="10" d="M54,34.169c0,0,5.221-1.095,5.895,5.728c0,0,1.222-5.938,4.105-4.99"
	/>
<g>
</g>
<g>
</g>
<g>
</g>
<g>
</g>
<g>
</g>
<g>
</g>
</svg>
