<?xml version="1.0" encoding="utf-8"?>
<svg version="1.1" id="nio-x3" xmlns="http://www.w3.org/2000/svg" xmlns:xlink="http://www.w3.org/1999/xlink" x="0px" y="0px"
	 width="144px" height="108px" viewBox="0 0 144 108" enable-background="new 0 0 144 108" xml:space="preserve">
	<path opacity="0.5" fill="none" stroke="#00FFFF" stroke-width="2" stroke-miterlimit="10" d="M126.5,11.25h10 M131.5,6.25v10"/>
	<path opacity="0.7" fill="none" stroke="#00FFFF" stroke-miterlimit="10" d="M29,63.5h7 M32.5,60v7"/>
	<path opacity="0.5" fill="none" stroke="#00FFFF" stroke-width="2" stroke-miterlimit="10" d="M4.5,83.25h10 M9.5,78.25v10"/>
	<path opacity="0.3" fill="none" stroke="#00FFFF" stroke-miterlimit="10" d="M47.999,8.25c0,1.381-1.119,2.5-2.5,2.5 s-2.5-1.119-2.5-2.5s1.119-2.5,2.5-2.5S47.999,6.869,47.999,8.25z"/>
	<circle opacity="0.5" fill="#00FFFF" cx="113.5" cy="28.25" r="2.5"/>
	<path opacity="0.2" fill="none" stroke="#00FFFF" stroke-miterlimit="10" d="M21.5,38.733c0,2.21-1.79,4-4,4s-4-1.79-4-4 s1.79-4,4-4S21.5,36.523,21.5,38.733z"/>
	<path opacity="0.5" fill="none" stroke="#00FFFF" stroke-miterlimit="10" d="M56.5,76.75c0,1.381-1.119,2.5-2.5,2.5 s-2.5-1.119-2.5-2.5s1.119-2.5,2.5-2.5S56.5,75.369,56.5,76.75z"/>
	<circle opacity="0.5" fill="none" stroke="#00FFFF" stroke-miterlimit="10" cx="6.5" cy="16.25" r="2"/>
	<path opacity="0.2" fill="none" stroke="#00FFFF" stroke-linecap="round" stroke-miterlimit="10" d="M75.149,61.838l8.575-10.348 M74.805,67.01l8.576-10.348 M88.805,54.439l-8.576,10.348"/>
	<polygon opacity="0.4" fill="#00FFFF" points="136,47.921 137.081,50.113 139.5,50.464 137.75,52.17 138.163,54.578 136,53.441 133.837,54.578 134.25,52.17 132.5,50.464 134.919,50.113"/>
	<path opacity="0.2" fill="none" stroke="#00FFFF" stroke-miterlimit="10" d="M35.293,30.907c0,1.104-0.896,2-2,2s-2-0.896-2-2 s0.896-2,2-2S35.293,29.803,35.293,30.907z"/>
	<path opacity="0.2" fill="none" stroke="#00FFFF" stroke-miterlimit="10" d="M128.5,81.25c0,2.763-2.237,5-5,5s-5-2.237-5-5 s2.237-5,5-5S128.5,78.487,128.5,81.25z"/>
	<path opacity="0.2" fill="none" stroke="#00FFFF" stroke-miterlimit="10" d="M21.5,70.25c0,1.104-0.896,2-2,2s-2-0.896-2-2	s0.896-2,2-2S21.5,69.146,21.5,70.25z"/>
	<path opacity="0.1" fill="none" stroke="#00FFFF" stroke-width="2" stroke-linecap="round" stroke-miterlimit="10" stroke-dasharray="5,5" d="M110.281,41.304c13.639,26.683-4.33,48.925-4.33,48.925 M34.823,90.229c0,0-17.97-22.242-4.331-48.925 M43.5,25.006 c0,0,28.703-23.991,59,0.891"/>
	<path opacity="0.2" fill="none" stroke="#00FFFF" stroke-width="2" stroke-linecap="round" stroke-miterlimit="10" stroke-dasharray="5,5,100" d="M102.5,95.25h36"/>
	<path opacity="0.2" fill="none" stroke="#00FFFF" stroke-width="2" stroke-linecap="round" stroke-miterlimit="10" stroke-dasharray="21,5,100" d="M6,95.25h30"/>
	<path opacity="0.3" fill="none" stroke="#00FFFF" stroke-width="2" stroke-linecap="round" stroke-miterlimit="10" stroke-dasharray="5,5,50,5" d="M13.5,102.25h72"/>
	<path fill="none" stroke="#FFFFFF" stroke-width="2" stroke-miterlimit="10" d="M42,96h56 M97,96v-9 M98,87H42 M43,87v9"/>
	<path fill="none" stroke="#FFFFFF" stroke-miterlimit="10" d="M47.5,87v6 M50.5,87v4 M53.5,87v6 M56.5,87v4 M59.5,87v6 M62.5,87v4 M65.5,87v6 M68.5,87v4 M71.5,87v6 M74.5,87v4 M77.5,87v6 M80.5,87v4 M83.5,87v6 M86.5,87v4 M89.5,87v6 M92.5,87v4"/>
	<path fill="none" stroke="#FFFFFF" stroke-width="2" stroke-miterlimit="10" d="M84,48h-6v-6h6V48z M67.5,55.25l-3,3.5l3,3.5l3-3.5	L67.5,55.25z M84,70h-6v6h6V70z M95.5,55.25c-1.657,0-3,1.566-3,3.5s1.343,3.5,3,3.5s3-1.566,3-3.5S97.157,55.25,95.5,55.25z M67,53	v-9 M66,45h9 M87,45h9 M95,44v9 M95,64v9 M96,73h-9 M75,73h-9 M67,74V64"/>
	<circle fill="none" stroke="#00FFFF" stroke-width="2" stroke-linecap="round" stroke-miterlimit="10" cx="47" cy="58.75" r="3.5"/>
	<line fill="none" stroke="#FFFFFF" stroke-width="2" stroke-miterlimit="10" x1="61.5" y1="59.25" x2="54.5" y2="59.25"/>
	<path fill="none" stroke="#FFFFFF" stroke-width="2" stroke-linecap="round" stroke-miterlimit="10" d="M40.5,63.453 c0,0,5.637,7.17,13-0.203"/>
	<path fill="none" stroke="#FFFFFF" stroke-width="2" stroke-linecap="round" stroke-miterlimit="10" d="M53.5,54.438 c0,0-5.566-7.223-13,0.077"/>
	<path fill="none" stroke="#FFFFFF" stroke-width="2" stroke-miterlimit="10" d="M47,31v-6 M51,31v-6 M47,26h10 M90.75,30h-45 c-2.5,2,0,4,0,4h45l5.563-2L90.75,30z M89,30v4"/>
</svg>