<?xml version="1.0" encoding="utf-8"?>
<!-- Generator: Adobe Illustrator 16.0.0, SVG Export Plug-In . SVG Version: 6.00 Build 0)  -->
<!DOCTYPE svg PUBLIC "-//W3C//DTD SVG 1.1//EN" "http://www.w3.org/Graphics/SVG/1.1/DTD/svg11.dtd">
<svg version="1.1" id="Layer_1" xmlns="http://www.w3.org/2000/svg" xmlns:xlink="http://www.w3.org/1999/xlink" x="0px" y="0px"
	 width="144px" height="108px" viewBox="0 0 144 108" enable-background="new 0 0 144 108" xml:space="preserve">
<path opacity="0.4" fill="none" stroke="#6F6F6E" stroke-width="2" stroke-linecap="round" stroke-miterlimit="10" stroke-dasharray="5,5,20,15,100" d="
	M4,95h60"/>
<path opacity="0.4" fill="none" stroke="#6F6F6E" stroke-width="2" stroke-linecap="round" stroke-miterlimit="10" stroke-dasharray="30,5,30,5,10,6" d="
	M25,102h114"/>
<g>
	<line fill="none" stroke="#C6C6C5" stroke-miterlimit="10" x1="30" y1="26.5" x2="89" y2="26.5"/>
	<path fill="none" stroke="#2A2B2F" stroke-width="2" stroke-miterlimit="10" d="M30,11h59 M31,11v76"/>
	<line fill="none" stroke="#2A2B2F" stroke-width="2" stroke-miterlimit="10" x1="30" y1="87" x2="39" y2="87"/>
	<line fill="none" stroke="#2A2B2F" stroke-width="2" stroke-miterlimit="10" x1="44" y1="87" x2="69" y2="87"/>
	<line fill="none" stroke="#2A2B2F" stroke-width="2" stroke-miterlimit="10" x1="88" y1="11" x2="88" y2="72"/>
	<line fill="none" stroke="#2A2B2F" stroke-width="2" stroke-miterlimit="10" x1="68" y1="71" x2="114" y2="71"/>
	<line fill="none" stroke="#2A2B2F" stroke-width="2" stroke-miterlimit="10" x1="69" y1="70" x2="69" y2="96"/>
	<line fill="none" stroke="#2A2B2F" stroke-width="2" stroke-miterlimit="10" x1="68" y1="95" x2="114" y2="95"/>
	<line fill="none" stroke="#2A2B2F" stroke-width="2" stroke-miterlimit="10" x1="113" y1="70" x2="113" y2="96"/>
	<line fill="none" stroke="#00AFFE" stroke-miterlimit="10" x1="74" y1="75.5" x2="108" y2="75.5"/>
	<line fill="none" stroke="#00AFFE" stroke-miterlimit="10" x1="74" y1="78.5" x2="108" y2="78.5"/>
	<rect x="74.5" y="81.5" fill="none" stroke="#00AFFE" stroke-miterlimit="10" width="10" height="9"/>
	<rect x="76.5" y="83.5" fill="none" stroke="#B1B1B1" stroke-miterlimit="10" width="6" height="5"/>
	<line fill="none" stroke="#00AFFE" stroke-miterlimit="10" x1="87" y1="81.5" x2="99" y2="81.5"/>
	<line fill="none" stroke="#00AFFE" stroke-miterlimit="10" x1="87" y1="84.5" x2="99" y2="84.5"/>
	<line fill="none" stroke="#B1B1B1" stroke-miterlimit="10" x1="87" y1="87.5" x2="102" y2="87.5"/>
	<rect x="35.5" y="14.5" fill="none" stroke="#00AFFE" stroke-miterlimit="10" width="11" height="9"/>
	<line fill="none" stroke="#00AFFE" stroke-miterlimit="10" x1="59" y1="14.5" x2="84" y2="14.5"/>
	<line fill="none" stroke="#B1B1B1" stroke-miterlimit="10" x1="59" y1="18.5" x2="70" y2="18.5"/>
	<circle fill="none" stroke="#6F6F6E" stroke-width="2" stroke-miterlimit="10" cx="103.261" cy="37.811" r="10.554"/>
	<path fill="#00AFFE" stroke="#00AFFE" stroke-miterlimit="10" d="M107.99,37.811c0,2.611-2.116,4.73-4.728,4.73
		c-2.612,0-4.728-2.119-4.728-4.73c0-2.609,2.115-4.729,4.728-4.729C105.874,33.082,107.99,35.201,107.99,37.811z"/>
	<rect x="93" y="54" fill="none" stroke="#2A2B2F" stroke-width="2" stroke-miterlimit="10" width="20" height="12"/>
	<line fill="none" stroke="#00AFFE" stroke-miterlimit="10" x1="96" y1="62.5" x2="108" y2="62.5"/>
	<line fill="none" stroke="#575756" stroke-miterlimit="10" x1="44" y1="95.5" x2="38" y2="95.5"/>
	<line fill="none" stroke="#575756" stroke-miterlimit="10" x1="44" y1="91.5" x2="38" y2="91.5"/>
	<polyline fill="none" stroke="#575756" stroke-miterlimit="10" points="38.5,96 38.5,45.088 42.021,38.161 44.5,45.088 44.5,96 	
		"/>
	<line fill="none" stroke="#575756" stroke-miterlimit="10" x1="44" y1="45.5" x2="38" y2="45.5"/>
</g>
<path id="_x2F__x2F__x2F__6_" opacity="0.5" fill="none" stroke="#6F6F6E" stroke-linecap="round" stroke-linejoin="round" stroke-miterlimit="10" d="
	M54.034,54.332L67.366,41 M53.5,61l13.332-13.332 M75.262,44.799L61.93,58.135"/>
<path opacity="0.4" fill="none" stroke="#6F6F6E" stroke-width="2" stroke-linecap="round" stroke-miterlimit="10" d="M117,95h16"/>
<g>
</g>
<g>
</g>
<g>
</g>
<g>
</g>
<g>
</g>
<g>
</g>
</svg>
