<?xml version="1.0" encoding="utf-8"?>
<!-- Generator: Adobe Illustrator 16.0.0, SVG Export Plug-In . SVG Version: 6.00 Build 0)  -->
<!DOCTYPE svg PUBLIC "-//W3C//DTD SVG 1.1//EN" "http://www.w3.org/Graphics/SVG/1.1/DTD/svg11.dtd">
<svg version="1.1" id="Layer_1" xmlns="http://www.w3.org/2000/svg" xmlns:xlink="http://www.w3.org/1999/xlink" x="0px" y="0px"
	 width="240px" height="180px" viewBox="0 0 240 180" enable-background="new 0 0 240 180" xml:space="preserve">
<line fill="none" stroke="#FFFFFF" stroke-width="2" stroke-miterlimit="10" x1="59" y1="120" x2="59" y2="172"/>
<line fill="none" stroke="#FFFFFF" stroke-width="2" stroke-miterlimit="10" x1="176" y1="120" x2="176" y2="172"/>
<path fill="none" stroke="#FFFFFF" stroke-width="4" stroke-miterlimit="10" d="M49,118h35 M128,118h57"/>
<path fill="none" stroke="#FFFFFF" stroke-width="2" stroke-miterlimit="10" d="M87,127v-18.952C87,100.714,90.254,96,99.667,96
	h12.667c9.544,0,12.667,4.845,12.667,12.048V127 M85,125h40"/>
<path fill="none" stroke="#FFFFFF" stroke-width="2" stroke-miterlimit="10" d="M107,126v10 M82,135h48 M130,134v9 M83,134v9
	 M130,142H82"/>
<line fill="none" stroke="#FFFFFF" stroke-width="4" stroke-miterlimit="10" x1="105" y1="152" x2="105" y2="169"/>
<line fill="none" stroke="#FFFFFF" stroke-width="2" stroke-miterlimit="10" x1="93.853" y1="165.19" x2="104.243" y2="161"/>
<line fill="none" stroke="#FFFFFF" stroke-width="2" stroke-miterlimit="10" x1="106.424" y1="161" x2="116.814" y2="165.19"/>
<line fill="none" stroke="#FFFFFF" stroke-width="2" stroke-miterlimit="10" x1="93.482" y1="143.977" x2="104.613" y2="152.619"/>
<line fill="none" stroke="#FFD34E" stroke-miterlimit="10" x1="166" y1="110.5" x2="174" y2="110.5"/>
<path fill="none" stroke="#FFFFFF" stroke-width="2" stroke-miterlimit="10" d="M128,111h23 M134,99v12 M147,99v12"/>
<line fill="none" stroke="#FFFFFF" stroke-width="2" stroke-miterlimit="10" x1="106.054" y1="152.619" x2="117.185" y2="143.977"/>
<path fill="none" stroke="#FFFFFF" stroke-width="2" stroke-miterlimit="10" d="M179,91h-78 M179,55h-78"/>
<path fill="none" stroke="#FFFFFF" stroke-width="4" stroke-miterlimit="10" d="M101,44h78 M177,44v55 M179,99h-53 M103,46v46"/>
<path fill="none" stroke="#FFFFFF" stroke-miterlimit="10" d="M124.5,60v9 M120,64.5h9"/>
<line fill="none" stroke="#FFFFFF" stroke-miterlimit="10" x1="137" y1="93.5" x2="143" y2="93.5"/>
<path fill="none" stroke="#FFD34E" stroke-width="2" stroke-miterlimit="10" d="M168,50h4 M160,50h4 M151,50h5"/>
<path fill="none" stroke="#FFD34E" stroke-miterlimit="10" d="M64.5,95v21 M64,95.5h16 M79.5,95v21 M64.825,97.702
	c0,0-15.714,4.715,0,9.821"/>
<path fill="none" stroke="#FFD34E" stroke-miterlimit="10" d="M72.243,81.278c0,0-3.748,3.557-0.509,5.208
	c3.239,1.648,0.714,4.761-0.405,4.761"/>
<path fill="none" stroke="#FFD34E" stroke-miterlimit="10" d="M76.782,76.581c0,0-3.413,3.238-0.464,4.743
	c2.948,1.501,0.65,4.335-0.369,4.335"/>
<path fill="none" stroke="#FFD34E" stroke-miterlimit="10" d="M130,70.5h3 M133,72.5h2 M135,74.5h2 M137,76.5h2 M135,76.5h2
	 M133,76.5h2 M130,78.5h3 M130,76.5h3 M130,74.5h3 M130,72.5h3 M135,80.5h2"/>
<path opacity="0.5" fill="none" stroke="#FFFFFF" stroke-miterlimit="10" d="M36,31.5h4 M28,37.5h4 M38,51.5h11 M43.5,57V46
	 M55,37.5h9 M59.5,42v-9"/>
<path opacity="0.9" fill="none" stroke="#FFFFFF" stroke-miterlimit="10" d="M200,19.5h4 M208,25.5h4 M191,40.5h11 M196.5,35v11
	 M176,25.5h11 M181.5,20v11"/>
<g>
</g>
<g>
</g>
<g>
</g>
<g>
</g>
<g>
</g>
<g>
</g>
</svg>
