<?xml version="1.0" encoding="utf-8"?>
<!-- Generator: Adobe Illustrator 16.0.0, SVG Export Plug-In . SVG Version: 6.00 Build 0)  -->
<!DOCTYPE svg PUBLIC "-//W3C//DTD SVG 1.1//EN" "http://www.w3.org/Graphics/SVG/1.1/DTD/svg11.dtd">
<svg version="1.1" id="Layer_1" xmlns="http://www.w3.org/2000/svg" xmlns:xlink="http://www.w3.org/1999/xlink" x="0px" y="0px"
	 width="240px" height="180px" viewBox="0 0 240 180" enable-background="new 0 0 240 180" xml:space="preserve">
<path fill="none" stroke="#FFFFFF" stroke-miterlimit="10" d="M135.731,98.319c0,2.688-2.179,4.868-4.866,4.868
	c-2.687,0-4.865-2.18-4.865-4.868c0-2.685,2.179-4.864,4.865-4.864C133.553,93.455,135.731,95.635,135.731,98.319z"/>
<circle fill="none" stroke="#FFFFFF" stroke-width="2" stroke-miterlimit="10" cx="108.791" cy="148.49" r="7.024"/>
<circle fill="none" stroke="#FFFFFF" stroke-width="4" stroke-miterlimit="10" cx="157.107" cy="139.402" r="28.096"/>
<path fill="none" stroke="#FFFFFF" stroke-width="2" stroke-miterlimit="10" d="M108.88,115.32c0,13.86-11.228,25.088-25.085,25.088
	c-13.858,0-25.085-11.228-25.085-25.088c0-13.855,11.228-25.083,25.085-25.083C97.653,90.237,108.88,101.465,108.88,115.32z"/>
<circle fill="none" stroke="#FFFFFF" stroke-width="3" stroke-miterlimit="10" cx="153.093" cy="71.17" r="18.061"/>
<line fill="none" stroke="#FFFFFF" stroke-miterlimit="10" x1="68" y1="155.5" x2="64" y2="155.5"/>
<line fill="none" stroke="#FFFFFF" stroke-miterlimit="10" x1="66" y1="159.5" x2="60" y2="159.5"/>
<line fill="none" stroke="#FFFFFF" stroke-miterlimit="10" x1="190" y1="89.5" x2="186" y2="89.5"/>
<line fill="none" stroke="#FFFFFF" stroke-miterlimit="10" x1="188" y1="93.5" x2="182" y2="93.5"/>
<path fill="none" stroke="#FFFFFF" stroke-width="2" stroke-miterlimit="10" d="M102,63v10 M106,65v6 M110,63v10"/>
<path fill="none" stroke="#FFD34E" stroke-miterlimit="10" d="M72,106.5h23 M72,111.5h23 M72,123.5h23 M72.5,106v18 M94.5,106v18
	 M76,115.5h10 M88,115.5h4 M76,119.5h4 M82,119.5h4"/>
<path fill="none" stroke="#FFFFFF" stroke-miterlimit="10" d="M162.5,142v5 M162,142.5h10 M162,146.5h10 M162,150.5h10 M171.5,146v5
	 M167.5,151v4 M167.5,138v4"/>
<path fill="none" stroke="#FFD34E" stroke-miterlimit="10" d="M157.5,66v1 M155.5,68v1 M153.5,70v1 M151.5,72v1 M152.5,71v1
	 M154.5,69v1 M156.5,67v1 M149.5,74v1 M150.5,73v1 M149.5,66v2 M156.5,73v2"/>
<path fill="none" stroke="#FFD34E" stroke-miterlimit="10" d="M149.5,126v16 M146,131.5h8 M144,126.5h6 M153,135.5h5 M149,141.5h9
	 M157.5,135v6 M153.5,135v4"/>
<path opacity="0.9" fill="none" stroke="#FFFFFF" stroke-miterlimit="10" d="M50,65.5h-4 M42,59.5h-4 M59,45.5H48 M53.5,51V40
	 M73,59.5H62 M67.5,65V54"/>
<path opacity="0.5" fill="none" stroke="#FFFFFF" stroke-miterlimit="10" d="M190,21.5h4 M198,27.5h4 M182,41.5h11 M187.5,36v11
	 M168,27.5h11 M173.5,22v11"/>
<g>
</g>
<g>
</g>
<g>
</g>
<g>
</g>
<g>
</g>
<g>
</g>
</svg>
