<?xml version="1.0" encoding="utf-8"?>
<!-- Generator: Adobe Illustrator 16.0.0, SVG Export Plug-In . SVG Version: 6.00 Build 0)  -->
<!DOCTYPE svg PUBLIC "-//W3C//DTD SVG 1.1//EN" "http://www.w3.org/Graphics/SVG/1.1/DTD/svg11.dtd">
<svg version="1.1" id="Layer_1" xmlns="http://www.w3.org/2000/svg" xmlns:xlink="http://www.w3.org/1999/xlink" x="0px" y="0px"
	 width="240px" height="180px" viewBox="0 0 240 180" enable-background="new 0 0 240 180" xml:space="preserve">
<path fill="none" stroke="#FFFFFF" stroke-width="2" stroke-miterlimit="10" d="M88.096,80.407c0,7.888-6.396,19.044-14.283,19.044
	S59.529,88.295,59.529,80.407s6.396-14.283,14.283-14.283S88.096,72.52,88.096,80.407z M67,102v8 M78,102v8 M66,109H44 M45,108v31
	 M55,126v17 M77,109h7 M90,129v14"/>
<path fill="none" stroke="#FFFFFF" stroke-width="2" stroke-miterlimit="10" d="M170.819,66.124c7.888,0,14.282,6.396,14.282,14.283
	s-6.395,19.044-14.282,19.044c-7.889,0-14.283-11.156-14.283-19.044S162.931,66.124,170.819,66.124z M176,110v-8 M164,110v-8
	 M198,109h-21 M198,139v-31 M188,143v-17 M158,109h7 M152,143v-14"/>
<path fill="none" stroke="#FFD34E" stroke-width="2" stroke-miterlimit="10" d="M100,131v10 M143,141v-10"/>
<path fill="none" stroke="#FFFFFF" stroke-width="2" stroke-miterlimit="10" d="M93,166h58 M150,157v10 M94,157v10 M151,158H93
	 M102,152v5 M101,152h40 M142,151v6"/>
<path fill="none" stroke="#FFD34E" stroke-width="2" stroke-miterlimit="10" d="M100.035,99.451c0,0-20.863,0.177,0.67,19.044"/>
<path fill="none" stroke="#FFD34E" stroke-width="2" stroke-miterlimit="10" d="M140.958,99.451c0,0,21.838-0.014,0.083,19.044"/>
<path fill="none" stroke="#FFFFFF" stroke-width="4" stroke-miterlimit="10" d="M122,133v19 M98,97h43 M101,95v25.876l21.425,12.2
	 M121.956,133.076l19.044-12.2V95"/>
<path opacity="0.5" fill="none" stroke="#FFFFFF" stroke-miterlimit="10" d="M27,21.5h5 M17,28.5h5 M28,45.5h13 M34.5,52V39
	 M46,28.5h11 M51.5,34V23"/>
<path opacity="0.9" fill="none" stroke="#FFFFFF" stroke-miterlimit="10" d="M208,37.5h4 M217,45.5h5 M198,61.5h13 M204.5,55v13
	 M182,44.5h11 M187.5,39v11"/>
<g>
</g>
<g>
</g>
<g>
</g>
<g>
</g>
<g>
</g>
<g>
</g>
</svg>
