<?xml version="1.0" encoding="utf-8"?>
<!-- Generator: Adobe Illustrator 16.0.0, SVG Export Plug-In . SVG Version: 6.00 Build 0)  -->
<!DOCTYPE svg PUBLIC "-//W3C//DTD SVG 1.1//EN" "http://www.w3.org/Graphics/SVG/1.1/DTD/svg11.dtd">
<svg version="1.1" id="Layer_1" xmlns="http://www.w3.org/2000/svg" xmlns:xlink="http://www.w3.org/1999/xlink" x="0px" y="0px"
	 width="240px" height="180px" viewBox="0 0 240 180" enable-background="new 0 0 240 180" xml:space="preserve">
<path fill="none" stroke="#FFFFFF" stroke-width="4" stroke-miterlimit="10" d="M146,132h31 M146,130v32.306l4.346,6.694H175v-6.694
	V130"/>
<path fill="none" stroke="#FFFFFF" stroke-width="2" stroke-miterlimit="10" d="M175,137h12 M186,136v17 M187,152h-12 M167,132v6"/>
<path fill="none" stroke="#FFFFFF" stroke-width="3" stroke-miterlimit="10" d="M123.595,97.94c0,11.66-9.45,21.111-21.112,21.111
	c-11.658,0-21.112-9.451-21.112-21.111c0-11.661,9.454-21.112,21.112-21.112C114.145,76.828,123.595,86.279,123.595,97.94z"/>
<path fill="none" stroke="#FFFFFF" stroke-width="4" stroke-miterlimit="10" d="M140.406,94.336
	c0.113,1.188,0.145,2.387,0.145,3.604c0,21.011-17.129,38.104-38.141,38.104c-21.011,0-38.177-17.094-38.177-38.104
	c0-20.404,15.979-37.063,36.153-38.015"/>
<path fill="none" stroke="#FFFFFF" stroke-width="2" stroke-miterlimit="10" d="M135.631,71.032c0,0-10.126,6.862-1.893,17.764
	L139.873,96c0,0,5.09-6.724,5.127-11C145.032,80.723,141.117,73.395,135.631,71.032z"/>
<path fill="none" stroke="#FFD34E" stroke-miterlimit="10" d="M156.039,109.354c0,0-5.064,4.808-0.688,7.038
	c4.377,2.231,0.965,6.437-0.547,6.437 M161.048,118.108c1.376,0,4.485-3.829,0.499-5.861c-3.986-2.031,0.627-6.41,0.627-6.41
	 M108.219,85.162c-1.752-0.789-3.692-1.239-5.736-1.239c-7.729,0-14.017,6.287-14.017,14.018c0,2.047,0.452,3.989,1.244,5.743
	 M98.103,111.246c1.38,0.455,2.851,0.711,4.38,0.711c7.731,0,14.017-6.287,14.017-14.017c0-1.535-0.257-3.008-0.713-4.392"/>
<path fill="none" stroke="#FFD34E" stroke-miterlimit="10" d="M158,147.5h6 M156,153.5h6 M160,151.5h4 M156,149.5h4"/>
<path opacity="0.5" fill="none" stroke="#FFFFFF" stroke-miterlimit="10" d="M195,65.5h-4 M203,59.5h-4 M194,45.5h-11 M188.5,40v11
	 M178,59.5h-9 M173.5,55v9"/>
<path fill="none" stroke="#FFFFFF" stroke-width="2" stroke-miterlimit="10" d="M123.408,60.528c0,0-9.24,5.905-2.123,15.872
	l5.326,6.6c0,0,4.725-5.905,4.857-9.736C131.598,69.433,128.266,62.776,123.408,60.528z"/>
<path opacity="0.9" fill="none" stroke="#FFFFFF" stroke-miterlimit="10" d="M49,45.5h-4 M41,39.5h-4 M58,24.5H47 M52.5,30V19
	 M71,38.5h-9 M66.5,43v-9"/>
<path fill="none" stroke="#FFD34E" stroke-width="2" stroke-miterlimit="10" d="M118.12,60.798c1.462,4.727-1.8,13.92-1.8,13.92
	l-9.285-5.791c-12.89-9.143-4.125-20.248-4.125-20.248C109.786,49.365,116.662,56.07,118.12,60.798z"/>
<g>
</g>
<g>
</g>
<g>
</g>
<g>
</g>
<g>
</g>
<g>
</g>
</svg>
