<?xml version="1.0" encoding="utf-8"?>
<!-- Generator: Adobe Illustrator 16.0.0, SVG Export Plug-In . SVG Version: 6.00 Build 0)  -->
<!DOCTYPE svg PUBLIC "-//W3C//DTD SVG 1.1//EN" "http://www.w3.org/Graphics/SVG/1.1/DTD/svg11.dtd">
<svg version="1.1" id="Layer_1" xmlns="http://www.w3.org/2000/svg" xmlns:xlink="http://www.w3.org/1999/xlink" x="0px" y="0px"
	 width="240px" height="180px" viewBox="0 0 240 180" enable-background="new 0 0 240 180" xml:space="preserve">
<path fill="none" stroke="#FFFFFF" stroke-width="4" stroke-miterlimit="10" d="M136.146,63.234L117.15,74.016l18.227,11.039
	c0,0-24.645,27.724-42.614-6.675L79,82V65l13.25,3.368C92.25,68.368,111.246,31.659,136.146,63.234z"/>
<line fill="none" stroke="#FFD34E" stroke-width="2" stroke-miterlimit="10" x1="81" y1="74" x2="90" y2="74"/>
<line fill="none" stroke="#FFD34E" stroke-width="2" stroke-miterlimit="10" x1="92" y1="74" x2="94" y2="74"/>
<ellipse fill="none" stroke="#FFD34E" stroke-width="2" stroke-miterlimit="10" cx="120" cy="60.411" rx="5.134" ry="2.411"/>
<path fill="none" stroke="#FFFFFF" stroke-width="2" stroke-miterlimit="10" d="M186.538,101.211L171,110.027l14.907,9.032
	c0,0-20.156,22.675-34.854-5.461l-10.707,2.1l-0.631-13.02l10.92,2.731C150.635,105.41,166.171,75.388,186.538,101.211z"/>
<path fill="none" stroke="#FFD34E" stroke-width="2" stroke-miterlimit="10" d="M141,110h5 M148,110h2 M173.395,97.944
	c-1.207,0-2.186,0.459-2.186,1.026c0,0.568,0.979,1.027,2.186,1.027s2.187-0.459,2.187-1.027
	C175.581,98.403,174.602,97.944,173.395,97.944z"/>
<path fill="none" stroke="#FFFFFF" stroke-width="3" stroke-miterlimit="10" d="M118.648,134.828l-19.754,11.213l18.955,11.48
	c0,0-25.63,28.826-44.316-6.941l-14.18,3.678v-17.285l13.646,3.193C72.998,140.166,92.752,101.992,118.648,134.828z"/>
<line fill="none" stroke="#FFD34E" stroke-width="2" stroke-miterlimit="10" x1="73" y1="145" x2="75" y2="145"/>
<path fill="none" stroke="#FFD34E" stroke-width="2" stroke-miterlimit="10" d="M62,145h9 M101.517,129.07
	c-2.9,0-5.25,1.104-5.25,2.467c0,1.359,2.351,2.463,5.25,2.463s5.25-1.104,5.25-2.463
	C106.768,130.174,104.417,129.07,101.517,129.07z"/>
<path fill="none" stroke="#FFFFFF" stroke-miterlimit="10" d="M62,68.5h9 M79,101.5h9 M146,84.5h6 M107,114.5h17 M146,140.5h8
	 M58,123.5h-9"/>
<path opacity="0.5" fill="none" stroke="#FFFFFF" stroke-miterlimit="10" d="M43,47.5h-4 M34,40.5h-4 M50,25.5H39 M44.5,31V20
	 M65,40.5H54 M59.5,46V35"/>
<path opacity="0.9" fill="none" stroke="#FFFFFF" stroke-miterlimit="10" d="M201,60.5h-4 M210,53.5h-4 M201,38.5h-11 M195.5,33v11
	 M188,53.5h-15 M180.5,46v15"/>
<g>
</g>
<g>
</g>
<g>
</g>
<g>
</g>
<g>
</g>
<g>
</g>
</svg>
