<?xml version="1.0" encoding="utf-8"?>
<!-- Generator: Adobe Illustrator 16.0.0, SVG Export Plug-In . SVG Version: 6.00 Build 0)  -->
<!DOCTYPE svg PUBLIC "-//W3C//DTD SVG 1.1//EN" "http://www.w3.org/Graphics/SVG/1.1/DTD/svg11.dtd">
<svg version="1.1" id="Layer_1" xmlns="http://www.w3.org/2000/svg" xmlns:xlink="http://www.w3.org/1999/xlink" x="0px" y="0px"
	 width="240px" height="180px" viewBox="0 0 240 180" enable-background="new 0 0 240 180" xml:space="preserve">
<circle fill="none" stroke="#FFFFFF" stroke-width="2" stroke-miterlimit="10" cx="116.047" cy="106.873" r="8.591"/>
<path fill="none" stroke="#FFFFFF" stroke-width="2" stroke-miterlimit="10" d="M120,115v6h10.32c0,0,1.618-0.652,0.679,15.187"/>
<g>
	<path fill="none" stroke="#FFFFFF" stroke-width="2" stroke-miterlimit="10" d="M113,115v6h-9.32c0,0-2.118-0.652-1.179,15.187"/>
</g>
<path fill="none" stroke="#FFFFFF" stroke-width="4" stroke-miterlimit="10" d="M92.422,89.802c0,0-24.699,31.947,1.879,53.425"/>
<path fill="none" stroke="#FFFFFF" stroke-width="4" stroke-miterlimit="10" d="M141.849,89.802c0,0,24.699,31.947-1.879,53.425"/>
<circle fill="none" stroke="#FFFFFF" stroke-width="2" stroke-miterlimit="10" cx="72.824" cy="71.277" r="7.249"/>
<circle fill="none" stroke="#FFFFFF" stroke-width="2" stroke-miterlimit="10" cx="52.42" cy="119.602" r="6.443"/>
<circle fill="none" stroke="#FFFFFF" stroke-width="2" stroke-miterlimit="10" cx="181.284" cy="117.454" r="6.443"/>
<circle fill="none" stroke="#FFD34E" stroke-width="2" stroke-miterlimit="10" cx="160.88" cy="71.277" r="7.249"/>
<circle fill="none" stroke="#FFD34E" stroke-width="2" stroke-miterlimit="10" cx="72.824" cy="163.63" r="7.249"/>
<circle fill="none" stroke="#FFFFFF" stroke-width="2" stroke-miterlimit="10" cx="160.88" cy="163.63" r="7.249"/>
<line fill="none" stroke="#FFFFFF" stroke-width="2" stroke-miterlimit="10" x1="78.999" y1="75.842" x2="92.422" y2="91.178"/>
<line fill="none" stroke="#FFFFFF" stroke-width="2" stroke-miterlimit="10" x1="59" y1="119" x2="80" y2="119"/>
<line fill="none" stroke="#FFD34E" stroke-width="2" stroke-miterlimit="10" x1="93.408" y1="142.479" x2="78.193" y2="158.08"/>
<line fill="none" stroke="#FFFFFF" stroke-width="2" stroke-miterlimit="10" x1="141.291" y1="143.227" x2="155.779" y2="158.529"/>
<line fill="none" stroke="#FFFFFF" stroke-width="2" stroke-miterlimit="10" x1="152" y1="119" x2="174" y2="119"/>
<line fill="none" stroke="#FFD34E" stroke-width="2" stroke-miterlimit="10" x1="142.419" y1="90.582" x2="156.048" y2="75.752"/>
<path opacity="0.9" fill="none" stroke="#FFFFFF" stroke-miterlimit="10" d="M33,36.5h4 M25,42.5h4 M35,57.5h11 M40.5,63V52
	 M51,42.5h9 M55.5,47v-9"/>
<path opacity="0.5" fill="none" stroke="#FFFFFF" stroke-miterlimit="10" d="M201,23.5h4 M209,29.5h5 M192,44.5h11 M197.5,39v11
	 M178,29.5h9 M182.5,25v9"/>
<g>
</g>
<g>
</g>
<g>
</g>
<g>
</g>
<g>
</g>
<g>
</g>
</svg>
