<?xml version="1.0" encoding="utf-8"?>
<!-- Generator: Adobe Illustrator 16.0.0, SVG Export Plug-In . SVG Version: 6.00 Build 0)  -->
<!DOCTYPE svg PUBLIC "-//W3C//DTD SVG 1.1//EN" "http://www.w3.org/Graphics/SVG/1.1/DTD/svg11.dtd">
<svg version="1.1" id="Layer_1" xmlns="http://www.w3.org/2000/svg" xmlns:xlink="http://www.w3.org/1999/xlink" x="0px" y="0px"
	 width="72px" height="72px" viewBox="0 0 72 72" enable-background="new 0 0 72 72" xml:space="preserve">
<g>
	<path fill="#4FC3F7" d="M35.328,24.833c1.879,0,3.704,0.362,5.432,1.08c1.727,0.711,3.276,1.745,4.605,3.074
		c2.679,2.68,4.154,6.244,4.154,10.037c0,1.506-0.234,2.984-0.697,4.393c-0.47,1.43-1.153,2.768-2.027,3.969
		c-1.554,2.121-2.802,3.523-3.953,4.785c-1.86,2.06-3.045,3.606-3.217,6.829h-8.521c-0.176-3.152-1.373-4.623-3.237-6.662
		c-0.977-1.063-2.315-2.578-4.002-4.883c-0.871-1.198-1.572-2.579-2.03-4.006c-0.462-1.409-0.697-2.893-0.697-4.409
		c0-1.88,0.356-3.692,1.058-5.388l0.02-0.042l0.02-0.048c0.7-1.691,1.756-3.272,3.057-4.573c1.316-1.316,2.868-2.352,4.612-3.078
		C31.624,25.196,33.45,24.833,35.328,24.833 M35.328,22.833c-2.185,0-4.277,0.435-6.192,1.23c-1.981,0.826-3.768,2.021-5.259,3.511
		c-1.472,1.472-2.675,3.251-3.491,5.223l-0.019,0.04c-0.796,1.907-1.23,4.007-1.23,6.202c0,1.739,0.277,3.45,0.796,5.032
		c0.526,1.638,1.323,3.197,2.313,4.559c1.714,2.342,3.083,3.903,4.148,5.061c1.886,2.063,2.729,3.113,2.732,6.139
		c0.001,0.504,0.41,1.17,0.915,1.17h10.647c0.505,0,0.915-0.664,0.915-1.169c0.002-3.056,0.827-4.221,2.723-6.319
		c1.055-1.156,2.406-2.657,4.082-4.943c0.99-1.361,1.776-2.89,2.314-4.527c0.52-1.582,0.797-3.268,0.797-5.017
		c0-4.472-1.816-8.527-4.74-11.451c-1.49-1.491-3.277-2.694-5.259-3.51C39.604,23.268,37.513,22.833,35.328,22.833L35.328,22.833z"
		/>
</g>
<line fill="none" stroke="#4FC3F7" stroke-width="2" stroke-miterlimit="10" x1="32" y1="60" x2="32" y2="65"/>
<line fill="none" stroke="#4FC3F7" stroke-width="2" stroke-miterlimit="10" x1="39" y1="60" x2="39" y2="65"/>
<line fill="none" stroke="#4FC3F7" stroke-width="2" stroke-miterlimit="10" x1="31" y1="65" x2="40" y2="65"/>
<line fill="none" stroke="#4FC3F7" stroke-miterlimit="10" x1="33.5" y1="61" x2="33.5" y2="50"/>
<line fill="none" stroke="#4FC3F7" stroke-miterlimit="10" x1="37.5" y1="61" x2="37.5" y2="50"/>
<path fill="none" stroke="#4FC3F7" stroke-miterlimit="10" d="M37.5,50v-3.75l5.813-8C34,30.5,28,38.25,28,38.25L33.5,46v4"/>
<line fill="none" stroke="#4FC3F7" stroke-miterlimit="10" x1="33" y1="47.5" x2="38" y2="47.5"/>
<line fill="none" stroke="#4FC3F7" stroke-miterlimit="10" x1="34.5" y1="48" x2="34.5" y2="31"/>
<line fill="none" stroke="#4FC3F7" stroke-miterlimit="10" x1="36.5" y1="48" x2="36.5" y2="31"/>
<g>
	<g>
		<line fill="none" stroke="#4FC3F7" stroke-miterlimit="10" x1="16" y1="39.5" x2="15" y2="39.5"/>
		<line fill="none" stroke="#4FC3F7" stroke-miterlimit="10" stroke-dasharray="2,2" x1="13" y1="39.5" x2="6" y2="39.5"/>
		<line fill="none" stroke="#4FC3F7" stroke-miterlimit="10" x1="5" y1="39.5" x2="4" y2="39.5"/>
	</g>
</g>
<g>
	<g>
		<line fill="none" stroke="#4FC3F7" stroke-miterlimit="10" x1="67" y1="39.5" x2="66" y2="39.5"/>
		<line fill="none" stroke="#4FC3F7" stroke-miterlimit="10" stroke-dasharray="2,2" x1="64" y1="39.5" x2="57" y2="39.5"/>
		<line fill="none" stroke="#4FC3F7" stroke-miterlimit="10" x1="56" y1="39.5" x2="55" y2="39.5"/>
	</g>
</g>
<g>
	<g>
		
			<line fill="none" stroke="#4FC3F7" stroke-linecap="round" stroke-miterlimit="10" x1="17.973" y1="31.613" x2="17.045" y2="31.239"/>
		
			<line fill="none" stroke="#4FC3F7" stroke-linecap="round" stroke-miterlimit="10" stroke-dasharray="2.0001,2.0001" x1="15.191" y1="30.489" x2="8.701" y2="27.867"/>
		
			<line fill="none" stroke="#4FC3F7" stroke-linecap="round" stroke-miterlimit="10" x1="7.773" y1="27.492" x2="6.846" y2="27.117"/>
	</g>
</g>
<g>
	<g>
		
			<line fill="none" stroke="#4FC3F7" stroke-linecap="round" stroke-miterlimit="10" x1="13.473" y1="16.979" x2="14.192" y2="17.674"/>
		
			<line fill="none" stroke="#4FC3F7" stroke-linecap="round" stroke-miterlimit="10" stroke-dasharray="2,2" x1="15.631" y1="19.063" x2="20.667" y2="23.926"/>
		
			<line fill="none" stroke="#4FC3F7" stroke-linecap="round" stroke-miterlimit="10" x1="21.386" y1="24.621" x2="22.105" y2="25.315"/>
	</g>
</g>
<g>
	<g>
		
			<line fill="none" stroke="#4FC3F7" stroke-linecap="round" stroke-miterlimit="10" x1="29.068" y1="20.681" x2="28.661" y2="19.767"/>
		
			<line fill="none" stroke="#4FC3F7" stroke-linecap="round" stroke-miterlimit="10" stroke-dasharray="2,2" x1="27.848" y1="17.94" x2="25.001" y2="11.545"/>
		
			<line fill="none" stroke="#4FC3F7" stroke-linecap="round" stroke-miterlimit="10" x1="24.594" y1="10.631" x2="24.188" y2="9.718"/>
	</g>
</g>
<g>
	<g>
		<line fill="none" stroke="#4FC3F7" stroke-miterlimit="10" x1="35.5" y1="20" x2="35.5" y2="19"/>
		<line fill="none" stroke="#4FC3F7" stroke-miterlimit="10" stroke-dasharray="2,2" x1="35.5" y1="17" x2="35.5" y2="10"/>
		<line fill="none" stroke="#4FC3F7" stroke-miterlimit="10" x1="35.5" y1="9" x2="35.5" y2="8"/>
	</g>
</g>
<g>
	<g>
		
			<line fill="none" stroke="#4FC3F7" stroke-linecap="round" stroke-linejoin="round" x1="47.487" y1="9.424" x2="47.095" y2="10.343"/>
		
			<line fill="none" stroke="#4FC3F7" stroke-linecap="round" stroke-linejoin="round" stroke-dasharray="1.9999,1.9999" x1="46.309" y1="12.183" x2="43.558" y2="18.619"/>
		
			<line fill="none" stroke="#4FC3F7" stroke-linecap="round" stroke-linejoin="round" x1="43.164" y1="19.539" x2="42.771" y2="20.458"/>
	</g>
</g>
<g>
	<g>
		
			<line fill="none" stroke="#4FC3F7" stroke-linecap="round" stroke-linejoin="round" x1="57.545" y1="15.571" x2="56.876" y2="16.314"/>
		
			<line fill="none" stroke="#4FC3F7" stroke-linecap="round" stroke-linejoin="round" stroke-dasharray="2,2" x1="55.537" y1="17.801" x2="50.854" y2="23.003"/>
		
			<line fill="none" stroke="#4FC3F7" stroke-linecap="round" stroke-linejoin="round" x1="50.185" y1="23.746" x2="49.516" y2="24.489"/>
	</g>
</g>
<g>
	<g>
		
			<line fill="none" stroke="#4FC3F7" stroke-linecap="round" stroke-miterlimit="10" x1="64.805" y1="25.267" x2="63.906" y2="25.705"/>
		
			<line fill="none" stroke="#4FC3F7" stroke-linecap="round" stroke-miterlimit="10" stroke-dasharray="1.9999,1.9999" x1="62.108" y1="26.582" x2="55.817" y2="29.65"/>
		
			<line fill="none" stroke="#4FC3F7" stroke-linecap="round" stroke-miterlimit="10" x1="54.918" y1="30.088" x2="54.02" y2="30.526"/>
	</g>
</g>
<g>
</g>
<g>
</g>
<g>
</g>
<g>
</g>
<g>
</g>
<g>
</g>
</svg>
