<?xml version="1.0" encoding="utf-8"?>
<!-- Generator: Adobe Illustrator 16.0.0, SVG Export Plug-In . SVG Version: 6.00 Build 0)  -->
<!DOCTYPE svg PUBLIC "-//W3C//DTD SVG 1.1//EN" "http://www.w3.org/Graphics/SVG/1.1/DTD/svg11.dtd">
<svg version="1.1" id="Layer_1" xmlns="http://www.w3.org/2000/svg" xmlns:xlink="http://www.w3.org/1999/xlink" x="0px" y="0px"
	 width="144px" height="108px" viewBox="0 0 144 108" enable-background="new 0 0 144 108" xml:space="preserve">
<g>
	<line fill="none" stroke="#2A2B2F" stroke-width="2" stroke-miterlimit="10" x1="40" y1="11" x2="105" y2="11"/>
	<line fill="none" stroke="#2A2B2F" stroke-width="2" stroke-miterlimit="10" x1="40" y1="19" x2="105" y2="19"/>
	<line fill="none" stroke="#2A2B2F" stroke-width="2" stroke-miterlimit="10" x1="40" y1="95" x2="105" y2="95"/>
	<line fill="none" stroke="#2A2B2F" stroke-width="2" stroke-miterlimit="10" x1="41" y1="11" x2="41" y2="95"/>
	<line fill="none" stroke="#2A2B2F" stroke-width="2" stroke-miterlimit="10" x1="104" y1="11" x2="104" y2="95"/>
	<line fill="none" stroke="#2A2B2F" stroke-width="2" stroke-miterlimit="10" x1="24" y1="10" x2="24" y2="87"/>
	<line fill="none" stroke="#2A2B2F" stroke-width="2" stroke-miterlimit="10" x1="23" y1="11" x2="37" y2="11"/>
	<line fill="none" stroke="#2A2B2F" stroke-width="2" stroke-miterlimit="10" x1="23" y1="87" x2="37" y2="87"/>
	<line fill="none" stroke="#2A2B2F" stroke-width="2" stroke-miterlimit="10" x1="36" y1="10" x2="36" y2="87"/>
	<path fill="none" stroke="#00AFFE" stroke-miterlimit="10" d="M35,15.5h-5 M35,17.5h-2 M35,21.5h-4 M35,24.5h-5 M35,27.5h-2
		 M35,30.5h-4 M35,33.5h-5"/>
	<path fill="none" stroke="#00AFFE" stroke-miterlimit="10" d="M35,46.5h-2 M35,48.5h-4 M35,52.5h-5 M35,55.5h-2 M35,57.5h-4
		 M35,61.5h-5 M35,64.5h-2 M35,67.5h-4 M35,70.5h-5"/>
	<path fill="none" stroke="#B1B1B1" stroke-miterlimit="10" d="M35,37.5h-2 M35,39.5h-4 M35,42.5h-5 M35,73.5h-2 M35,77.5h-4
		 M35,79.5h-5 M35,82.5h-2"/>
	<circle fill="none" stroke="#00AFFE" stroke-miterlimit="10" cx="77.619" cy="53.105" r="10.279"/>
	<rect x="52.5" y="75.5" fill="none" stroke="#B1B1B1" stroke-miterlimit="10" width="9" height="9"/>
	<rect x="68.5" y="75.5" fill="none" stroke="#00AFFE" stroke-miterlimit="10" width="9" height="9"/>
	<rect x="84" y="76" fill="#00AFFE" width="9" height="9"/>
	<path fill="none" stroke="#00AFFE" stroke-miterlimit="10" d="M52,29.5h25 M52.5,29v24 M77.5,29v25 M52,53.5h25"/>
	<polyline fill="none" stroke="#6F6F6E" stroke-width="2" stroke-miterlimit="10" points="109,87 109,20.768 113.005,11.596 
		116,20.768 116,87 	"/>
	<line fill="none" stroke="#6F6F6E" stroke-width="2" stroke-miterlimit="10" x1="117" y1="21" x2="109" y2="21"/>
	<path fill="none" stroke="#6F6F6E" stroke-width="2" stroke-miterlimit="10" d="M117,95h-9 M117,87h-9 M109,87v8 M116,87v8"/>
	<rect x="54.826" y="32" opacity="0.2" fill="#00AFFE" width="28.174" height="27"/>
	<rect x="111" y="89" fill="#00AFFE" width="3" height="4"/>
</g>
<path opacity="0.4" fill="none" stroke="#6F6F6E" stroke-width="2" stroke-linecap="round" stroke-miterlimit="10" stroke-dasharray="5,5,100" d="
	M5,95h30"/>
<path opacity="0.4" fill="none" stroke="#6F6F6E" stroke-width="2" stroke-linecap="round" stroke-miterlimit="10" d="M124,95h15"/>
<path opacity="0.4" fill="none" stroke="#6F6F6E" stroke-width="2" stroke-linecap="round" stroke-miterlimit="10" stroke-dasharray="5,5,65,5,500" d="
	M26,102h104"/>
<g>
</g>
<g>
</g>
<g>
</g>
<g>
</g>
<g>
</g>
<g>
</g>
</svg>
