<?xml version="1.0" encoding="utf-8"?>
<!-- Generator: Adobe Illustrator 16.0.0, SVG Export Plug-In . SVG Version: 6.00 Build 0)  -->
<!DOCTYPE svg PUBLIC "-//W3C//DTD SVG 1.1//EN" "http://www.w3.org/Graphics/SVG/1.1/DTD/svg11.dtd">
<svg version="1.1" id="Layer_1" xmlns="http://www.w3.org/2000/svg" xmlns:xlink="http://www.w3.org/1999/xlink" x="0px" y="0px"
	 width="144px" height="108px" viewBox="0 0 144 108" enable-background="new 0 0 144 108" xml:space="preserve">
<g>
	<line fill="none" stroke="#FFFFFF" stroke-miterlimit="10" x1="84" y1="28.5" x2="61" y2="28.5"/>
	<path fill="none" stroke="#23E8E5" stroke-miterlimit="10" d="M43,28.5h2 M46,28.5h2 M49,28.5h2"/>
	<path fill="none" stroke="#FFFFFF" stroke-width="2" stroke-miterlimit="10" d="M39,25h48 M40,26v46 M87,24v9 M87,32H39"/>
	<line fill="none" stroke="#23E8E5" stroke-width="2" stroke-miterlimit="10" x1="40" y1="74" x2="40" y2="77"/>
	<path fill="none" stroke="#FFFFFF" stroke-width="2" stroke-miterlimit="10" d="M62,36h42 M104,35v55 M63,35v55 M62,89h43"/>
	<path fill="none" stroke="#FFFFFF" stroke-miterlimit="10" d="M77,43.5h13 M94,45.5H73"/>
	<path fill="none" stroke="#FFFFFF" stroke-miterlimit="10" d="M66,39.5h34 M66,85.5h34 M66.5,40v46 M100.5,39v47 M101,49.5H66
		 M101,63.5H66 M101,73.5H66"/>
	<path fill="none" stroke="#23E8E5" stroke-miterlimit="10" d="M74.5,59.5h-4v-6h4V59.5z M76,56.5h6 M89.5,53.5h-4v6h4V53.5z
		 M91,56.5h6"/>
	<path fill="none" stroke="#FFFFFF" stroke-miterlimit="10" d="M94.5,70.5h-22v-4h22V70.5z"/>
	<path fill="none" stroke="#F7E967" stroke-miterlimit="10" d="M74,77.5h19 M72,79.5h23 M70,81.5h27"/>
	<line fill="none" stroke="#F7E967" stroke-miterlimit="10" x1="60" y1="39.5" x2="44" y2="39.5"/>
	<line fill="none" stroke="#F7E967" stroke-miterlimit="10" x1="60" y1="44.5" x2="47" y2="44.5"/>
	<path fill="none" stroke="#FFFFFF" stroke-miterlimit="10" d="M60,49.5H50 M60,63.5h-7"/>
	<path fill="none" stroke="#23E8E5" stroke-miterlimit="10" d="M60,56.5h-3 M55,56.5h-2"/>
</g>
<path fill="#006CC7" d="M39,50h-8.725C29.021,50,28,49.213,28,48s1.021-2,2.275-2h2.439h0.628c1.387,0,2.515-1.287,2.515-2.5
	S34.729,41,33.343,41h-0.628h-4.4h-8.293C18.158,41,17,40.357,17,39s1.158-2,3.021-2h3.893h4.4h0.629c1.386,0,2.514-1.287,2.514-2.5
	S30.329,32,28.943,32h-0.629h-3.143c-1.213,0-2.2-0.787-2.2-2s0.987-2,2.2-2H39"/>
<path fill="#006CC7" d="M105,64h13.828c1.213,0,2.2,0.787,2.2,2s-0.987,2-2.2,2h-3.143h-0.629c-1.386,0-2.514,1.287-2.514,2.5
	s1.128,2.5,2.514,2.5h0.629h4.4h3.893c1.863,0,3.021,0.643,3.021,2s-1.158,2-3.021,2h-8.293h-4.4h-0.628
	c-1.387,0-2.515,1.287-2.515,2.5s1.128,2.5,2.515,2.5h0.628h2.439c1.255,0,2.275,0.787,2.275,2s-1.021,2-2.275,2H105"/>
<path opacity="0.8" fill="none" stroke="#FFFFFF" stroke-miterlimit="10" d="M111,8.5h2 M115,11.5h2 M107,18.5h5 M109.5,16v5
	 M100,11.5h5 M102.5,9v5"/>
<g>
</g>
<g>
</g>
<g>
</g>
<g>
</g>
<g>
</g>
<g>
</g>
</svg>
