<?xml version="1.0" encoding="utf-8"?>
<!-- Generator: Adobe Illustrator 16.0.0, SVG Export Plug-In . SVG Version: 6.00 Build 0)  -->
<!DOCTYPE svg PUBLIC "-//W3C//DTD SVG 1.1//EN" "http://www.w3.org/Graphics/SVG/1.1/DTD/svg11.dtd">
<svg version="1.1" id="Layer_1" xmlns="http://www.w3.org/2000/svg" xmlns:xlink="http://www.w3.org/1999/xlink" x="0px" y="0px"
	 width="144px" height="108px" viewBox="0 0 144 108" enable-background="new 0 0 144 108" xml:space="preserve">
<path fill="#006CC7" d="M50,90h-8.725C40.021,90,39,89.213,39,88s1.021-2,2.275-2h2.439h0.628c1.387,0,2.515-1.287,2.515-2.5
	S45.729,81,44.343,81h-0.628h-4.4h-8.293C29.158,81,28,80.357,28,79s1.158-2,3.021-2h3.893h4.4h0.629c1.386,0,2.514-1.287,2.514-2.5
	S41.329,72,39.943,72h-0.629h-3.143c-1.213,0-2.2-0.787-2.2-2s0.987-2,2.2-2H50"/>
<path fill="#006CC7" d="M94,29h13.828c1.213,0,2.2,0.787,2.2,2s-0.987,2-2.2,2h-3.143h-0.629c-1.386,0-2.514,1.287-2.514,2.5
	s1.128,2.5,2.514,2.5h0.629h4.4h3.893c1.863,0,3.021,0.643,3.021,2s-1.158,2-3.021,2h-8.293h-4.4h-0.628
	c-1.387,0-2.515,1.287-2.515,2.5s1.128,2.5,2.515,2.5h0.628h2.439c1.255,0,2.275,0.787,2.275,2s-1.021,2-2.275,2H94"/>
<g>
	<line fill="none" stroke="#23E8E5" stroke-miterlimit="10" x1="85.834" y1="33.334" x2="74.917" y2="45.001"/>
	<line fill="none" stroke="#23E8E5" stroke-miterlimit="10" x1="85.834" y1="39.168" x2="80.001" y2="45.584"/>
	<line fill="none" stroke="#F7E967" stroke-miterlimit="10" x1="63" y1="42.5" x2="52" y2="42.5"/>
	<line fill="none" stroke="#FFFFFF" stroke-miterlimit="10" x1="98.25" y1="42.5" x2="109.25" y2="42.5"/>
	<line fill="none" stroke="#F7E967" stroke-miterlimit="10" x1="63" y1="39.5" x2="59" y2="39.5"/>
	<line fill="none" stroke="#23E8E5" stroke-miterlimit="10" x1="98" y1="39.5" x2="102" y2="39.5"/>
	<rect x="65" y="75" fill="none" stroke="#FFFFFF" stroke-width="2" stroke-miterlimit="10" width="8" height="14"/>
	<path fill="none" stroke="#FFFFFF" stroke-miterlimit="10" d="M80.25,75v3 M84.25,76v2 M79.75,75.5h-2 M86.75,76.5h-3 M77.25,76V66
		 M86.25,76v-6 M85.75,70.5h-5 M81.25,71v-5 M80.75,66.5h3"/>
	<path fill="none" stroke="#23E8E5" stroke-miterlimit="10" d="M106.5,75v4 M107,75.5h-4 M103.5,76V66"/>
	<path fill="none" stroke="#FFFFFF" stroke-miterlimit="10" d="M110.5,75v4 M113,75.5h-3 M112.5,76v-6 M113,70.5h-6 M107.5,71v-5
		 M107,66.5h3"/>
	<path fill="none" stroke="#23E8E5" stroke-miterlimit="10" d="M53.5,75v4 M57.5,75v4 M54,75.5h-4 M60,75.5h-3 M50.5,76V66 M59.5,76
		v-6 M60,70.5h-6 M54.5,71v-5 M54,66.5h3"/>
	<path fill="none" stroke="#FFFFFF" stroke-miterlimit="10" d="M67.5,75v-4 M71.5,75v-4 M93.5,74v-4 M97.5,74v-4"/>
	<path fill="none" stroke="#FFFFFF" stroke-width="2" stroke-miterlimit="10" d="M64,71h10 M65,62v10 M73,62v10"/>
	<rect x="91" y="74" fill="none" stroke="#F7E967" stroke-width="2" stroke-miterlimit="10" width="8" height="15"/>
	<path fill="none" stroke="#FFFFFF" stroke-miterlimit="10" d="M67.5,60v9 M70.5,63v6"/>
	<path fill="none" stroke="#FFFFFF" stroke-width="2" stroke-miterlimit="10" d="M90,70h10 M91,61v10 M99,61v10"/>
	<path fill="none" stroke="#F7E967" stroke-miterlimit="10" d="M93.5,59v9 M96.5,62v6"/>
	<path fill="none" stroke="#FFFFFF" stroke-width="2" stroke-miterlimit="10" d="M74,28h6 M82,28h6 M74,52h6 M82,52h6 M69,33v6
		 M69,41v6 M93,33v6 M93,41v6 M68,28h4 M69,27v4 M68,52h4 M69,49v4 M90,28h4 M93,27v4 M90,52h4 M93,49v4"/>
	<path fill="none" stroke="#FFFFFF" stroke-width="2" stroke-miterlimit="10" d="M77,89h10 M77,79h10 M78,90v-4 M86,82v-4 M86,90v-6
		 M78,84v-6"/>
	<path fill="none" stroke="#FFFFFF" stroke-width="2" stroke-miterlimit="10" d="M50,79h5 M56,79h4 M60,79 M50,79 M50,89h4 M55,89h5
		 M51,90v-4 M59,82v-4 M59,90v-4 M51,82v-4 M51,84v1 M59,83v1"/>
	<path fill="none" stroke="#FFFFFF" stroke-width="2" stroke-miterlimit="10" d="M108,79h5 M103,79h4 M103,79 M113,79 M109,89h4
		 M103,89h5 M112,86v4 M104,78v4 M104,86v4 M112,78v4 M112,85v-1 M104,84v-1"/>
</g>
<path opacity="0.8" fill="none" stroke="#FFFFFF" stroke-miterlimit="10" d="M45,8.5h2 M41,11.5h2 M46,18.5h5 M48.5,21v-5 M53,11.5
	h5 M55.5,14V9"/>
<g>
</g>
<g>
</g>
<g>
</g>
<g>
</g>
<g>
</g>
<g>
</g>
</svg>
