<?xml version="1.0" encoding="utf-8"?>
<!-- Generator: Adobe Illustrator 16.0.0, SVG Export Plug-In . SVG Version: 6.00 Build 0)  -->
<!DOCTYPE svg PUBLIC "-//W3C//DTD SVG 1.1//EN" "http://www.w3.org/Graphics/SVG/1.1/DTD/svg11.dtd">
<svg version="1.1" id="Layer_1" xmlns="http://www.w3.org/2000/svg" xmlns:xlink="http://www.w3.org/1999/xlink" x="0px" y="0px"
	 width="144px" height="108px" viewBox="0 0 144 108" enable-background="new 0 0 144 108" xml:space="preserve">
<path fill="#006CC7" d="M51,50h-8.725C41.021,50,40,49.213,40,48s1.021-2,2.275-2h2.439h0.628c1.387,0,2.515-1.287,2.515-2.5
	S46.729,41,45.343,41h-0.628h-4.4h-8.293C30.158,41,29,40.357,29,39s1.158-2,3.021-2h3.893h4.4h0.629c1.386,0,2.514-1.287,2.514-2.5
	S42.329,32,40.943,32h-0.629h-3.143c-1.213,0-2.2-0.787-2.2-2s0.987-2,2.2-2H51"/>
<path fill="#006CC7" d="M105,68h14.828c1.213,0,2.2,0.787,2.2,2s-0.987,2-2.2,2h-3.143h-0.629c-1.386,0-2.514,1.287-2.514,2.5
	s1.128,2.5,2.514,2.5h0.629h4.4h3.893c1.863,0,3.021,0.643,3.021,2s-1.158,2-3.021,2h-8.293h-4.4h-0.628
	c-1.387,0-2.515,1.287-2.515,2.5s1.128,2.5,2.515,2.5h0.628h2.439c1.255,0,2.275,0.787,2.275,2s-1.021,2-2.275,2H106"/>
<g>
	<line fill="none" stroke="#FFFFFF" stroke-width="2" stroke-miterlimit="10" x1="47" y1="55" x2="91" y2="55"/>
	<line fill="none" stroke="#FFFFFF" stroke-width="2" stroke-miterlimit="10" x1="38" y1="85" x2="84" y2="85"/>
	<line fill="none" stroke="#FFFFFF" stroke-width="2" stroke-miterlimit="10" x1="38" y1="89" x2="84" y2="89"/>
	<line fill="none" stroke="#FFFFFF" stroke-width="2" stroke-miterlimit="10" x1="39" y1="84" x2="39" y2="90"/>
	<line fill="none" stroke="#FFFFFF" stroke-width="2" stroke-miterlimit="10" x1="47" y1="54" x2="47" y2="85"/>
	<line fill="none" stroke="#FFFFFF" stroke-width="2" stroke-miterlimit="10" x1="90" y1="54" x2="90" y2="65"/>
	<line fill="none" stroke="#FFFFFF" stroke-miterlimit="10" x1="50.5" y1="58" x2="50.5" y2="82"/>
	<line fill="none" stroke="#FFFFFF" stroke-miterlimit="10" x1="50" y1="58.5" x2="87" y2="58.5"/>
	<line fill="none" stroke="#FFFFFF" stroke-miterlimit="10" x1="86.5" y1="58" x2="86.5" y2="65"/>
	<line fill="none" stroke="#FFFFFF" stroke-miterlimit="10" x1="50" y1="81.5" x2="84" y2="81.5"/>
	<path fill="none" stroke="#FFFFFF" stroke-width="2" stroke-miterlimit="10" d="M86,67v23 M85,67h16 M86,89h10 M100,67v7"/>
	<path fill="none" stroke="#FFFFFF" stroke-miterlimit="10" d="M97,75.5h9 M105.5,75v15 M106,89.5h-9 M97.5,75v15"/>
	<path fill="none" stroke="#23E8E5" stroke-miterlimit="10" d="M92.5,73v9"/>
	<path fill="none" stroke="#23E8E5" stroke-miterlimit="10" d="M89,75.5h2 M89,77.5h2 M89,79.5h2 M89,81.5h2 M89,73.5h2"/>
	<path fill="none" stroke="#23E8E5" stroke-miterlimit="10" d="M94,76.5h2 M94,74.5h2 M94,78.5h2 M94,80.5h2"/>
	<path fill="none" stroke="#FFFFFF" stroke-miterlimit="10" d="M98,85.5h7 M101,87.5h1"/>
	<path fill="none" stroke="#FFFFFF" stroke-miterlimit="10" d="M85,70.5h16 M85,84.5h11 M92,86.5h2"/>
	<path fill="none" stroke="#FFFFFF" stroke-miterlimit="10" d="M98,79.5h7 M100,77.5h3"/>
	<line fill="none" stroke="#23E8E5" stroke-miterlimit="10" x1="99" y1="81.5" x2="104" y2="81.5"/>
	<line fill="none" stroke="#23E8E5" stroke-miterlimit="10" x1="99" y1="83.5" x2="104" y2="83.5"/>
	<line fill="none" stroke="#FFFFFF" stroke-miterlimit="10" x1="59.5" y1="63" x2="59.5" y2="78"/>
	<path fill="none" stroke="#FFFFFF" stroke-miterlimit="10" d="M54,65.5h3 M54,67.5h3 M54,69.5h3 M54,71.5h3 M54,73.5h3 M54,75.5h3"
		/>
	<line fill="none" stroke="#F7E967" stroke-width="2" stroke-miterlimit="10" x1="62" y1="66" x2="79" y2="66"/>
	<line fill="none" stroke="#F7E967" stroke-miterlimit="10" x1="62" y1="70.5" x2="77" y2="70.5"/>
	<line fill="none" stroke="#F7E967" stroke-miterlimit="10" x1="62" y1="74.5" x2="73" y2="74.5"/>
	<path fill="none" stroke="#23E8E5" stroke-miterlimit="10" d="M53,48.5h5 M53,45.5h3 M53,42.5h5 M53,39.5h3 M53,36.5h5 M53,33.5h3
		 M53,30.5h5"/>
	<path fill="none" stroke="#FFFFFF" stroke-width="2" stroke-miterlimit="10" d="M52,52V26 M62,52V26 M52,27h11"/>
	<path fill="none" stroke="#F7E967" stroke-miterlimit="10" d="M66.5,35v17 M72.5,35v17 M66,34.5h1 M67,33.5h1 M68,32.5h1 M69,31.5
		h1 M70,32.5h1 M71,33.5h1 M72,34.5h1 M66,35.5h7 M66,37.5h7"/>
	<path fill="none" stroke="#FFFFFF" stroke-miterlimit="10" d="M90,37.5h11 M87,35.5h7 M90,29.5h5"/>
</g>
<path opacity="0.8" fill="none" stroke="#FFFFFF" stroke-miterlimit="10" d="M110,8.5h2 M114,11.5h2 M106,18.5h5 M108.5,16v5
	 M99,11.5h5 M101.5,9v5"/>
<rect x="101" y="68" fill="#006CC7" width="4" height="7"/>
<g>
</g>
<g>
</g>
<g>
</g>
<g>
</g>
<g>
</g>
<g>
</g>
</svg>
