<?xml version="1.0" encoding="utf-8"?>
<!-- Generator: Adobe Illustrator 16.0.0, SVG Export Plug-In . SVG Version: 6.00 Build 0)  -->
<!DOCTYPE svg PUBLIC "-//W3C//DTD SVG 1.1//EN" "http://www.w3.org/Graphics/SVG/1.1/DTD/svg11.dtd">
<svg version="1.1" id="Layer_1" xmlns="http://www.w3.org/2000/svg" xmlns:xlink="http://www.w3.org/1999/xlink" x="0px" y="0px"
	 width="144px" height="108px" viewBox="0 0 144 108" enable-background="new 0 0 144 108" xml:space="preserve">
<path fill="#006CC7" d="M40,81h-8.725C30.021,81,29,80.213,29,79s1.021-2,2.275-2h2.439h0.628c1.387,0,2.515-1.287,2.515-2.5
	S35.729,72,34.343,72h-0.628h-4.4h-8.293C19.158,72,18,71.357,18,70s1.158-2,3.021-2h3.893h4.4h0.629c1.386,0,2.514-1.287,2.514-2.5
	S31.329,63,29.943,63h-0.629h-3.143c-1.213,0-2.2-0.787-2.2-2s0.987-2,2.2-2H40"/>
<path fill="#006CC7" d="M93,42c0-5-1-6-1-6l-5-6h6h8.725c1.255,0,2.275,0.787,2.275,2s-1.021,2-2.275,2h-2.439h-0.628
	c-1.387,0-2.515,1.287-2.515,2.5s1.128,2.5,2.515,2.5h0.628h4.4h8.293c1.863,0,3.021,0.643,3.021,2s-1.158,2-3.021,2h-3.893h-4.4
	h-0.629c-1.386,0-2.514,1.287-2.514,2.5s1.128,2.5,2.514,2.5h0.629h3.143c1.213,0,2.2,0.787,2.2,2s-0.987,2-2.2,2H93"/>
<g>
	<circle fill="none" stroke="#F7E967" stroke-miterlimit="10" cx="85" cy="70" r="20"/>
	<path fill="none" stroke="#F7E967" stroke-miterlimit="10" d="M100,68.92c0,0-0.871,17.022-18,16.039"/>
	<circle fill="none" stroke="#23E8E5" stroke-miterlimit="10" cx="59" cy="70" r="20"/>
	<path fill="none" stroke="#23E8E5" stroke-miterlimit="10" d="M57.5,85c0,0-13.843-0.791-12.959-14.72"/>
	<circle fill="none" stroke="#FFFFFF" stroke-width="2" stroke-miterlimit="10" cx="72" cy="46.999" r="20"/>
	<path fill="none" stroke="#FFFFFF" stroke-miterlimit="10" d="M60,38.07c0,0,12.387-11.612,24,0.93"/>
	<line fill="none" stroke="#FFFFFF" stroke-width="2" stroke-miterlimit="10" x1="60" y1="57" x2="62" y2="57"/>
	<line fill="none" stroke="#FFFFFF" stroke-width="2" stroke-miterlimit="10" x1="81" y1="57" x2="83" y2="57"/>
	<line fill="none" stroke="#FFFFFF" stroke-width="2" stroke-miterlimit="10" x1="71" y1="74" x2="73" y2="74"/>
</g>
<path opacity="0.8" fill="none" stroke="#FFFFFF" stroke-miterlimit="10" d="M38,8.5h2 M34,11.5h2 M39,18.5h5 M41.5,21v-5 M46,11.5
	h5 M48.5,14V9"/>
<g>
</g>
<g>
</g>
<g>
</g>
<g>
</g>
<g>
</g>
<g>
</g>
</svg>
