<?xml version="1.0" encoding="utf-8"?>
<!-- Generator: Adobe Illustrator 16.0.0, SVG Export Plug-In . SVG Version: 6.00 Build 0)  -->
<!DOCTYPE svg PUBLIC "-//W3C//DTD SVG 1.1//EN" "http://www.w3.org/Graphics/SVG/1.1/DTD/svg11.dtd">
<svg version="1.1" id="Layer_1" xmlns="http://www.w3.org/2000/svg" xmlns:xlink="http://www.w3.org/1999/xlink" x="0px" y="0px"
	 width="144px" height="108px" viewBox="0 0 144 108" enable-background="new 0 0 144 108" xml:space="preserve">
<path fill="#006CC7" d="M38,61h-8.725C28.021,61,27,60.213,27,59s1.021-2,2.275-2h2.439h0.628c1.387,0,2.515-1.287,2.515-2.5
	S33.729,52,32.343,52h-0.628h-4.4h-8.293C17.158,52,16,51.357,16,50s1.158-2,3.021-2h3.893h4.4h0.629c1.386,0,2.514-1.287,2.514-2.5
	S29.329,43,27.943,43h-0.629h-3.143c-1.213,0-2.2-0.787-2.2-2s0.987-2,2.2-2H38"/>
<path fill="#006CC7" d="M106,52h13.828c1.213,0,2.2,0.787,2.2,2s-0.987,2-2.2,2h-3.143h-0.629c-1.386,0-2.514,1.287-2.514,2.5
	s1.128,2.5,2.514,2.5h0.629h4.4h3.893c1.863,0,3.021,0.643,3.021,2s-1.158,2-3.021,2h-8.293h-4.4h-0.628
	c-1.387,0-2.515,1.287-2.515,2.5s1.128,2.5,2.515,2.5h0.628h2.439c1.255,0,2.275,0.787,2.275,2s-1.021,2-2.275,2H106"/>
<g>
	<path fill="none" stroke="#23E8E5" stroke-miterlimit="10" d="M38,29.5h46"/>
	<path fill="none" stroke="#FFFFFF" stroke-width="2" stroke-miterlimit="10" d="M38,23h47 M38,75h39 M39,22v53 M84,22v11"/>
	<path fill="none" stroke="#FFFFFF" stroke-width="2" stroke-miterlimit="10" d="M79,36h27 M79,75h27 M80,35v41 M105,35v41"/>
	<line fill="none" stroke="#23E8E5" stroke-miterlimit="10" x1="42" y1="26.5" x2="44" y2="26.5"/>
	<line fill="none" stroke="#23E8E5" stroke-miterlimit="10" x1="46" y1="26.5" x2="48" y2="26.5"/>
	<path fill="none" stroke="#23E8E5" stroke-miterlimit="10" d="M73.5,80v5 M76.5,80v3 M79.5,80v5"/>
	<path fill="none" stroke="#23E8E5" stroke-miterlimit="10" d="M52.5,80v3 M55.5,80v5 M58.5,80v3"/>
	<path fill="none" stroke="#FFFFFF" stroke-miterlimit="10" d="M43.5,80v5 M46.5,80v3 M49.5,80v5 M61.5,80v5 M64.5,80v3 M67.5,80v5
		 M70.5,80v3"/>
	<path fill="none" stroke="#FFFFFF" stroke-miterlimit="10" d="M82.5,80v3 M85.5,80v5 M88.5,80v3 M91.5,80v5 M94.5,80v3 M97.5,80v5
		 M100.5,80v3"/>
	<line fill="none" stroke="#23E8E5" stroke-miterlimit="10" x1="50" y1="26.5" x2="52" y2="26.5"/>
	<line fill="none" stroke="#FFFFFF" stroke-width="2" stroke-miterlimit="10" x1="38" y1="79" x2="105" y2="79"/>
	<line fill="none" stroke="#FFFFFF" stroke-width="2" stroke-miterlimit="10" x1="38" y1="89" x2="106" y2="89"/>
	<line fill="none" stroke="#FFFFFF" stroke-width="2" stroke-miterlimit="10" x1="39" y1="78" x2="39" y2="90"/>
	<line fill="none" stroke="#FFFFFF" stroke-width="2" stroke-miterlimit="10" x1="105" y1="78" x2="105" y2="90"/>
	<line fill="none" stroke="#23E8E5" stroke-miterlimit="10" x1="91" y1="39.5" x2="94" y2="39.5"/>
	<path fill="none" stroke="#23E8E5" stroke-miterlimit="10" d="M101.5,59.5h-7v-7h7V59.5z"/>
	<path fill="none" stroke="#FFFFFF" stroke-miterlimit="10" d="M101.5,48.5h-18v-5h18V48.5z M90.5,52.5h-7v7h7V52.5z M90.5,63.5h-7
		v7h7V63.5z"/>
	<path fill="none" stroke="#F7E967" stroke-miterlimit="10" d="M101.5,70.5h-7v-7h7V70.5z"/>
	<line fill="none" stroke="#FFFFFF" stroke-miterlimit="10" x1="43.5" y1="35" x2="43.5" y2="41"/>
	<rect x="43.5" y="43.5" fill="none" stroke="#F7E967" stroke-miterlimit="10" width="10" height="13"/>
	<rect x="43.5" y="58.5" fill="none" stroke="#23E8E5" stroke-miterlimit="10" width="10" height="13"/>
	<path fill="none" stroke="#FFFFFF" stroke-miterlimit="10" d="M43,35.5h34 M43,40.5h34 M66.5,43.5h-10v13h10V43.5z M66.5,58.5h-10
		v13h10V58.5z M69.5,43v14 M70,43.5h7 M70,56.5h7 M69.5,58v14 M70,58.5h7 M70,71.5h7"/>
</g>
<path opacity="0.8" fill="none" stroke="#FFFFFF" stroke-miterlimit="10" d="M106,8.5h2 M110,11.5h2 M102,18.5h5 M104.5,16v5
	 M95,11.5h5 M97.5,9v5"/>
<g>
</g>
<g>
</g>
<g>
</g>
<g>
</g>
<g>
</g>
<g>
</g>
</svg>
