<?xml version="1.0" encoding="utf-8"?>
<!-- Generator: Adobe Illustrator 16.0.0, SVG Export Plug-In . SVG Version: 6.00 Build 0)  -->
<!DOCTYPE svg PUBLIC "-//W3C//DTD SVG 1.1//EN" "http://www.w3.org/Graphics/SVG/1.1/DTD/svg11.dtd">
<svg version="1.1" id="Layer_1" xmlns="http://www.w3.org/2000/svg" xmlns:xlink="http://www.w3.org/1999/xlink" x="0px" y="0px"
	 width="144px" height="108px" viewBox="0 0 144 108" enable-background="new 0 0 144 108" xml:space="preserve">
<path fill="#006CC7" d="M44,65h-8.725C34.021,65,33,64.213,33,63s1.021-2,2.275-2h2.439h0.628c1.387,0,2.515-1.287,2.515-2.5
	S39.729,56,38.343,56h-0.628h-4.4h-8.293C23.158,56,22,55.357,22,54s1.158-2,3.021-2h3.893h4.4h0.629c1.386,0,2.514-1.287,2.514-2.5
	S35.329,47,33.943,47h-0.629h-3.143c-1.213,0-2.2-0.787-2.2-2s0.987-2,2.2-2H44"/>
<path fill="#006CC7" d="M100,53h13.828c1.213,0,2.2,0.787,2.2,2s-0.987,2-2.2,2h-3.143h-0.629c-1.386,0-2.514,1.287-2.514,2.5
	s1.128,2.5,2.514,2.5h0.629h4.4h3.893c1.863,0,3.021,0.643,3.021,2s-1.158,2-3.021,2h-8.293h-4.4h-0.628
	c-1.387,0-2.515,1.287-2.515,2.5s1.128,2.5,2.515,2.5h0.628h2.439c1.255,0,2.275,0.787,2.275,2s-1.021,2-2.275,2H100"/>
<g>
	<g>
		<path fill="#FFFFFF" d="M72,26c-0.005,0-0.01,0-0.014,0c-0.001,0-0.003,0-0.004,0c-0.003,0-0.007,0-0.01,0
			c-0.002,0-0.003,0-0.005,0c-0.004,0-0.008,0-0.011,0c-0.001,0-0.002,0-0.003,0c-0.004,0-0.009,0-0.014,0c-0.002,0-0.002,0-0.004,0
			c-0.003,0-0.007,0-0.01,0c-0.002,0-0.003,0-0.005,0c-0.003,0-0.006,0-0.01,0c-0.002,0-0.002,0-0.004,0c-0.004,0-0.009,0-0.014,0
			c-0.001,0-0.003,0-0.004,0c-0.003,0-0.006,0-0.01,0c-0.002,0-0.004,0-0.006,0c-0.003,0-0.006,0-0.009,0c-0.001,0-0.004,0-0.005,0
			c-0.004,0-0.008,0-0.012,0c-0.001,0-0.001,0-0.002,0c-0.004,0-0.009,0-0.014,0c-0.001,0-0.004,0-0.005,0c-0.003,0-0.006,0-0.009,0
			c-0.002,0-0.003,0-0.006,0c-0.003,0-0.007,0-0.01,0c-0.002,0-0.002,0-0.004,0c-0.004,0-0.009,0-0.014,0c-0.002,0-0.003,0-0.005,0
			c-0.003,0-0.006,0-0.009,0c-0.002,0-0.004,0-0.006,0c-0.002,0-0.005,0-0.008,0c-0.002,0-0.004,0-0.006,0c-0.004,0-0.009,0-0.013,0
			c-0.002,0-0.003,0-0.005,0c-0.003,0-0.006,0-0.009,0c-0.002,0-0.004,0-0.006,0c-0.003,0-0.006,0-0.009,0c-0.002,0-0.004,0-0.006,0
			c-0.003,0-0.006,0-0.009,0s-0.004,0-0.007,0s-0.007,0-0.011,0c-0.002,0-0.004,0-0.006,0c-0.002,0-0.005,0-0.008,0
			c-0.002,0-0.005,0-0.007,0c-0.002,0-0.005,0-0.008,0c-0.002,0-0.004,0-0.006,0c-0.004,0-0.009,0-0.013,0c-0.002,0-0.004,0-0.006,0
			c-0.003,0-0.006,0-0.008,0s-0.004,0-0.006,0c-0.002,0-0.005,0-0.008,0c-0.003,0-0.003,0-0.006,0c-0.003,0-0.006,0-0.009,0
			s-0.007,0-0.01,0c-0.002,0-0.005,0-0.008,0c-0.003,0-0.004,0-0.007,0c-0.002,0-0.004,0-0.006,0c-0.003,0-0.005,0-0.008,0
			c-0.002,0-0.004,0-0.006,0c-0.005,0-0.009,0-0.014,0c-0.002,0-0.004,0-0.006,0c-0.003,0-0.005,0-0.008,0c-0.002,0-0.003,0-0.005,0
			s-0.006,0-0.008,0s-0.003,0-0.005,0c-0.01,0-0.019,0-0.029,0c-0.001,0-0.003,0-0.005,0c-0.003,0-0.005,0-0.008,0
			c-0.001,0-0.003,0-0.005,0c-0.003,0-0.005,0-0.008,0c-0.001,0-0.003,0-0.004,0c-0.006,0-0.01,0-0.016,0c-0.002,0-0.003,0-0.005,0
			c-0.003,0-0.006,0-0.009,0c-0.001,0-0.003,0-0.005,0c-0.003,0-0.005,0-0.008,0c-0.001,0-0.003,0-0.004,0c-0.01,0-0.02,0-0.03,0
			c-0.001,0-0.003,0-0.004,0c-0.003,0-0.006,0-0.009,0c-0.001,0-0.003,0-0.004,0c-0.003,0-0.006,0-0.009,0c0,0-0.001,0-0.002,0
			c-0.006,0-0.013,0-0.02,0c-0.001,0-0.002,0-0.003,0c-0.003,0-0.006,0-0.009,0c-0.001,0-0.003,0-0.004,0c-0.003,0-0.006,0-0.009,0
			c-0.001,0-0.002,0-0.003,0c-0.007,0-0.015,0-0.021,0l0,0c-0.003,0-0.007,0-0.01,0c-0.001,0-0.002,0-0.003,0
			c-0.003,0-0.006,0-0.009,0c-0.001,0-0.003,0-0.004,0c-0.01,0-0.021,0-0.032,0c-0.001,0-0.002,0-0.003,0c-0.004,0-0.005,0-0.01,0
			c-0.001,0-0.002,0-0.003,0c-0.01,0-0.022,0-0.032,0c-0.001,0-0.001,0-0.002,0c-0.003,0-0.007,0-0.01,0c-0.001,0-0.002,0-0.003,0
			c-0.014,0-0.031,0-0.045,0c-0.001,0-0.001,0-0.002,0c-0.004,0-0.007,0-0.011,0c0,0-0.001,0-0.001,0c-0.012,0-0.021,0-0.034,0
			c0,0-0.001,0-0.002,0c-0.004,0-0.006,0-0.011,0c0,0-0.001,0-0.002,0c-0.016,0-0.03,0-0.046,0c0,0-0.001,0-0.002,0
			c-0.004,0-0.007,0-0.011,0c0,0,0,0,0,0c-0.012,0-0.023,0-0.035,0c-0.001,0-0.001,0-0.002,0c-0.004,0-0.007,0-0.011,0
			c0,0-0.001,0-0.002,0c-0.012,0-0.022,0-0.034,0c0,0,0,0-0.001,0c-0.004,0-0.006,0-0.011,0c0,0-0.001,0-0.002,0
			c-0.012,0-0.021,0-0.034,0.001c0,0,0-0.001-0.001-0.001c-0.003,0-0.007,0-0.01,0c-0.001,0-0.002,0-0.003,0
			c-0.004,0-0.006,0-0.01,0c0,0-0.001,0-0.001,0c-0.011,0-0.022,0-0.033,0c-0.001,0-0.002,0-0.003,0c-0.004,0-0.006,0-0.01,0
			c-0.001,0-0.002,0-0.003,0c-0.01,0-0.021,0-0.032,0c-0.001,0-0.002,0-0.003,0c-0.003,0-0.006,0-0.009,0c-0.001,0-0.002,0-0.004,0
			c-0.003,0-0.006,0-0.009,0c-0.001,0-0.002,0-0.004,0c-0.006,0-0.01,0-0.016,0c-0.002,0-0.004,0-0.005,0c-0.003,0-0.004,0-0.008,0
			c-0.002,0-0.004,0-0.006,0c-0.002,0-0.005,0-0.007,0s-0.004,0-0.006,0c-0.005,0-0.01,0-0.015,0c-0.001,0-0.003,0-0.004,0
			c-0.003,0-0.005,0-0.008,0c-0.002,0-0.004,0-0.006,0s-0.005,0-0.008,0c-0.002,0-0.004,0-0.006,0c-0.003,0-0.004,0-0.007,0
			c-0.003,0-0.006,0-0.009,0s-0.006,0-0.009,0c-0.002,0-0.005,0-0.008,0c-0.002,0-0.004,0-0.006,0c-0.003,0-0.006,0-0.009,0
			c-0.001,0-0.004,0-0.005,0c-0.004,0-0.007,0-0.011,0c-0.001,0-0.002,0-0.003,0c-0.004,0-0.009,0-0.014,0c-0.002,0-0.003,0-0.005,0
			c-0.003,0-0.006,0-0.009,0c-0.002,0-0.003,0-0.005,0c-0.003,0-0.007,0-0.011,0c-0.001,0-0.002,0-0.003,0c-0.005,0-0.01,0-0.015,0
			c-0.001,0-0.001,0-0.002,0c-0.004,0-0.008,0-0.012,0c-0.001,0-0.003,0-0.004,0c-0.003,0-0.007,0-0.011,0c-0.001,0-0.002,0-0.003,0
			c-0.01,0-0.02,0-0.029,0c-0.001,0-0.001,0-0.002,0c-0.004,0-0.009,0-0.013,0c-0.001,0,0,0-0.001,0
			c-0.015,0-0.031,0.023-0.046,0.023l0,0c-0.114,0.007-0.228,0.024-0.341,0.031c-0.551,0.036-0.968,0.518-0.932,1.069
			c0.035,0.529,0.475,0.938,0.997,0.938c0.022,0,0.044,0,0.067-0.001C70.75,28.019,71.378,28,72,28c0.083,0,0.165-0.01,0.242-0.029
			c0.077,0.021,0.158,0.032,0.242,0.034c0.622,0.011,1.249,0.042,1.866,0.093c0.028,0.002,0.056,0.003,0.084,0.003
			c0.515,0,0.952-0.395,0.995-0.917c0.046-0.549-0.362-1.069-0.911-1.116C74.386,26.056,74.253,26,74.12,26
			c-0.002,0-0.003,0-0.004,0c-0.004,0-0.005,0-0.009,0c-0.002,0-0.003,0-0.004,0c-0.003,0-0.007,0-0.01,0h-0.001
			c-0.007,0-0.012,0-0.019,0c-0.002,0-0.004,0-0.006,0c-0.003,0-0.005,0-0.008,0c-0.002,0-0.004,0-0.006,0c-0.003,0-0.004,0-0.008,0
			c-0.002,0-0.005,0-0.008,0s-0.006,0-0.009,0s-0.007,0-0.01,0c-0.002,0-0.004,0-0.006,0c-0.003,0-0.005,0-0.008,0
			c-0.002,0-0.004,0-0.006,0c-0.004,0-0.007,0-0.011,0c-0.001,0-0.002,0-0.003,0c-0.005,0-0.01,0-0.015,0h-0.002
			c-0.004,0-0.008,0-0.013,0c-0.002,0-0.001,0-0.003,0c-0.005,0-0.009,0-0.013,0H73.94c-0.01,0-0.02,0-0.029,0
			c-0.001,0-0.001,0-0.002,0c-0.005,0-0.01,0-0.014,0c-0.001,0-0.001,0-0.002,0c-0.015,0-0.071,0.028-0.087,0.027l0,0
			C73.553,26.011,73,26.004,73,25.995V26c0,0,0.072,0,0.067,0l0,0c-0.011,0-0.021,0-0.031,0h-0.001c-0.005,0-0.009,0-0.014,0
			c-0.001,0-0.001,0-0.002,0c-0.011,0-0.021,0-0.03,0h-0.001c-0.004,0-0.009,0-0.013,0h-0.003c-0.004,0-0.008,0-0.013,0h-0.002
			c-0.005,0-0.01,0-0.015,0c-0.001,0,0,0,0,0c-0.005,0-0.009,0-0.014,0c-0.001,0-0.003,0-0.004,0c-0.003,0-0.007,0-0.011,0
			c-0.001,0-0.003,0-0.004,0c-0.004,0-0.008,0-0.013,0c-0.001,0-0.002,0-0.003,0c-0.004,0-0.008,0-0.012,0c-0.001,0-0.004,0-0.005,0
			c-0.003,0-0.006,0-0.009,0c-0.002,0-0.004,0-0.006,0c-0.003,0-0.006,0-0.009,0c-0.002,0-0.002,0-0.005,0c-0.004,0-0.008,0-0.013,0
			c-0.002,0-0.005,0-0.007,0c-0.002,0-0.005,0-0.007,0c-0.002,0-0.005,0-0.007,0s-0.004,0-0.006,0c-0.003,0-0.004,0-0.007,0
			c-0.002,0-0.004,0-0.006,0c-0.005,0-0.009,0-0.014,0c-0.002,0-0.003,0-0.005,0c-0.003,0-0.006,0-0.009,0c-0.001,0-0.003,0-0.004,0
			c-0.003,0-0.006,0-0.009,0c0,0-0.001,0-0.001,0c-0.007,0-0.015,0-0.021,0c0,0-0.001,0-0.002,0c-0.004,0-0.006,0-0.01,0
			c-0.001,0-0.001,0-0.002,0C72.709,26,73,26,73,26v0.002C73,26.001,72.578,26,72.516,26c-0.005,0-0.01,0-0.015,0
			c-0.083,0-0.165,0.013-0.242,0.031C72.176,26.01,72.089,25.999,72,26L72,26L72,26z M66.238,26.572
			c-0.065,0-0.132,0.006-0.199,0.02c-0.118,0.024-0.236,0.048-0.353,0.073h0.172C65.848,26.668,66,26.67,66,26.672v0.163
			C66,26.836,65.646,27,65.641,27h-0.002c-0.004,0-0.009,0-0.013,0c-0.001,0,0,0-0.001,0c-0.004,0-0.009,0-0.014,0
			c-0.001,0-0.002,0-0.003,0c-0.003,0-0.007,0-0.011,0c-0.002,0-0.002,0-0.004,0c-0.003,0-0.007,0-0.011,0c-0.001,0-0.002,0-0.003,0
			c-0.004,0-0.008,0-0.013,0c-0.002,0-0.004,0-0.006,0c-0.002,0-0.005-0.152-0.007-0.151c-0.002,0-0.005-0.076-0.007-0.076
			c-0.002,0-0.005-0.037-0.007-0.037c-0.003,0-0.006-0.018-0.009-0.018c-0.003,0.001-0.006,0.138-0.009,0.139
			C65.517,26.858,65.516,27,65.513,27c-0.002,0-0.004,0-0.006,0s-0.005,0-0.007,0s-0.004-0.001-0.006-0.001
			C65.488,27,65.483,27,65.478,27c-0.001,0-0.002,0-0.003,0c-0.003,0-0.006,0-0.009,0c-0.001,0-0.003,0-0.004,0
			c-0.003,0-0.006,0-0.009,0c-0.001,0-0.002,0-0.003,0c-0.007,0-0.014,0-0.021,0l0,0c-0.004,0-0.006,0-0.01,0c0,0-0.001,0-0.002,0
			C65.413,27,65,26.864,65,26.865v-0.069c0,0.002,0-0.029,0-0.027v-0.017c0,0.097-0.672,0.196-1.096,0.311
			c-0.531,0.146-0.75,0.691-0.606,1.223c0.122,0.445,0.571,0.735,1.011,0.735c0.087,0,0.198-0.013,0.287-0.037
			c0.597-0.163,1.22-0.308,1.827-0.43c0.542-0.109,0.898-0.636,0.789-1.178C67.115,26.901,66.704,26.572,66.238,26.572
			L66.238,26.572z M60.705,28.281c-0.129,0-0.261,0.025-0.388,0.079c-0.617,0.261-1.222,0.542-1.817,0.842
			c-0.492,0.249-0.689,0.85-0.44,1.342c0.176,0.349,0.528,0.55,0.894,0.55c0.151,0,0.305-0.035,0.45-0.107
			c0.553-0.279,1.123-0.543,1.692-0.785c0.509-0.215,0.747-0.802,0.531-1.311C61.465,28.51,61.095,28.281,60.705,28.281
			L60.705,28.281z M55.626,31.061c-0.194,0-0.391,0.056-0.563,0.174c-0.552,0.378-1.09,0.774-1.615,1.188
			c-0.432,0.342-0.505,0.969-0.164,1.402c0.197,0.25,0.49,0.381,0.786,0.381c0.217,0,0.435-0.07,0.618-0.215
			c0.487-0.383,0.993-0.755,1.504-1.106c0.456-0.312,0.572-0.935,0.26-1.39C56.258,31.213,55.944,31.061,55.626,31.061
			L55.626,31.061z M51.199,34.794c-0.26,0-0.52,0.101-0.716,0.301c-0.213,0.219-0.422,0.441-0.628,0.667c0,0,0,0,0,0.001
			c-0.01,0.011-0.02,0.021-0.03,0.033c0,0,0,0-0.001,0c-0.007,0.008-0.014,0.016-0.022,0.024c0,0,0,0,0,0.001
			c-0.01,0.011-0.02,0.021-0.03,0.033l0,0c-0.008,0.008-0.014,0.016-0.022,0.024c0,0,0,0.001,0,0.001
			c-0.003,0.003-0.005,0.005-0.007,0.008c0,0,0,0,0,0.001c-0.007,0.008-0.014,0.015-0.021,0.024c0,0-0.001,0.001-0.001,0.001
			c-0.007,0.007-0.014,0.015-0.021,0.023c-0.001,0-0.001,0.001-0.002,0.001c-0.002,0.003-0.004,0.004-0.006,0.007
			c0,0.001-0.001,0.001-0.002,0.002c-0.004,0.005-0.008,0.009-0.013,0.014c0,0,0,0-0.001,0.001
			c-0.002,0.002-0.004,0.004-0.006,0.006c-0.001,0.001-0.002,0.002-0.003,0.003c-0.002,0.002-0.004,0.004-0.006,0.006
			c-0.001,0.001-0.001,0.001-0.002,0.002c-0.004,0.004-0.008,0.008-0.011,0.013c-0.001,0.001-0.002,0.002-0.003,0.003
			C49.64,36,49.639,36,49.636,36.003c-0.001,0-0.001,0.001-0.002,0.002c-0.006,0.007-0.013,0.014-0.019,0.021
			c-0.001,0.001-0.002,0.003-0.003,0.004c-0.002,0.002-0.003,0.003-0.005,0.006c-0.001,0.001-0.002,0.003-0.004,0.004
			c-0.002,0.002-0.006,0.006-0.008,0.009c-0.001,0.001-0.003,0.003-0.004,0.004c-0.002,0.002-0.003,0.003-0.005,0.006
			c-0.001,0.001-0.003,0.003-0.004,0.005c-0.002,0.002-0.002,0.003-0.004,0.005c-0.002,0.003-0.005,0.006-0.008,0.009
			c-0.001,0.001-0.002,0.002-0.004,0.004c-0.002,0.002-0.004,0.004-0.006,0.006c-0.001,0.001-0.002,0.003-0.003,0.004
			c-0.002,0.002-0.004,0.005-0.006,0.007c-0.001,0-0.003,0.003-0.003,0.003c-0.003,0.003-0.005,0.006-0.008,0.01
			c0,0-0.002,0.002-0.003,0.003c-0.002,0.002-0.004,0.005-0.007,0.008c0,0-0.002,0.002-0.002,0.003
			c-0.003,0.003-0.006,0.007-0.009,0.01c0,0-0.001,0.001-0.001,0.002c-0.002,0.003-0.005,0.006-0.008,0.009
			c-0.001,0.001-0.001,0.001-0.003,0.003c-0.003,0.003-0.005,0.006-0.008,0.01c-0.001,0.001,0,0,0,0
			c-0.003,0.004-0.006,0.007-0.01,0.011c0,0-0.001,0.001-0.001,0.001c-0.003,0.003-0.006,0.006-0.008,0.01
			c-0.001,0-0.001,0.001-0.001,0.001c-0.007,0.007-0.013,0.015-0.02,0.022l0,0.001c-0.106,0.121-0.212,0.243-0.316,0.366
			c-0.358,0.42-0.307,1.052,0.114,1.41c0.188,0.16,0.418,0.238,0.647,0.238c0.283,0,0.564-0.12,0.762-0.352
			c0.401-0.472,0.824-0.937,1.256-1.381c0.385-0.396,0.376-1.029-0.02-1.414C51.701,34.888,51.45,34.794,51.199,34.794
			L51.199,34.794z M47.596,39.328c-0.329,0-0.651,0.013-0.842,0.31C46.437,40.132,46.133,41,45.844,41h0.085
			C45.924,41,46,41.316,46,41.325v0.001c0,0.004-0.09,0.007-0.092,0.011c0,0.001-0.044-0.173-0.045-0.172
			C45.86,41.168,45.836,41,45.834,41h-0.011c-0.002,0-0.01,0.185-0.012,0.188c-0.001,0.001-0.004,0.091-0.005,0.093
			c-0.001,0.002-0.004,0.049-0.005,0.052c-0.001,0.001-0.003,0.025-0.004,0.027c-0.001,0.003-0.003,0.016-0.004,0.019
			c-0.002,0.003-0.004,0.012-0.006,0.015c-0.001,0.001-0.001,0.005-0.002,0.007c-0.001,0.002-0.003,0.006-0.004,0.009
			c0,0.001-0.001,0.003-0.001,0.004c-0.005,0.009-0.01,0.018-0.015,0.027c0,0,0,0.001,0,0.001c-0.012,0.021-0.023,0.042-0.035,0.062
			c-0.266,0.483-0.091,1.091,0.392,1.358c0.153,0.085,0.319,0.125,0.483,0.125c0.352,0,0.694-0.186,0.876-0.516
			c0.3-0.542,0.622-1.081,0.957-1.602c0.299-0.465,0.165-1.083-0.299-1.382C47.969,39.379,47.782,39.328,47.596,39.328
			L47.596,39.328z M44.965,44.485c-0.399,0-0.777,0.242-0.931,0.636c-0.047,0.12-0.092,0.239-0.138,0.36v-0.245
			C43.895,45.239,43.894,45,43.892,45c0,0,0.06,0,0.059,0C43.947,46,44,45.512,44,45.523c0,0,0,0.001,0,0.001
			c0,0.014,0,0.027,0,0.042c0,0,0,0.001,0,0.001C44,45.578,43.925,46,43.921,46c-0.001,0-0.035,0-0.035,0c-0.001,0-0.02,0-0.021,0
			c0,0,0.073,0,0.072,0C43.934,46,44,45.631,44,45.641c0,0,0,0.001,0,0.002c0,0.003,0,0.006,0,0.01c0,0,0,0.001,0,0.001
			c0,0.01-0.091,0.02-0.095,0.029c0,0.001,0.049,0.002,0.048,0.003C43.953,45.69,44,45.692,44,45.695c0,0,0,0.001,0,0.001
			c0,0.011,0,0.02,0,0.03c0,0,0,0.001,0,0.002c0,0.014,0,0.026,0,0.041c0,0,0,0.001,0,0.002c0,0.011-0.113,0.113-0.117,0.124l0,0
			C43.882,45.9,43.828,46,43.826,46H43.8c-0.005,0-0.023,0-0.029,0h-0.006c-0.137,0-0.27,0.695-0.392,1.084
			c-0.163,0.525,0.128,1.049,0.654,1.214c0.1,0.031,0.2,0.028,0.299,0.028c0.426,0,0.819-0.283,0.954-0.71
			c0.186-0.591,0.393-1.187,0.617-1.764c0.201-0.515-0.054-1.096-0.569-1.297C45.208,44.509,45.085,44.485,44.965,44.485
			L44.965,44.485z M43.417,50.064c-0.478,0-1.111,0.344-1.194,0.831C42.218,50.92,42,50.945,42,50.971c0,0.001,0,0.001,0,0.002
			c0,0.004,0,0.008,0,0.013c0,0.001,0,0.001,0,0.002c0,0.009,0,0.019,0,0.028c0,0.001,0,0.003,0,0.004c0,0.003,0,0.007,0,0.01
			c0,0.001,0,0.003,0,0.004C42,51.039,42.203,51,42.202,51h-0.1C42.102,51,42,51.058,42,51.062c0,0.001,0,0.004,0,0.005
			c0,0.002,0,0.005,0,0.008c0,0.002,0,0.004,0,0.006c0,0.003,0.2,0.006,0.199,0.008c0,0.004-0.099,0.006-0.1,0.01
			c0,0.002-0.1,0.005-0.1,0.007c0,0.003,0,0.005,0,0.008c0,0.001,0,0.003,0,0.005c0,0.003,0,0.005,0,0.008c0,0.001,0,0.002,0,0.004
			c0,0.006,0,0.013,0,0.018c0,0.001,0,0.001,0,0.002c0,0.003,0,0.006,0,0.009c0,0.001,0,0.002,0,0.003c0,0.004,0,0.006,0,0.01
			c0,0,0,0.001,0,0.001C42,51.188,42.189,51,42.188,51h0.097c-0.001,0,0.046,0.113,0.046,0.117l0,0
			c-0.088,0.548-0.136,1.152-0.193,1.709c-0.056,0.548,0.355,1.064,0.903,1.122c0.035,0.003,0.076,0.019,0.111,0.019
			c0.506,0,0.943-0.376,0.996-0.891c0.064-0.617,0.151-1.236,0.255-1.846c0.093-0.544-0.272-1.06-0.816-1.153
			C43.529,50.067,43.473,50.064,43.417,50.064L43.417,50.064z M43.013,56c-0.01,0-0.02,0-0.029,0c-0.552,0-0.987,0.396-0.971,0.949
			c0.003,0.094-0.005,0.148-0.001,0.243L42,57.154c0,0.01,0,0.021,0,0.03v0.001c0,0.004,0,0.009,0,0.014c0,0.001,0,0.002,0,0.003
			c0,0.004,0,0.008,0,0.012c0,0.001,0,0.003,0,0.004c0,0.005,0,0.01,0,0.014v0.002c0,0.004,0,0.008,0,0.013c0,0.001,0,0.004,0,0.005
			c0,0.003,0,0.006,0,0.009c0,0.002,0,0.004,0,0.006c0,0.003,0,0.006,0,0.009s0,0.006,0,0.009s0,0.006,0,0.01
			c0,0.003,0,0.004,0,0.007c0,0.002,0,0.004,0,0.007c0,0.002,0,0.006,0,0.008s0,0.003,0,0.005c0,0.01,0,0.02,0,0.029
			c0,0.002,0,0.003,0,0.005c0,0.004,0,0.006,0,0.01c0,0,0,0.001,0,0.002c0,0.016,0.017-0.207,0.018-0.189l0,0
			C42.034,57.531,42.014,58,42.043,58H42c0,0,0,0.481,0,0.485c0,0.001,0,0.002,0,0.003c0,0.003,0,0.007,0,0.01
			c0,0.001,0,0.001,0,0.002c0,0.007,0,0.012,0,0.019c0,0.001,0,0.003,0,0.005c0,0.003,0,0.005,0,0.008c0,0.002,0,0.004,0,0.006
			s0,0.005,0,0.007c0,0.003,0,0.006,0,0.009s0,0.004,0,0.007c0,0.004,0,0.008,0,0.012c0,0.001,0,0.004,0,0.005
			c0,0.003,0,0.006,0,0.01c0,0.002,0,0.002,0,0.004c0,0.005,0,0.009,0,0.013c0,0.001,0,0.001,0,0.002C42,58.609,42.057,59,42.057,59
			h-0.029c0,0-0.028-0.371-0.028-0.366v0.002c0,0.077,0.071,0.154,0.078,0.231c0.049,0.518,0.513,0.905,1.022,0.905
			c0.032,0,0.078-0.002,0.11-0.005c0.55-0.052,0.96-0.54,0.908-1.09c-0.059-0.616-0.093-1.164-0.111-1.785
			C43.993,56.35,43.552,56,43.013,56L43.013,56z M43.752,61.586c-0.075,0-0.151,0.008-0.227,0.025
			c-0.538,0.125-0.762,0.662-0.638,1.2C42.888,62.814,43,62.816,43,62.819c0,0.001,0,0.001,0,0.002c0,0.004-0.109,0.08-0.108,0.084
			l0,0C42.894,62.913,42.84,63,42.842,63h0.078c0,0,0.08-0.14,0.08-0.137c0,0.002,0,0.003,0,0.004C43,62.87,42.896,63,42.897,63
			h0.049C42.948,63,43,62.891,43,62.897c0,0.001,0,0.002,0,0.003c0,0.003-0.1,0.006-0.1,0.008c0.001,0.002,0.049,0.004,0.05,0.006
			c0,0.003,0.05,0.005,0.05,0.008c0,0.001,0,0.003,0,0.004c0,0.005,0,0.01,0,0.015c0,0.002,0,0.004,0,0.006
			s-0.095,0.005-0.094,0.007c0,0.003-0.047,0.005-0.047,0.008c0,0.002-0.023,0.004-0.022,0.006c0.001,0.004,0.079,0.008,0.08,0.012
			c0,0.002,0.083,0.004,0.083,0.006c0,0.003,0,0.005,0,0.008c0,0.002,0,0.004,0,0.006c0,0.003,0,0.006,0,0.009
			c0,0.002,0,0.003,0,0.005c0,0.005,0,0.009,0,0.013c0,0.002,0,0.003,0,0.005c0,0.003-0.084,0.006-0.084,0.009
			c0,0.002,0.041,0.004,0.042,0.006c0,0.003,0.042,0.006,0.042,0.009c0,0.002,0,0.003,0,0.005c0,0.004,0,0.009,0,0.013
			c0,0.002,0,0.002,0,0.004c0,0.003,0,0.007,0,0.01c0,0.002,0,0.003,0,0.005c0,0.004,0,0.008,0,0.012c0,0.001,0,0.001,0,0.002
			c0,0.005,0,0.009,0,0.014c0,0.001,0,0.002,0,0.003c0,0.004,0,0.008,0,0.012c0,0.001,0,0.001,0,0.002c0,0.01,0,0.02,0,0.029
			c0,0.001,0,0.001,0,0.002c0,0.004,0,0.009,0,0.013c0,0.001,0,0.001,0,0.002C43,63.188,42.937,63,42.939,63h-0.034
			c0.128,1,0.252,1.133,0.406,1.639c0.131,0.432,0.519,0.762,0.948,0.762c0.096,0,0.19,0.012,0.288-0.018
			c0.528-0.161,0.824-0.706,0.663-1.234c-0.18-0.592-0.343-1.192-0.483-1.796C44.619,61.891,44.207,61.586,43.752,61.586
			L43.752,61.586z M45.62,67.064c-0.14,0-0.137,0.029-0.271,0.091C44.847,67.385,44,67.979,45,68.48c0,0.001,0,0.002,0,0.003
			c0,0.003-0.141,0.007-0.139,0.01c0,0.002-0.071,0.003-0.07,0.005c0.001,0.003-0.033,0.006-0.032,0.009
			c0,0.001,0.118,0.003,0.118,0.004C44.879,68.515,45,68.519,45,68.522c0,0.001,0,0.003,0,0.003c0,0.004-0.131,0.007-0.129,0.01
			c0,0.002-0.066,0.003-0.065,0.005c0.001,0.003-0.03,0.007-0.029,0.01c0,0.001-0.016,0.002-0.016,0.003
			c0.002,0.004-0.005,0.008-0.003,0.012c0.001,0.002-0.002,0.003-0.002,0.005c0.001,0.003,0,0.006,0.001,0.009
			c0.001,0.001,0,0.003,0.001,0.004c0.001,0.004,0.002,0.007,0.004,0.011c0.001,0.001,0.001,0.003,0.002,0.005
			c0.001,0.003,0.002,0.006,0.004,0.009c0.001,0.002,0.001,0.004,0.002,0.006s0.002,0.005,0.003,0.007s0.001,0.004,0.002,0.006
			c0.002,0.004,0.003,0.008,0.005,0.012c0.001,0.001,0.001,0.002,0.002,0.004c0.001,0.003,0.002,0.005,0.004,0.008
			c0,0.002,0.002,0.004,0.002,0.006c0.001,0.003,0.002,0.005,0.003,0.008c0.001,0.001,0.002,0.003,0.002,0.005
			c0.002,0.004,0.003,0.007,0.005,0.011c0.001,0.003,0.001,0.004,0.002,0.006c0.001,0.002,0.002,0.005,0.003,0.007
			c0,0.002,0.002,0.004,0.002,0.006c0.001,0.002,0.002,0.005,0.003,0.007c0.001,0.004,0.003,0.007,0.005,0.011
			c0.001,0.002,0.002,0.004,0.003,0.006c0.001,0.003,0.002,0.004,0.003,0.007c0.001,0.002,0.002,0.004,0.003,0.006
			s0.002,0.004,0.003,0.006c0.001,0.003,0.002,0.005,0.003,0.008c0.001,0.002,0.003,0.007,0.004,0.01
			c0.001,0.002,0.002,0.004,0.003,0.006c0.001,0.001,0.002,0.005,0.003,0.007c0,0.002,0.074,0.003,0.075,0.005
			c0.002,0.005,0.08,0.01,0.08,0.015c0,0.001,0,0.002,0,0.003c0,0.002-0.07,0.005-0.068,0.008c0,0.001-0.035,0.003-0.034,0.004
			c0.001,0.003-0.016,0.005-0.015,0.008c0,0.001,0.055,0.002,0.056,0.003C44.94,68.818,45,68.824,45,68.83c0,0,0,0.001,0,0.002
			c0,0.003-0.06,0.006-0.059,0.008c0,0.002-0.03,0.003-0.029,0.004c0.004,0.009-0.007,0.019-0.003,0.027
			c0,0.001,0.044,0.002,0.044,0.002C44.955,68.877,45,68.879,45,68.883c0,0,0,0.001,0,0.002C45,68.895,44.959,69,44.964,69
			c0,0-0.025,0-0.024,0c0.006,0,0,0,0.007,0c0,0-0.006,0-0.006,0c0.149,0,0.3,1,0.459,1h-0.202C45.199,70,45,69.886,45,69.889
			c0,0.001,0,0.001,0,0.002c0,0.009,0.211,0.018,0.216,0.026c0,0.002,0.102,0.003,0.103,0.004c0.001,0.003,0.053,0.006,0.054,0.008
			c0,0.002,0.026,0.003,0.027,0.004c0.002,0.004,0.017,0.009,0.019,0.013c0.001,0.002,0.009,0.004,0.01,0.006
			c0,0.001,0.005,0.004,0.006,0.006s0.004,0.005,0.005,0.007c0,0.002,0.002,0.003,0.003,0.005c0.002,0.004,0.004,0.008,0.006,0.012
			c0,0.001,0.002,0.002,0.002,0.003c0.001,0.003,0.003,0.006,0.005,0.01c0.001,0.001,0.001-0.002,0.002,0
			C45.46,69.996,45.462,70,45.464,70c0,0-0.236,0-0.235,0C45.231,70,45,70.018,45,70.021c0,0.001,0,0.001,0,0.002
			c0,0.004,0,0.008,0,0.012c0,0.001,0,0.001,0,0.002c1,0.077,0.322,0.155,0.364,0.232c0.182,0.335,0.646,0.524,1,0.524
			c0.161,0,0.384-0.039,0.536-0.121c0.485-0.263,0.696-0.87,0.433-1.355c-0.295-0.545-0.561-1.106-0.819-1.67
			C46.347,67.28,45.999,67.064,45.62,67.064L45.62,67.064z M48.546,72.061c-0.204,0-0.41,0.063-0.588,0.192
			c-0.446,0.325-0.544,0.95-0.219,1.396c0.138,0.189,0.278,0.378,0.421,0.563c0,0.001,0,0,0,0.001
			c0.009,0.012,0.019,0.023,0.027,0.035c0,0.001-0.097,0.002-0.096,0.003C48.094,74.255,48,74.259,48,74.262
			c0,0.001,0,0.001,0,0.002c0,0.003,0.104,0.007,0.107,0.011c0.001,0.001,0.051,0.002,0.052,0.003
			c0.002,0.003,0.029,0.006,0.031,0.008c0.001,0.001,0.015,0.003,0.016,0.004c0.002,0.003,0.011,0.007,0.013,0.01
			c0.001,0.001,0.006,0.003,0.007,0.005c0.002,0.002,0.005,0.004,0.007,0.007c0.001,0.001,0.003,0.003,0.005,0.005
			c0.001,0.002,0.003-0.164,0.004-0.162C48.245,74.158,48.249,74,48.252,74c0,0,0.001,0,0.001,0c0.001,0,0.003,0.172,0.005,0.174
			c0.001,0.002-0.131,0.086-0.13,0.088C48.13,74.264,48,74.309,48,74.311v0.022c0,0.006,0.142,0.02,0.146,0.025
			c0,0.001,0.068,0.007,0.068,0.008c0.002,0.003,0.037,0.007,0.04,0.01c0,0,0.085,0.003,0.086,0.004
			c0.188,0.242,0.66,0.482,0.66,0.719v0.002c0,0.009-0.054,0.017-0.046,0.025c0,0-0.034,0-0.033,0
			c0.002,0.003-0.013,0.005-0.01,0.008c0,0.001-0.008,0.002-0.007,0.002c0.006,0.008,0.009,0.016,0.015,0.022
			c0.001,0.002,0,0.003,0.001,0.004c0.002,0.002,0.002,0.004,0.004,0.006s0.002,0.003,0.003,0.005
			c0.003,0.003,0.005,0.006,0.008,0.01c0.001,0.002,0.002,0.003,0.004,0.005s0.003,0.004,0.004,0.005
			c0.001,0.002,0.003,0.004,0.005,0.006c0.001,0.002,0.002,0.004,0.004,0.005c0.002,0.003,0.005,0.007,0.008,0.01
			c0.001,0.002,0.002,0.002,0.003,0.003c0.002,0.003,0.004,0.006,0.006,0.008c0,0.001,0.001,0.002,0.002,0.002
			c0.198,0.237,0.481,0.359,0.768,0.359c0.226,0,0.454-0.077,0.641-0.233c0.424-0.354,0.48-0.984,0.126-1.408
			c-0.397-0.476-0.784-0.971-1.149-1.472C49.159,72.203,48.855,72.061,48.546,72.061L48.546,72.061z M52.406,76.379
			c-0.271,0-0.54,0.109-0.737,0.324c-0.373,0.407-0.346,1.039,0.06,1.412c0.025,0.023,0.05,0.046,0.075,0.068c0,0,0,0,0,0.001
			c0.008,0.007,0.015,0.013,0.022,0.02c0.001,0.002,0.002,0.003,0.004,0.004c0.002,0.002,0.003,0.003,0.005,0.005
			s0.004,0.004,0.006,0.006s0.004,0.004,0.007,0.006c0.002,0.002,0.004,0.004,0.007,0.006c0.001,0.001,0.002,0.002,0.004,0.004
			c0.002,0.002,0.005,0.004,0.007,0.006c0.001,0.002,0.062,0.002,0.063,0.003c0.003,0.003,0.07,0.007,0.07,0.01v-0.13
			C52,78.125,51.888,78,51.891,78c0,0,0,0,0.001,0C51.9,78,52,78.146,52,78.152c0,0.001,0,0.066,0,0.066
			c0,0.359,0.688,0.74,1.105,1.078l0,0C53.109,79.3,53,79.319,53,79.323v0.009c0,0.007,0.091,0.017,0.099,0.022l0.04,0.004
			c0.003,0.003,0.026-0.183,0.03-0.18l0,0C53.172,79.182,53.195,79,53.199,79c0,0,0.001,0,0.001,0c0.003,0,0.007,0.195,0.01,0.197
			c0.001,0.002,0.001-0.103,0.002-0.102C53.216,79.099,53.219,79,53.223,79c0.001,0,0,0,0.001,0c0.003,0,0.006,0.205,0.01,0.207
			c0.001,0.002,0.001-0.107,0.003-0.105C53.24,79.104,53.243,79,53.246,79c0.001,0,0.001,0,0.002,0c0.185,1,0.405,0.429,0.625,0.429
			c0.293,0,0.583-0.023,0.781-0.27c0.345-0.431,0.276-1.009-0.155-1.353c-0.483-0.389-0.96-0.771-1.417-1.19
			C52.89,76.439,52.647,76.379,52.406,76.379L52.406,76.379z M57.043,79.85c-0.339,0-0.669,0.173-0.857,0.483
			c-0.285,0.473-0.133,1.087,0.339,1.372c0.167,0.101,0.334,0.2,0.503,0.298c0,0,0,0,0,0c0.023,0.013,0.045,0.026,0.068,0.039
			c0,0,0,0,0,0c0.01,0.006,0.019,0.012,0.029,0.017l0,0.001c0.003,0.001-0.076,0.003-0.073,0.005l0,0
			C57.064,82.07,57,82.076,57,82.081V82.03c0,0.007,0.191-0.03,0.204-0.03c0,0,0.001,0,0.002,0c0.009,0,0.018,0,0.027,0
			c0.001,0,0.001,0,0.002,0c0.003,0,0.005,0,0.008,0c0.001,0,0.001,0,0.002,0c0.009,0,0.018,0,0.027,0c0,0,0.001,0,0.002,0
			C57.278,82,57,82.074,57,82.076v0.036c0,0.004,0.154,0.025,0.16,0.028c0,0.001,0.073,0.01,0.074,0.011
			c0.002,0.001,0.041,0.007,0.043,0.008c0.001,0.001,0.021,0.005,0.021,0.005c0.008,0.005,0.025,0.011,0.034,0.016
			c0.001,0.001,0.007,0.001,0.009,0.002c0.002,0.001,0.007,0.004,0.009,0.005c0.002,0.001,0.005,0.002,0.007,0.003
			c0.003,0.002,0.007,0.004,0.011,0.006c0.002,0.001,0.004,0.002,0.006,0.004c0.002,0.001,0.004,0.002,0.006,0.003
			c0.002,0.001,0.004,0.002,0.006,0.004c0.002,0.001,0.003,0.002,0.006,0.003c0.002,0.002,0.005,0.003,0.007,0.004
			c0.002,0.002,0.006,0.004,0.008,0.005s0.004,0.003,0.007,0.004c0.001,0.001,0.004,0.002,0.005,0.003
			c0.002,0.001,0.005,0.003,0.008,0.004c0.001,0.001,0.002,0.002,0.004,0.003c0.003,0.002,0.007,0.004,0.011,0.006
			c0.001,0.001,0.002,0.002,0.004,0.003c0.002,0.001,0.005,0.003,0.008,0.004c0.002,0.001,0.002,0.002,0.004,0.003
			c0.003,0.002,0.007,0.004,0.01,0.005c0.001,0.001,0.001,0.001,0.002,0.002c0.004,0.002,0.008,0.004,0.012,0.006
			c0.001,0.001,0.003,0.002,0.004,0.003c0.003,0.001,0.006,0.003,0.009,0.005c0,0,0.247,0.001,0.247,0.002
			C57.748,82.271,58,82.273,58,82.276v-0.142C58,82.137,57.521,82,57.525,82c0.001,0,0.001,0,0.002,0C57.536,82,58,82.152,58,82.156
			v0.071c0,0.003,0,0.041,0,0.043c0,0.001,0,0.019,0,0.019c0,0.005,0,0.019,0,0.023v0.004c0,0.003-0.194,0.008-0.189,0.011
			l-0.101,0.001c0.219,0.12,0.39,0.237,0.612,0.353c0.147,0.075,0.278,0.112,0.432,0.112c0.362,0,0.7-0.198,0.877-0.542
			c0.253-0.491,0.054-1.094-0.437-1.348c-0.55-0.283-1.102-0.59-1.632-0.91C57.4,79.896,57.219,79.85,57.043,79.85L57.043,79.85z
			 M62.274,82.329c-0.411,0-0.796,0.255-0.942,0.665c-0.186,0.52,0.086,1.092,0.606,1.277c0.191,0.067,0.618,0.134,0.811,0.197l0,0
			C62.754,84.471,63,84.473,63,84.474v-0.241C63,84.236,62.547,84,62.557,84h0.002c0.004,0,0.008,0,0.013,0h0.001
			c0.005,0,0.009,0,0.014,0c0.001,0,0.002,0,0.003,0c0.003,0,0.007,0,0.011,0c0.001,0,0.002,1,0.004,1
			c0.003,0,0.007-0.248,0.01-0.248c0.001,0.002,0.001-0.124,0.003-0.123c0.004,0.001,0.008-0.06,0.013-0.059
			c0.001,0.001,0.003-0.03,0.005-0.029c0.003,0.001,0.005,0.225,0.008,0.226C62.645,84.768,62.647,85,62.649,85
			c0.002,0,0.005,0,0.007,0c0.003,0,0.006,0,0.01,0c0.002,0,0.005-0.001,0.007,0c0.002,0,0.004,0,0.007,0c0.002,0,0.004,0,0.006,0
			c0.003,0,0.005-0.236,0.007-0.234c0.001,0,0.003,0.114,0.004,0.115C62.704,84.883,62.708,85,62.714,85c0.001,0,0.002,0,0.003,0
			c0.003,0,0.006,0,0.008,0c0.001,0,0.003,0,0.004,0c0.014,0,0.028-0.221,0.042-0.217l0,0c0.355,0.115,0.714,0.109,1.075,0.211
			c0.09,0.024,0.181-0.021,0.27-0.021c0.437,0,0.837-0.317,0.962-0.759c0.15-0.531-0.16-1.098-0.691-1.247
			c-0.596-0.168-1.194-0.366-1.777-0.574C62.499,82.354,62.385,82.329,62.274,82.329L62.274,82.329z M67.894,83.712
			c-0.49,0-0.918,0.36-0.989,0.859c-0.078,0.547,0.303,1.054,0.85,1.131c0.354,0.05,0.709,0.094,1.067,0.132c0.001,0,0,0,0,0
			c0.01,0.001,0.021,0.082,0.031,0.084l0,0c0.005,0,0.01,0.082,0.014,0.082c0.001,0,0.001,0,0.002,0c0.01,0,0.02,0,0.029,0h0.002
			c0.004,0,0.008,0,0.012,0c0.001,0,0.002,0,0.003,0c0.004,0,0.008,0,0.012,0c0.001,0,0.001,0,0.002,0c0.004,0,0.009,0,0.014,0
			c0.002,0,0.001,0,0.003,0c0.003,0,0.007,0,0.01,0c0.002,0,0.003,0,0.005,0c0.003,0,0.006,0,0.009,0c0.002,0,0.003,0,0.005,0
			c0.004,0,0.008,0,0.012,0c0.002,0,0.005,0,0.007,0c0.002,0,0.005,0,0.007,0c0.002,0,0.005,0,0.007,0s0.004,0,0.007,0
			c0.003,0,0.004,0,0.007,0c0.002,0,0.004,0,0.007,0c0.005,0,0.009,0,0.014,0c0.002,0,0.003,0,0.005,0c0.003,0,0.005,0,0.008,0
			c0.001,0,0.003,0,0.005,0c0.003,0,0.006,0,0.009,0c0.001,0,0.001,0,0.002,0c0.007,0,0.014,0,0.021,0c0,0,0.001,0,0.001,0
			c0.004,0,0.006,0,0.01,0c0,0,0.001,0,0.002,0c0.004,0,0.007,0,0.011,0h-0.079C69.056,86,69,85.935,69,85.936v-0.034
			c0,0.019,0.47,0.019,0.666,0.032c0.024,0.002,0.088-0.006,0.113-0.006c0.519,0,0.978-0.405,1.017-0.931
			c0.041-0.551-0.363-1.032-0.914-1.073c-0.619-0.046-1.239-0.114-1.851-0.201C67.983,83.716,67.94,83.712,67.894,83.712
			L67.894,83.712z M75.61,83.777c-0.041,0-0.083,0.003-0.125,0.008c-0.613,0.076-1.239,0.133-1.858,0.168
			c-0.552,0.032-0.973,0.505-0.941,1.056c0.03,0.532,0.471,0.943,0.997,0.943c0.02,0,0.039-0.001,0.059-0.002
			c0.151-0.009,0.303,0.022,0.454,0.012l0,0C74.211,85.961,74.226,86,74.24,86c0.001,0,0.003,0,0.004,0c0.004,0,0.008,0,0.012,0
			c0.001,0,0.002,0,0.003,0c0.005,0,0.01,0,0.015,0c0.001,0,0.001,0,0.002,0c0.004,0,0.008,0,0.012,0c0.002,0,0.003,0,0.005,0
			c0.003,0,0.006,0,0.01,0c0.001,0,0.004,0,0.005,0c0.004,0,0.008,0,0.012,0c0.002,0,0.003,0,0.005,0c0.004,0,0.007,0,0.01,0
			s0.005,0,0.008,0c0.002,0,0.004,0,0.006,0c0.003,0,0.005,0,0.008,0c0.002,0,0.004,0,0.006,0c0.007,0,0.012,0,0.019,0
			c0,0,0,0,0.001,0c0.003,0,0.007,0,0.01,0c0.001,0,0.002,0,0.003,0c0.004,0,0.006,0,0.01,0c0.001,0,0.002,0,0.003,0
			C74.416,86,74,85.951,74,85.949v-0.023c1-0.035,1.086-0.091,1.516-0.145c0.546-0.069,1.043-0.574,0.977-1.121
			C76.428,84.154,76.107,83.777,75.61,83.777L75.61,83.777z M81.254,82.492c-0.105,0-0.213,0.017-0.319,0.053
			c-0.586,0.197-1.188,0.377-1.786,0.535c-0.534,0.141-0.854,0.688-0.713,1.222c0.118,0.448,0.523,0.745,0.967,0.745
			c0.084,0,0.17-0.011,0.255-0.033c0.647-0.17,1.286-0.361,1.916-0.573c0.523-0.177,0.805-0.743,0.628-1.267
			C82.062,82.756,81.672,82.492,81.254,82.492L81.254,82.492z M86.526,80.104c-0.17,0-0.343,0.043-0.5,0.135
			c-0.536,0.312-1.09,0.607-1.646,0.882c-0.495,0.245-0.698,0.845-0.453,1.34c0.174,0.353,0.528,0.557,0.897,0.557
			c0.147,0,0.389-0.032,0.531-0.103C85.542,82.823,86,82.73,86,82.635v0.193C86,82.82,85.845,83,85.858,83c0.001,0,0.001,0,0.002,0
			c0.009,0,0.019,0,0.027,0c0.001,0,0.002,0,0.002,0c0.004,0,0.006,0,0.009,0c0.001,0,0.002,0,0.003,0
			c0.009,0,0.019-0.214,0.026-0.218c0.001-0.001,0.002-0.103,0.003-0.104c0.003,0,0.006-0.054,0.009-0.055
			c0.001-0.001,0.001-0.026,0.002-0.027c0.006-0.003,0.01-0.018,0.015-0.021c0.002,0,0.003-0.007,0.005-0.008
			s0.004-0.006,0.007-0.008c0.002-0.001,0.004-0.003,0.006-0.004s0.003-0.003,0.006-0.004c0.003-0.002,0.007-0.005,0.011-0.007
			c0.001-0.001,0.004-0.002,0.005-0.003c0.003-0.001,0.005-0.002,0.007-0.004c0.002,0,0.004-0.002,0.006-0.002
			c0.003-0.002,0.006-0.003,0.008-0.005c0.002-0.001,0.002-0.001,0.004-0.002c0.004-0.002,0.008-0.004,0.012-0.006
			c0.001-0.001,0.004-0.002,0.005-0.003c0.002-0.001,0.005-0.003,0.008-0.004c0.001,0,0.004-0.002,0.005-0.003
			c0.004-0.002,0.008-0.004,0.012-0.006h0.001c0.004-0.003,0.008-0.005,0.012-0.007c0,0,0.002-0.248,0.003-0.249
			C86.079,82.251,86.083,82,86.087,82h0.002c0.004,0,0.008,0,0.013,0h0.002c0.003,0,0.007,0,0.011,0c0.001,0,0.001,0,0.002,0
			C86.125,82,86,82.23,86,82.225v0.119c0-0.002,0,0.056,0,0.054c0-0.001,0,0.028,0,0.028c0-0.005,0.098,0.006,0.105,0.001l0,0
			c0.285-0.153,0.606-0.304,0.885-0.465c0.478-0.277,0.66-0.886,0.383-1.363C87.188,80.279,86.872,80.104,86.526,80.104
			L86.526,80.104z M91.223,76.714c-0.236,0-0.473,0.083-0.663,0.252c-0.464,0.411-0.948,0.812-1.438,1.191
			c-0.438,0.338-0.518,0.966-0.179,1.402c0.196,0.255,0.492,0.388,0.791,0.388c0.214,0,0.43-0.068,0.611-0.209
			c0.087-0.066,0.173-0.134,0.259-0.202c0-0.001-0.001,0,0,0c0.004-0.003,0.008-0.007,0.012-0.01h0.001
			c0.007-0.006,0.015-0.013,0.022-0.019c0.001,0,0.002-0.001,0.003-0.002c0.007-0.006,0.015-0.012,0.022-0.018
			c0.001-0.001,0.001-0.001,0.002-0.002c0.003-0.002,0.006-0.005,0.009-0.008c0.001,0,0.002-0.001,0.003-0.002
			c0.004-0.003,0.007-0.005,0.011-0.008c0.001-0.001,0.002-0.002,0.003-0.002c0.002-0.003,0.005-0.005,0.008-0.007
			c0.002-0.002,0.003-0.002,0.004-0.003c0.003-0.003,0.005-0.005,0.008-0.007c0.002-0.001,0.002-0.001,0.003-0.002
			c0.004-0.003,0.007-0.006,0.011-0.009c0.001-0.001,0.002-0.002,0.004-0.003c0.002-0.002,0.004-0.004,0.007-0.006
			c0.001-0.001,0.003-0.002,0.005-0.003c0.002-0.002,0.005-0.004,0.007-0.006s0.004-0.004,0.007-0.006
			c0.002-0.001,0.004-0.003,0.006-0.005c0.002-0.001,0.004-0.003,0.005-0.004c0.002-0.002,0.004-0.003,0.007-0.005
			c0.001-0.001,0.003-0.003,0.005-0.004c0.003-0.003,0.006-0.005,0.009-0.008c0.002-0.001,0.004-0.003,0.005-0.004
			c0.002-0.001,0.004-0.003,0.006-0.005c0.002-0.001,0.004-0.002,0.005-0.004c0.002-0.001,0.004-0.003,0.006-0.004
			c0.003-0.003,0.007-0.006,0.009-0.008c0.002-0.001,0.004-0.003,0.006-0.004c0.002-0.002,0.003-0.003,0.006-0.005
			c0.001-0.001,0.003-0.002,0.004-0.004c0.002-0.001,0.004-0.003,0.006-0.005c0.002-0.001,0.003-0.002,0.005-0.003
			c0.003-0.003,0.007-0.006,0.011-0.009c0.001-0.001,0.003-0.002,0.004-0.004c0.002-0.001,0.005-0.003,0.006-0.005
			c0.002-0.001,0.003-0.002,0.005-0.003c0.004-0.004,0.008-0.007,0.012-0.01c0.001-0.001,0.002-0.002,0.003-0.002
			c0.002-0.002,0.004-0.004,0.007-0.006c0.001-0.001,0.002-0.002,0.003-0.003c0.002-0.002,0.005-0.004,0.007-0.005
			c0.001-0.001,0.001-0.001,0.002-0.002c0.004-0.004,0.01-0.008,0.014-0.012c0.001,0,0.002-0.001,0.003-0.002
			c0.003-0.002,0.004-0.003,0.007-0.006c0.001,0,0.002-0.001,0.003-0.002c0.007-0.006,0.016-0.013,0.023-0.019
			c0-0.001,0.001-0.001,0.002-0.002c0.003-0.002,0.005-0.004,0.008-0.007l0,0c0.006-0.005,0.011-0.009,0.017-0.014h0.008
			C90.988,79.232,91,79.23,91,79.229v-0.104C91,79.117,91.004,79,91.012,79c0.001,0,0.002,0,0.002,0c0.003,0,0.005,0.01,0.008,0.007
			l0,0C91.03,79,91.039,79,91.047,79c0.001,0,0.001,0,0.002,0C91.058,79,91,79.075,91,79.068v-0.031C91,79.035,91.079,79,91.082,79
			c0.001,0,0.001,0,0.002,0C91.176,79,91,78.922,91,78.845v0.194C91,78.961,91.541,79,91.632,79c0.001,0,0.001,0,0.002,0
			c0.085,0,0.168-0.305,0.253-0.38c0.412-0.366,0.45-1.077,0.084-1.49C91.773,76.907,91.498,76.714,91.223,76.714L91.223,76.714z
			 M95.156,72.462c-0.303,0-0.603,0.138-0.799,0.397c-0.374,0.494-0.769,0.983-1.175,1.452c-0.361,0.417-0.315,1.049,0.103,1.41
			c0.188,0.164,0.422,0.244,0.653,0.244c0.28,0,0.559-0.117,0.757-0.346c0.025-0.029,0.052-0.06,0.077-0.09l0,0
			c0.01-0.012,0.019-0.021,0.028-0.033c0.001-0.001,0.09-0.001,0.09-0.002C94.898,75.487,95,75.479,95,75.472
			c0-0.001,0-0.001,0-0.002c0-0.003,0-0.004,0-0.007c0-0.001,0-0.002,0-0.002c0-0.005,0-0.011,0-0.015c0-0.001,0-0.001,0-0.002
			c0-0.002-0.073-0.004-0.071-0.007c0.001-0.001-0.036-0.002-0.036-0.003c0.002-0.002-0.015-0.005-0.013-0.007
			c0.001-0.001,0.054-0.002,0.054-0.003C94.938,75.421,95,75.417,95,75.414c0-0.002,0-0.003,0-0.005s-0.059-0.004-0.057-0.006
			s-0.028-0.004-0.026-0.006c0.001-0.001-0.014-0.003-0.012-0.004c0.002-0.003-0.003-0.006,0-0.01c0.001-0.001-0.001-0.003,0-0.004
			c0.002-0.003,0.002-0.005,0.003-0.007c0.001-0.001,0.043-0.003,0.044-0.004C94.955,75.366,95,75.362,95,75.359
			c0-0.001,0-0.001,0-0.002c0-0.003-0.035-0.006-0.032-0.009c0.001-0.002-0.019-0.002-0.017-0.004
			c0.002-0.003-0.007-0.005-0.004-0.008c0.001-0.001,0.021-0.002,0.021-0.003C94.972,75.33,95,75.327,95,75.323c0,0,0-0.001,0-0.002
			c0-0.003,0-0.006,0-0.009c0-0.001,0-0.002,0-0.003c0-0.007-0.008-0.015-0.002-0.021c0.002-0.001-0.009-0.002-0.008-0.002
			c0.003-0.004,0-0.007,0.003-0.011l-0.001-0.001c0.004-0.004,0.005-0.008,0.008-0.012l0,0c0.004-0.004,0.007-0.007,0.01-0.011
			v-0.001c0.268-0.319,0.527-0.644,0.781-0.974c0.001-0.001,0.001-0.001,0.002-0.002c0.002-0.003,0.005-0.007,0.008-0.011
			c0,0,0,0,0.001-0.001c0.003-0.004,0.006-0.007,0.009-0.011c0-0.001,0.002-0.003,0.002-0.003c0.002-0.003,0.004-0.006,0.006-0.008
			c0.001-0.001,0.003-0.004,0.003-0.004c0.003-0.004,0.005-0.007,0.008-0.01c0.001-0.002,0.003-0.004,0.005-0.006
			c0.001-0.002,0.08-0.003,0.082-0.005S96,74.213,96,74.211c0-0.001,0-0.002,0-0.003c0-0.048-0.004-0.097,0.032-0.145
			c0.332-0.441,0.205-1.066-0.235-1.399C95.616,72.528,95.366,72.462,95.156,72.462L95.156,72.462z M98.168,67.517
			c-0.373,0-0.73,0.21-0.902,0.568c-0.268,0.559-0.558,1.115-0.862,1.654c-0.271,0.481-0.102,1.091,0.379,1.362
			c0.155,0.088,0.324,0.13,0.491,0.13c0.349,0,0.688-0.184,0.871-0.509c0.327-0.579,0.636-1.171,0.925-1.773
			c0.238-0.498,0.028-1.096-0.47-1.334C98.46,67.549,98.313,67.517,98.168,67.517L98.168,67.517z M100.131,62.071
			c-0.447,0-0.855,0.303-0.969,0.757c-0.15,0.602-0.323,1.204-0.514,1.794c-0.17,0.525,0.118,1.089,0.644,1.259
			c0.103,0.033,0.206,0.049,0.308,0.049c0.422,0,0.814-0.27,0.951-0.692c0.16-0.494,0.307-0.993,0.441-1.498l0,0
			c0.004-0.015,0.008-0.03,0.012-0.045l0,0c0.004-0.016,0.008-0.03,0.012-0.045l0.001-0.001c0.002-0.01,0.005-0.02,0.008-0.03l0,0
			c0.001-0.005,0.002-0.01,0.004-0.015v0.213c0.002-0.01,0.005,0.184,0.008,0.184h-0.02c0.001,0-0.017-0.437-0.017-0.44
			c0-0.001,0-0.002,0-0.003c0-0.01,0-0.019,0-0.028c0-0.001,0-0.001,0-0.002c0-0.004,0-0.009,0-0.013c0-0.001,0-0.001,0-0.002
			c0-0.01,0-0.02,0-0.028c0-0.001,0-0.002,0-0.003c0-0.004,0-0.008,0-0.012c0-0.001,0-0.002,0-0.003c0-0.005,0-0.01,0-0.014
			c0-0.001,0-0.001,0-0.002c0-0.004,0.035-0.008,0.037-0.012c0-0.002-0.02-0.003-0.019-0.005c0-0.003-0.019-0.006-0.019-0.01
			c0-0.002,0-0.002,0-0.004c0-0.004,0-0.009,0-0.013c0-0.002,0-0.003,0-0.005c0-0.003-0.001-0.006,0-0.009c0-0.002,0-0.004,0-0.006
			c0-0.003,0-0.005,0-0.008c0-0.002,0.045-0.004,0.045-0.006c0-0.004,0.022-0.008,0.023-0.012c0.001-0.003-0.035-0.004-0.034-0.007
			c0-0.002-0.034-0.004-0.034-0.007c0-0.001,0-0.005,0-0.007s0-0.004,0-0.006c0-0.006,0-0.011,0-0.017c0,0,0-0.001,0-0.002
			s0-0.002,0-0.003c0-0.536-0.141-1.079-0.676-1.213C100.242,62.081,100.212,62.071,100.131,62.071L100.131,62.071z M100.969,56.342
			c-0.531,0-0.974,0.419-0.998,0.955c-0.028,0.62-0.078,1.247-0.146,1.861c-0.062,0.549,0.333,1.044,0.882,1.105
			c0.038,0.004,0.076,0.007,0.113,0.007c0.501,0,0.933-0.376,0.992-0.886c0.074-0.661,0.127-1.327,0.157-2
			c0.023-0.551-0.403-1.017-0.954-1.041C100.999,56.343,100.984,56.342,100.969,56.342L100.969,56.342z M100.663,50.557
			c-0.051,0-0.102,0.004-0.153,0.012c-0.546,0.084-0.92,0.594-0.836,1.14c0.094,0.612,0.168,1.235,0.222,1.854
			c0.045,0.521,0.481,0.914,0.995,0.914c0.028,0,0.058-0.001,0.087-0.004c0.551-0.047,0.958-0.704,0.91-1.254
			c-0.001-0.016,0.056-0.219,0.054-0.219H102c0,0,0,0.334,0,0.329c0-0.001,0-0.001,0-0.002c0-0.01,0-0.02,0-0.03
			c0-0.001,0-0.001,0-0.002c0-0.004,0-0.008,0-0.012c0-0.002,0-0.002,0-0.004c0-0.003,0-0.007,0-0.01c0-0.002,0-0.002,0-0.004
			c0-0.004,0-0.009,0-0.013c0-0.002,0-0.004,0-0.006c0-0.003,0-0.005,0-0.008c0-0.002,0-0.005,0-0.007c0-0.002,0-0.005,0-0.007
			c0-0.002,0-0.005,0-0.007c0-0.002,0-0.005,0-0.008c0-0.004,0-0.009,0-0.013c0-0.001,0-0.003,0-0.005c0-0.002,0-0.007,0-0.009
			c0-0.001,0-0.003,0-0.004c0-0.011,0-0.021,0-0.031c0,0,0-0.001,0-0.002c0-0.004,0-0.006,0-0.01c0-0.001,0-0.001,0-0.002
			c0-0.012,0-0.132-0.002-0.132H102l0,0h-0.07c-0.002,0-0.037,0-0.039,0h-0.018c-0.01,0-0.028,0-0.039,0h0.085
			c-0.002,0,0.081-0.287,0.081-0.303c0,0,0-0.001,0-0.001c0-0.016,0-0.029,0-0.045c0,0,0-0.001,0-0.002c0-0.012,0-0.021,0-0.033
			c0,0,0-0.001,0-0.001c0-0.003,0-0.006,0-0.009c0-0.001,0-0.003,0-0.004c0-0.003,0-0.006,0-0.009c0-0.001,0-0.002,0-0.004
			c0-0.006,0-0.01,0-0.016c0-0.002,0-0.003,0-0.005c0-0.003,0-0.005,0-0.008c0-0.002,0-0.004,0-0.006c0-0.003,0-0.005,0-0.008
			c0-0.002,0-0.004,0-0.006c0-0.004,0-0.01,0-0.014c0-0.002,0-0.004,0-0.006c0-0.003,0-0.004,0-0.007c0-0.002,0-0.005,0-0.007
			s0-0.005,0-0.007c0-0.002,0-0.005,0-0.007c0-0.002,0-0.004,0-0.006c0-0.004,0-0.009,0-0.013c0-0.002,0-0.003,0-0.005
			c0-0.003,0-0.006,0-0.009c0-0.002,0-0.004,0-0.006c0-0.003,0-0.006,0-0.009c0-0.002,0-0.002,0-0.004c0-0.004,0-0.009,0-0.014
			c0-0.001,0-0.002,0-0.003c0-0.003,0-0.007,0-0.011c0-0.002,0-0.002,0-0.004c0-0.004,0-0.007,0-0.011c0-0.001,0-0.002,0-0.003
			c0-0.005,0-0.01-0.001-0.014c0-0.001,0.001,0,0.001-0.001c0-0.005,0-0.009,0-0.014c0-0.001,0-0.001,0-0.002
			c0-0.005,0-0.361,0-0.361h-0.111c0,0-0.057,0-0.058,0h-0.027c-0.038,0-0.094-0.45-0.14-0.752
			C101.588,50.753,101.148,50.557,100.663,50.557L100.663,50.557z M99.212,44.952c-0.114,0-0.231,0.02-0.346,0.063
			c-0.519,0.191-0.783,0.767-0.592,1.285c0.215,0.581,0.412,1.176,0.587,1.771c0.129,0.435,0.527,0.717,0.959,0.717
			c0.094,0,0.188-0.013,0.283-0.041c0.529-0.156,0.832-0.71,0.678-1.239c-0.112-0.379-0.231-0.755-0.357-1.128v-0.173
			C100.42,46.194,100.416,46,100.413,46h-0.204c-0.002,0-0.209,0.339-0.209,0.335c0,0,0-0.001,0-0.002c0-0.01,0-0.02,0-0.029
			c0-0.001,0-0.002,0-0.003c0-0.002,0.197-0.005,0.195-0.008c0-0.001-0.095-0.003-0.096-0.004c-0.001-0.005-0.1-0.009-0.1-0.015
			c0-0.001,0-0.002,0-0.004c0-0.002,0.191-0.004,0.19-0.007c0-0.002,0.096-0.004,0.095-0.006c0-0.002,0.047-0.004,0.047-0.006
			c-0.002-0.003,0.021-0.006,0.021-0.009c0-0.001,0.012-0.003,0.011-0.004c-0.001-0.004,0.004-0.008,0.002-0.012
			c0-0.001-0.182-0.004-0.183-0.005C100.182,46.216,100,46.213,100,46.21c0-0.001,0-0.003,0-0.004c0-0.004,0.18-0.207,0.178-0.207
			h-0.086C100.09,46,100,46.184,100,46.18c0-0.001,0-0.002,0-0.003c0-0.004,0-0.008,0-0.012c0-0.001,0-0.001,0-0.002
			c0-0.009,0-0.019,0-0.028c0-0.001,0-0.001,0-0.002c0-0.176,0.045-0.352-0.02-0.527C99.831,45.202,99.619,44.952,99.212,44.952
			L99.212,44.952z M96.671,39.75c-0.18,0-0.362,0.048-0.525,0.15c-0.47,0.291-0.615,0.907-0.324,1.377
			c0.327,0.527,0.64,1.071,0.93,1.618c0.18,0.338,0.525,0.531,0.884,0.531c0.158,0,0.318-0.038,0.468-0.117
			c0.488-0.259,0.674-0.784,0.415-1.271C98.497,41.999,98.476,42,98.455,42c-0.001,0-0.218,0-0.218,0C98.23,42,98,41.814,98,41.801
			c0,0,0-0.001,0-0.001c0-0.01,0-0.018,0-0.028c0,0,0-0.001,0-0.001c0-0.003,0.205,0.23,0.203,0.23h-0.094
			C98.104,42,98,41.741,98,41.731c0,0,0-0.001,0-0.001c0-0.009,0-0.018,0-0.027c0-0.001,0-0.001,0-0.002c0-0.003,0-0.005,0-0.008
			c0-0.001,0-0.002,0-0.002c0-0.008,0-0.019,0-0.027c0,0,0-0.001,0-0.002c0-0.003,0.175,0.34,0.174,0.34s-0.08,0-0.08,0
			C98.09,42,98,41.632,98,41.622c0,0,0-0.001,0-0.002c0-0.01,0-0.018,0-0.028c0,0,0-0.001,0-0.001c0-0.003,0-0.005,0-0.009
			c0,0,0-0.001,0-0.002c0-0.009,0-0.019,0-0.027c0,0,0-0.001,0-0.002c0-0.003,0.146,0.45,0.144,0.45h0.074c-0.006,0,0.026,0,0.021,0
			h0.019c-0.006,0-0.001-1-0.007-1h0.004c-0.002,0,0,0.234-0.002,0.231l0,0c-0.006-0.01-0.01,0.101-0.016,0.091c0,0,0,0.06,0,0.059
			c-0.014-0.023-0.024-0.016-0.038-0.039v0.015c-0.218-0.389-0.443-0.765-0.678-1.143C97.331,39.91,97.005,39.75,96.671,39.75
			L96.671,39.75z M93.146,35.155c-0.245,0-0.491,0.09-0.684,0.271c-0.403,0.378-0.423,1.011-0.045,1.414
			c0.424,0.452,0.839,0.924,1.232,1.403c0.197,0.241,0.484,0.365,0.773,0.365c0.223,0,0.447-0.074,0.634-0.227
			c0.426-0.35,0.488-0.979,0.14-1.406c-0.313-0.382-0.748-0.755-1.078-1.122l0,0C94.115,35.851,94,35.849,94,35.846
			c0,0,0-0.001,0-0.001c0-0.005,0.103-0.008,0.099-0.013c-0.001-0.001,0.054-0.002,0.052-0.002
			c-0.002-0.002,0.025-0.003,0.023-0.006c-0.001-0.001,0.011-0.003,0.01-0.004c-0.002-0.001,0.003-0.004,0.002-0.005
			c-0.002-0.002-0.001-0.004-0.003-0.007c-0.002-0.001-0.002-0.004-0.004-0.005c-0.002-0.002-0.003-0.005-0.005-0.007
			c-0.002-0.001-0.002-0.003-0.003-0.004c-0.002-0.003-0.005-0.005-0.007-0.008c-0.001-0.001-0.077-0.001-0.078-0.002
			C94.083,35.776,94,35.773,94,35.77v-0.001c0-0.003,0-0.007,0-0.01c0-0.001,0-0.001,0-0.001c0-0.096-0.105-0.191-0.194-0.286
			C93.608,35.261,93.413,35.155,93.146,35.155L93.146,35.155z M88.784,31.347c-0.313,0-0.621,0.146-0.815,0.421
			c-0.32,0.45-0.215,1.074,0.235,1.394c0.505,0.359,1.004,0.74,1.484,1.132c0.186,0.151,0.409,0.225,0.632,0.225
			c0.29,0,0.578-0.125,0.775-0.368c0.35-0.428,0.407-1.058-0.021-1.407C90.685,32.425,90,32.116,90,31.816v0.105
			C90,31.913,89.73,32,89.719,32c-0.001,0-0.001,0-0.002,0c-0.008,0-0.016-0.118-0.023-0.124c-0.001,0-0.001-0.054-0.002-0.054
			c-0.003-0.003-0.007-0.032-0.01-0.034c-0.001,0-0.002-0.014-0.003-0.015c-0.003-0.003-0.007-0.012-0.011-0.015
			c-0.001,0-0.002-0.004-0.002-0.005c-0.004-0.002-0.007-0.007-0.01-0.009c-0.001-0.001-0.002-0.002-0.003-0.003
			c-0.003-0.002-0.006-0.005-0.009-0.007c-0.001,0-0.002-0.002-0.003-0.002c-0.004-0.003-0.007-0.005-0.011-0.008
			c-0.002-0.001-0.003-0.002-0.004-0.003c-0.003-0.001-0.005-0.003-0.007-0.005c-0.003-0.001-0.003-0.002-0.006-0.003
			c-0.002-0.002-0.004-0.003-0.007-0.005c-0.002-0.002-0.006-0.005-0.008-0.006s-0.004-0.002-0.005-0.003
			c-0.003-0.002-0.005-0.003-0.007-0.005c-0.001-0.001-0.003-0.002-0.004-0.003c-0.008-0.005-0.016-0.011-0.023-0.017
			c-0.001,0,0.223-0.001,0.223-0.002C89.779,31.67,90,31.669,90,31.667c0,0,0-0.001,0-0.001C90,31.659,89.757,32,89.748,32h-0.113
			c-0.053,0-0.163-0.254-0.217-0.292C89.242,31.584,88.984,31.347,88.784,31.347L88.784,31.347z M83.754,28.48
			c-0.384,0-0.749,0.222-0.915,0.595c-0.224,0.504,0.004,1.095,0.509,1.319c0.565,0.251,1.13,0.525,1.679,0.814
			c0.148,0.078,0.308,0.115,0.465,0.115c0.359,0,0.707-0.194,0.886-0.534c0.258-0.489,0.07-1.094-0.419-1.351
			c-0.138-0.072-0.276-0.144-0.415-0.214c-0.001,0,0.235,0,0.234,0C85.773,29.221,86,29.219,86,29.216v-0.101
			C86,29.11,85.511,29,85.502,29H85.5c-0.004,0-0.5,0.097-0.5,0.095c0,0,0,0.05,0,0.05c0-0.002,0.234,0.021,0.23,0.019
			c-0.001,0,0.119,0.012,0.119,0.011c-0.004-0.001,0.054,0.003,0.051,0.002c-0.001,0,0.027-0.086,0.026-0.086
			c-0.004-0.001,0.022-0.09,0.02-0.09h-0.002c-0.004,0-0.008,0.083-0.012,0.081c-0.001,0-0.003,0.042-0.005,0.041
			s-0.005,0.02-0.008,0.019c-0.001-0.001-0.003,0.009-0.005,0.008c-0.003-0.001-0.006,0.002-0.009,0.001
			c-0.002-0.001-0.006,0-0.009-0.001c-0.001-0.001-0.003,0-0.005-0.001s-0.006-0.001-0.007-0.002
			c-0.002-0.001-0.004-0.069-0.005-0.069C85.375,29.072,85.37,29,85.365,29c-0.001,0-0.001,0-0.002,0
			c-0.002,0-0.005,0.064-0.008,0.063c-0.001,0-0.002,0.033-0.004,0.032s-0.006,0.014-0.008,0.013c-0.001,0-0.164,0.007-0.164,0.007
			C85.174,29.111,85,29.112,85,29.109v-0.052C85,29.055,85.317,29,85.313,29c-0.001,0-0.001,0-0.002,0
			c-0.381,0-0.765-0.315-1.154-0.488C84.025,28.454,83.889,28.48,83.754,28.48L83.754,28.48z M78.252,26.675
			c-0.46,0-0.873,0.318-0.976,0.786c-0.119,0.54,0.223,1.073,0.762,1.191c0.604,0.133,1.213,0.288,1.808,0.461
			c0.093,0.027,0.188,0.041,0.28,0.041c0.433,0,0.832-0.284,0.959-0.721c0.154-0.53-0.339-1.084-0.868-1.24
			C80.207,27.191,80,27.188,80,27.186v-0.091C80,27.094,80.373,27,80.37,27c-0.002,0-0.003,0-0.004,0c-0.003,0-0.006,0-0.009,0
			c-0.001,0-0.002,0-0.003,0c-0.004,0-0.01,0.086-0.015,0.085c-0.002,0-0.005,0.044-0.007,0.043s-0.004,0.021-0.006,0.021
			c-0.003-0.001-0.006,0.01-0.008,0.009c-0.002,0-0.004-0.077-0.006-0.077C80.31,27.079,80.306,27,80.301,27
			c-0.001,0-0.002,0-0.003,0c-0.004,0-0.007,0-0.011,0c-0.002,0-0.002,0-0.004,0c-0.004,0-0.008,0-0.012,0H80.27
			c-0.01,0-0.02,0.195-0.029,0.192l0,0C79.736,27.048,79.228,27,78.714,27c-0.001,0-0.002,0-0.003,0c-0.005,0-0.009,0-0.013,0
			c-0.001,0-0.001,0-0.002,0c-0.005,0-0.009,0-0.014,0c-0.001,0-0.003,0-0.004,0c-0.003,0-0.006-0.128-0.009-0.129
			c-0.002,0-0.005-0.064-0.007-0.065s-0.004,0.098-0.007,0.098C78.651,26.903,78.646,27,78.642,27c-0.001,0-0.002,0-0.003,0
			c-0.003,0-0.007,0-0.01,0c-0.001,0-0.002,0-0.003,0c-0.054,0-0.106-0.157-0.161-0.169C78.394,26.815,78.322,26.675,78.252,26.675
			L78.252,26.675z"/>
	</g>
	<circle fill="none" stroke="#23E8E5" stroke-miterlimit="10" cx="71" cy="28" r="7"/>
	<circle fill="none" stroke="#FFFFFF" stroke-miterlimit="10" cx="84" cy="51" r="7"/>
	<circle fill="none" stroke="#FFFFFF" stroke-miterlimit="10" cx="93" cy="73" r="7"/>
	<circle fill="none" stroke="#FFFFFF" stroke-miterlimit="10" cx="71" cy="83" r="7"/>
	<circle fill="none" stroke="#FFFFFF" stroke-miterlimit="10" cx="49" cy="73" r="7"/>
	<circle fill="none" stroke="#FFFFFF" stroke-miterlimit="10" cx="59" cy="51" r="7"/>
	<polyline fill="none" stroke="#23E8E5" stroke-miterlimit="10" points="59,51.978 71,83.25 82,51 	"/>
	<polyline fill="none" stroke="#F7E967" stroke-miterlimit="10" points="59,51.978 93,73.625 71,26 49,73.625 82.2,50.701 	"/>
</g>
<path opacity="0.8" fill="none" stroke="#FFFFFF" stroke-miterlimit="10" d="M48,8.5h2 M44,11.5h2 M49,18.5h5 M51.5,21v-5 M56,11.5
	h5 M58.5,14V9"/>
<g>
</g>
<g>
</g>
<g>
</g>
<g>
</g>
<g>
</g>
<g>
</g>
</svg>
