<?xml version="1.0" encoding="utf-8"?>
<!-- Generator: Adobe Illustrator 16.0.0, SVG Export Plug-In . SVG Version: 6.00 Build 0)  -->
<!DOCTYPE svg PUBLIC "-//W3C//DTD SVG 1.1//EN" "http://www.w3.org/Graphics/SVG/1.1/DTD/svg11.dtd">
<svg version="1.1" id="Layer_1" xmlns="http://www.w3.org/2000/svg" xmlns:xlink="http://www.w3.org/1999/xlink" x="0px" y="0px"
	 width="144px" height="108px" viewBox="0 0 144 108" enable-background="new 0 0 144 108" xml:space="preserve">
<path opacity="0.8" fill="none" stroke="#FFFFFF" stroke-miterlimit="10" d="M112,13.5h2 M116,16.5h2 M108,23.5h5 M110.5,21v5
	 M101,16.5h5 M103.5,14v5"/>
<path fill="#006CC7" d="M99,31h14.121c1.213,0,2.2,0.787,2.2,2s-0.987,2-2.2,2h-3.143h-0.629c-1.386,0-2.514,1.287-2.514,2.5
	s1.128,2.5,2.514,2.5h0.629h4.4h3.893c1.863,0,3.021,0.643,3.021,2s-1.158,2-3.021,2h-8.293h-4.4h-0.628
	c-1.387,0-2.515,1.287-2.515,2.5s1.128,2.5,2.515,2.5h0.628h2.439c1.255,0,2.275,0.787,2.275,2s-1.021,2-2.275,2H99"/>
<path fill="#006CC7" d="M46,91h-9.508c-1.275,0-2.312-0.768-2.312-2s1.036-2,2.312-2h2.48h0.639c1.409,0,2.555-1.268,2.555-2.5
	S41.021,82,39.611,82h-0.639H34.5h-8.43C24.177,82,23,81.379,23,80s1.177-2,3.07-2h3.958H34.5h0.639c1.409,0,2.556-1.268,2.556-2.5
	c0-1.234-1.146-2.5-2.556-2.5H34.5h-3.194c-1.232,0-2.236-0.767-2.236-2s1.004-2,2.236-2H46"/>
<g>
	<line fill="none" stroke="#FFFFFF" stroke-width="2" stroke-miterlimit="10" x1="46" y1="29" x2="99" y2="29"/>
	<line fill="none" stroke="#FFFFFF" stroke-width="2" stroke-miterlimit="10" x1="47" y1="94" x2="99" y2="94"/>
	<line fill="none" stroke="#FFFFFF" stroke-width="2" stroke-miterlimit="10" x1="47" y1="28" x2="47" y2="95"/>
	<path fill="none" stroke="#23E8E5" stroke-miterlimit="10" d="M75.5,32v7 M75,32.5h6 M80.5,32v7"/>
	<path fill="none" stroke="#FFFFFF" stroke-miterlimit="10" d="M82.5,32v7 M82,32.5h6 M87.5,32v7"/>
	<path fill="none" stroke="#FFFFFF" stroke-miterlimit="10" d="M89.5,32v7 M89,32.5h6 M94.5,32v7"/>
	<line fill="none" stroke="#FFD34E" stroke-miterlimit="10" x1="50.5" y1="32" x2="50.5" y2="39"/>
	<line fill="none" stroke="#FFD34E" stroke-miterlimit="10" x1="50" y1="32.5" x2="69" y2="32.5"/>
	<line fill="none" stroke="#FFD34E" stroke-miterlimit="10" x1="68.5" y1="32" x2="68.5" y2="39"/>
	<line fill="none" stroke="#FFFFFF" stroke-width="2" stroke-miterlimit="10" x1="98" y1="28" x2="98" y2="95"/>
	<line fill="none" stroke="#FFFFFF" stroke-width="2" stroke-miterlimit="10" x1="47" y1="38" x2="99" y2="38"/>
	<line fill="none" stroke="#FFFFFF" stroke-width="2" stroke-miterlimit="10" x1="72" y1="28" x2="72" y2="39"/>
	<line fill="none" stroke="#FFFFFF" stroke-width="2" stroke-miterlimit="10" x1="53" y1="44" x2="92" y2="44"/>
	<polyline fill="none" stroke="#23E8E5" stroke-miterlimit="10" points="54,55.833 58.189,53.833 61.906,60.167 71.709,48.917 
		78.666,56.417 81.039,52.833 82.461,55.083 91,47.417 	"/>
	<line fill="none" stroke="#FFFFFF" stroke-width="2" stroke-miterlimit="10" x1="53" y1="65" x2="92" y2="65"/>
	<line fill="none" stroke="#FFFFFF" stroke-width="2" stroke-miterlimit="10" x1="54" y1="43" x2="54" y2="66"/>
	<line fill="none" stroke="#FFFFFF" stroke-width="2" stroke-miterlimit="10" x1="91" y1="44" x2="91" y2="66"/>
	<rect x="53.5" y="68.5" fill="none" stroke="#FFFFFF" stroke-miterlimit="10" width="8" height="10"/>
	<rect x="63.5" y="68.5" fill="none" stroke="#FFFFFF" stroke-miterlimit="10" width="8" height="10"/>
	<rect x="73.5" y="68.5" fill="none" stroke="#FFFFFF" stroke-miterlimit="10" width="8" height="10"/>
	<rect x="83.5" y="68.5" fill="none" stroke="#23E8E5" stroke-miterlimit="10" width="8" height="10"/>
	<line fill="none" stroke="#F7E967" stroke-width="2" stroke-miterlimit="10" x1="53" y1="83" x2="92" y2="83"/>
	<line fill="none" stroke="#F7E967" stroke-miterlimit="10" x1="53" y1="86.5" x2="79" y2="86.5"/>
</g>
<g>
</g>
<g>
</g>
<g>
</g>
<g>
</g>
<g>
</g>
<g>
</g>
</svg>
