<?xml version="1.0" encoding="utf-8"?>
<!-- Generator: Adobe Illustrator 16.0.0, SVG Export Plug-In . SVG Version: 6.00 Build 0)  -->
<!DOCTYPE svg PUBLIC "-//W3C//DTD SVG 1.1//EN" "http://www.w3.org/Graphics/SVG/1.1/DTD/svg11.dtd">
<svg version="1.1" id="Layer_1" xmlns="http://www.w3.org/2000/svg" xmlns:xlink="http://www.w3.org/1999/xlink" x="0px" y="0px"
	 width="144px" height="108px" viewBox="0 0 144 108" enable-background="new 0 0 144 108" xml:space="preserve">
<path fill="#006CC7" d="M41,72c0,3,2,5,2,5l4,6h-6H27.172c-1.213,0-2.2-0.787-2.2-2s0.987-2,2.2-2h3.143h0.629
	c1.386,0,2.514-1.287,2.514-2.5S32.329,74,30.943,74h-0.629h-4.4h-3.893C20.158,74,19,73.357,19,72s1.158-2,3.021-2h8.293h4.4h0.628
	c1.387,0,2.515-1.287,2.515-2.5S36.729,65,35.343,65h-0.628h-2.439C31.021,65,30,64.213,30,63s1.021-2,2.275-2H41"/>
<path fill="#006CC7" d="M91,55h13.828c1.213,0,2.2,0.787,2.2,2s-0.987,2-2.2,2h-3.143h-0.629c-1.386,0-2.514,1.287-2.514,2.5
	s1.128,2.5,2.514,2.5h0.629h4.4h3.893c1.863,0,3.021,0.643,3.021,2s-1.158,2-3.021,2h-8.293h-4.4h-0.628
	c-1.387,0-2.515,1.287-2.515,2.5s1.128,2.5,2.515,2.5h0.628h2.439c1.255,0,2.275,0.787,2.275,2s-1.021,2-2.275,2H91"/>
<path opacity="0.8" fill="none" stroke="#FFFFFF" stroke-miterlimit="10" d="M79,8.5h2 M75,11.5h2 M80,18.5h5 M82.5,21v-5 M87,11.5
	h5 M89.5,14V9"/>
<g>
	<path fill="none" stroke="#F7E967" stroke-width="2" stroke-miterlimit="10" d="M70.997,64.951c0,2.463-1.991,4.457-4.452,4.457
		c-2.458,0-4.453-1.994-4.453-4.457c0-2.455,1.994-4.449,4.453-4.449C69.006,60.502,70.997,62.496,70.997,64.951z"/>
	<path fill="none" stroke="#FFFFFF" stroke-miterlimit="10" d="M78.5,64.999C78.5,71.63,73.125,77,66.499,77
		C59.872,77,54.5,71.63,54.5,64.999C54.5,58.377,59.872,53,66.499,53C73.125,53,78.5,58.377,78.5,64.999z"/>
	<path fill="none" stroke="#23E8E5" stroke-miterlimit="10" d="M84.5,64.996C84.5,74.939,76.44,83,66.499,83
		C56.558,83,48.5,74.939,48.5,64.996C48.5,55.061,56.558,47,66.499,47C76.44,47,84.5,55.061,84.5,64.996z"/>
	<path fill="none" stroke="#FFFFFF" stroke-width="2" stroke-miterlimit="10" d="M91.5,64.997C91.5,78.807,80.308,90,66.5,90
		s-25-11.193-25-25.003C41.5,51.194,52.693,40,66.5,40S91.5,51.194,91.5,64.997z"/>
	<line fill="none" stroke="#FFFFFF" stroke-miterlimit="10" x1="66.545" y1="64.951" x2="98.5" y2="47.955"/>
	<line fill="none" stroke="#23E8E5" stroke-miterlimit="10" x1="94.05" y1="45.895" x2="93.086" y2="50.912"/>
	<line fill="none" stroke="#23E8E5" stroke-miterlimit="10" x1="93.086" y1="50.912" x2="98.293" y2="52.846"/>
	<line fill="none" stroke="#23E8E5" stroke-miterlimit="10" x1="96.813" y1="43.887" x2="95.85" y2="48.91"/>
	<line fill="none" stroke="#23E8E5" stroke-miterlimit="10" x1="95.85" y1="48.91" x2="101.057" y2="50.844"/>
	<line fill="none" stroke="#23E8E5" stroke-miterlimit="10" x1="99.257" y1="42.617" x2="98.293" y2="47.641"/>
	<line fill="none" stroke="#23E8E5" stroke-miterlimit="10" x1="98.293" y1="47.641" x2="103.5" y2="49.576"/>
	<path fill="none" stroke="#FFFFFF" stroke-miterlimit="10" d="M40,29.5h17 M53,32.5h9"/>
	<line fill="none" stroke="#FFFFFF" stroke-miterlimit="10" x1="84" y1="37.5" x2="95" y2="37.5"/>
	<line fill="none" stroke="#FFFFFF" stroke-miterlimit="10" x1="81" y1="35.5" x2="88" y2="35.5"/>
</g>
<g>
</g>
<g>
</g>
<g>
</g>
<g>
</g>
<g>
</g>
<g>
</g>
</svg>
