<?xml version="1.0" encoding="utf-8"?>
<!-- Generator: Adobe Illustrator 16.0.0, SVG Export Plug-In . SVG Version: 6.00 Build 0)  -->
<!DOCTYPE svg PUBLIC "-//W3C//DTD SVG 1.1//EN" "http://www.w3.org/Graphics/SVG/1.1/DTD/svg11.dtd">
<svg version="1.1" id="Layer_1" xmlns="http://www.w3.org/2000/svg" xmlns:xlink="http://www.w3.org/1999/xlink" x="0px" y="0px"
	 width="144px" height="108px" viewBox="0 0 144 108" enable-background="new 0 0 144 108" xml:space="preserve">
<line fill="none" stroke="#2A2B2F" stroke-width="2" stroke-miterlimit="10" x1="26" y1="22" x2="108" y2="22"/>
<line fill="none" stroke="#2A2B2F" stroke-width="2" stroke-miterlimit="10" x1="10" y1="78" x2="97" y2="78"/>
<line fill="none" stroke="#2A2B2F" stroke-width="2" stroke-miterlimit="10" x1="10" y1="85" x2="97" y2="85"/>
<line fill="none" stroke="#2A2B2F" stroke-width="2" stroke-miterlimit="10" x1="10" y1="77" x2="10" y2="86"/>
<line fill="none" stroke="#2A2B2F" stroke-width="2" stroke-miterlimit="10" x1="27" y1="21" x2="27" y2="78"/>
<line fill="none" stroke="#2A2B2F" stroke-width="2" stroke-miterlimit="10" x1="107" y1="21" x2="107" y2="54"/>
<rect x="50" y="33" opacity="0.2" fill="#00AFFE" width="28" height="25"/>
<path fill="none" stroke="#6F6F6E" stroke-miterlimit="10" d="M98,60.5h28 M99,88.5h17 M114,91.5h-4 M111,58.5h2"/>
<path fill="none" stroke="#6F6F6E" stroke-miterlimit="10" d="M32.5,27v46 M32,27.5h70 M101.5,27v27 M32,72.5h65"/>
<path fill="none" stroke="#2A2B2F" stroke-width="2" stroke-miterlimit="10" d="M99,55v41 M99,56h27 M99,95h17 M125,55v12"/>
<path fill="none" stroke="#2A2B2F" stroke-width="2" stroke-miterlimit="10" d="M117,69h15 M131,68v28 M130,95h-13 M118,68v28"/>
<line fill="none" stroke="#00AFFE" stroke-miterlimit="10" x1="109.5" y1="64" x2="109.5" y2="85"/>
<line fill="none" stroke="#B1B1B1" stroke-miterlimit="10" x1="102" y1="82.5" x2="106" y2="82.5"/>
<path fill="none" stroke="#00AFFE" stroke-miterlimit="10" d="M102,70.5h4 M102,74.5h4 M102,78.5h4 M102,66.5h4"/>
<line fill="none" stroke="#B1B1B1" stroke-miterlimit="10" x1="113" y1="68.5" x2="116" y2="68.5"/>
<path fill="none" stroke="#00AFFE" stroke-miterlimit="10" d="M113,72.5h3 M113,76.5h3 M113,80.5h3"/>
<rect x="37.5" y="33.5" fill="none" stroke="#00AFFE" stroke-miterlimit="10" width="8" height="8"/>
<rect x="37.5" y="46.5" fill="none" stroke="#00AFFE" stroke-miterlimit="10" width="8" height="8"/>
<rect x="37.5" y="59.5" fill="none" stroke="#B1B1B1" stroke-miterlimit="10" width="8" height="8"/>
<rect x="50.5" y="33.5" fill="none" stroke="#00AFFE" stroke-miterlimit="10" width="22" height="20"/>
<rect x="87.5" y="33.5" fill="#00AFFE" stroke="#00AFFE" stroke-miterlimit="10" width="7" height="8"/>
<rect x="85.5" y="37.5" fill="none" stroke="#B1B1B1" stroke-miterlimit="10" width="11" height="10"/>
<line fill="none" stroke="#00AFFE" stroke-miterlimit="10" x1="87" y1="50.5" x2="95" y2="50.5"/>
<line fill="none" stroke="#00AFFE" stroke-miterlimit="10" x1="87" y1="53.5" x2="95" y2="53.5"/>
<line fill="none" stroke="#00AFFE" stroke-miterlimit="10" x1="87" y1="56.5" x2="95" y2="56.5"/>
<line fill="none" stroke="#B1B1B1" stroke-miterlimit="10" x1="87" y1="59.5" x2="95" y2="59.5"/>
<path fill="none" stroke="#6F6F6E" stroke-miterlimit="10" d="M119,73.5h11 M119,90.5h11 M124,71.5h1 M123,92.5h3"/>
<path fill="none" stroke="#00AFFE" stroke-miterlimit="10" d="M121,81.5h7 M121,83.5h7"/>
<path opacity="0.4" fill="none" stroke="#6F6F6E" stroke-width="2" stroke-linecap="round" stroke-miterlimit="10" stroke-dasharray="5,5,100" d="
	M4,95h85"/>
<path opacity="0.4" fill="none" stroke="#6F6F6E" stroke-width="2" stroke-linecap="round" stroke-miterlimit="10" stroke-dasharray="5,5,65,5,10" d="
	M49,102h90"/>
<path opacity="0.7" fill="none" stroke="#00AFFE" stroke-miterlimit="10" d="M58,42.5h4 M64,42.5h3 M69,42.5h4 M75,42.5h3 M80.5,42
	v5 M80.5,49v3 M80.5,54v4 M80.5,60v2 M78,61.5h-3 M73,61.5h-4 M67,61.5h-4 M62,61.5h-4 M58.5,45v3 M58.5,50v3 M58.5,55v4"/>
<line fill="none" stroke="#2A2B2F" stroke-miterlimit="10" x1="61" y1="80.5" x2="73" y2="80.5"/>
<line fill="none" stroke="#2A2B2F" stroke-miterlimit="10" x1="61.5" y1="81" x2="61.5" y2="77"/>
<line fill="none" stroke="#2A2B2F" stroke-miterlimit="10" x1="72.5" y1="81" x2="72.5" y2="77"/>
<rect x="121.5" y="76.5" fill="none" stroke="#00AFFE" stroke-miterlimit="10" width="6" height="3"/>
<line fill="none" stroke="#B1B1B1" stroke-miterlimit="10" x1="121" y1="87.5" x2="128" y2="87.5"/>
<path fill="none" stroke="#1D1D1B" stroke-miterlimit="10" d="M81,62.5h1 M82,63.5h1 M83,64.5h1 M84,65.5h1 M83,65.5h1 M82,65.5h1
	 M81,66.5h1 M81,65.5h1 M81,64.5h1 M81,63.5h1 M83,67.5h1"/>
<g>
</g>
<g>
</g>
<g>
</g>
<g>
</g>
<g>
</g>
<g>
</g>
</svg>
