<?xml version="1.0" encoding="utf-8"?>
<!-- Generator: Adobe Illustrator 16.0.0, SVG Export Plug-In . SVG Version: 6.00 Build 0)  -->
<!DOCTYPE svg PUBLIC "-//W3C//DTD SVG 1.1//EN" "http://www.w3.org/Graphics/SVG/1.1/DTD/svg11.dtd">
<svg version="1.1" id="Layer_1" xmlns="http://www.w3.org/2000/svg" xmlns:xlink="http://www.w3.org/1999/xlink" x="0px" y="0px"
	 width="144px" height="108px" viewBox="0 0 144 108" enable-background="new 0 0 144 108" xml:space="preserve">
<g>
	<g>
		<path fill="none" stroke="#B1B1B1" stroke-miterlimit="10" d="M92.749,44.778l-12.964-0.182 M90,57.5H76 M86.267,30.894
			l-3.911,35.766 M52.973,56.1l2.061,10.46 M61.572,58.902l-0.199,7.594 M68.5,61v5 M74.5,57v9 M50.229,44.141l-1.878-7.7 M44,47.5
			h7"/>
		<circle fill="none" stroke="#2A2B2F" stroke-miterlimit="10" cx="72" cy="22.5" r="3.5"/>
		<path fill="none" stroke="#00AFFE" stroke-miterlimit="10" d="M72.385,37l-12.77,14"/>
		<path fill="none" stroke="#6F6F6E" stroke-miterlimit="10" d="M62,37c-1.381,0-2.5,1.119-2.5,2.5S60.619,42,62,42
			s2.5-1.119,2.5-2.5S63.381,37,62,37z M71,45c-1.379,0-2.5,1.121-2.5,2.5S69.621,50,71,50s2.5-1.121,2.5-2.5S72.379,45,71,45z"/>
		<path fill="none" stroke="#00AFFE" stroke-miterlimit="10" d="M40,20.5h9 M44.5,16v9"/>
		<line fill="none" stroke="#2A2B2F" stroke-width="2" stroke-miterlimit="10" x1="46" y1="86" x2="97" y2="86"/>
		<polyline fill="none" stroke="#2A2B2F" stroke-miterlimit="10" points="68.496,69.023 87.337,71.295 96.5,77.321 96.5,86 		"/>
		<circle fill="none" stroke="#6F6F6E" stroke-miterlimit="10" cx="55.439" cy="91.209" r="4.79"/>
		<circle fill="none" stroke="#6F6F6E" stroke-miterlimit="10" cx="88.098" cy="91.209" r="4.79"/>
		<circle fill="#00AFFE" cx="55.658" cy="91.209" r="1.959"/>
		<circle fill="#00AFFE" cx="88.316" cy="91.209" r="1.959"/>
		<line fill="none" stroke="#00AFFE" stroke-miterlimit="10" x1="51" y1="78.5" x2="53" y2="78.5"/>
		<line fill="none" stroke="#00AFFE" stroke-miterlimit="10" x1="57" y1="78.5" x2="63" y2="78.5"/>
		<path fill="none" stroke="#2A2B2F" stroke-width="2" stroke-miterlimit="10" d="M84.5,30l11-0.038 M55,36H40.635h-0.306
			l8.47,30.793l40.17-0.067l7.837-46.146l5.856,1.092"/>
		<polygon fill="none" stroke="#00AFFE" stroke-width="2" stroke-miterlimit="10" points="48.146,53.759 73.293,63.394 
			84.233,31.715 82.11,16.366 68.721,10.707 59.903,20.149 		"/>
		<polygon opacity="0.2" fill="#00AFFE" points="94.501,63 77,63 81.667,47.833 98,47.833 		"/>
	</g>
</g>
<path opacity="0.4" fill="none" stroke="#6F6F6E" stroke-width="2" stroke-linecap="round" stroke-miterlimit="10" stroke-dasharray="5,5,100" d="
	M14,95h31"/>
<path opacity="0.4" fill="none" stroke="#6F6F6E" stroke-width="2" stroke-linecap="round" stroke-miterlimit="10" d="M65,95h15"/>
<path opacity="0.4" fill="none" stroke="#6F6F6E" stroke-width="2" stroke-linecap="round" stroke-miterlimit="10" stroke-dasharray="5,5,100" d="
	M138,95H97"/>
<path opacity="0.4" fill="none" stroke="#6F6F6E" stroke-width="2" stroke-linecap="round" stroke-miterlimit="10" stroke-dasharray="25,5,36,5,15,5" d="
	M6,102h108"/>
<g>
</g>
<g>
</g>
<g>
</g>
<g>
</g>
<g>
</g>
<g>
</g>
</svg>
