<?xml version="1.0" encoding="utf-8"?>
<svg id="nioeshop" xmlns="http://www.w3.org/2000/svg" xmlns:xlink="http://www.w3.org/1999/xlink" x="0px" y="0px" width="192px" height="192px" viewBox="0 0 192 192" enable-background="new 0 0 192 192" xml:space="preserve">
<path data-async="" data-duration="200" fill="none" stroke="#B0BEC5" stroke-width="2" stroke-miterlimit="10" d="M176,169V91 M16.001,169V65.017 M15.001,65H140 M0.001,170H192 M1.001,170v15 M2.001,184H192 M191,170.688v12.62 M72.001,171v6 M72.001,176H121 M120,176.105V170 M93,70h6"/>
<path data-async="" data-delay="5" data-duration="160" fill="none" stroke="#B0BEC5" stroke-width="2" stroke-miterlimit="10" d="M25.001,75.001H140 M26.001,74.605V158 M25.001,159	H168 M167,158V83"/>
<path data-async="" data-duration="100" fill="none" stroke="#B0BEC5" stroke-width="2" stroke-miterlimit="10" d="M139,51h40 M178,50v28 M179,77h-40 M140,78V50"/>
<path data-async="" data-duration="80" fill="none" stroke="#B0BEC5" stroke-width="2" stroke-miterlimit="10" d="M148,61h22 M151,68h16"/>
<path data-async="" data-duration="120" fill="none" stroke="#2196F3" stroke-width="2" stroke-miterlimit="10" d="M158,88c0,2.209-1.791,4-4,4s-4-1.791-4-4 s1.791-4,4-4S158,85.791,158,88z M179,84c-2.209,0-4,1.791-4,4s1.791,4,4,4s4-1.791,4-4S181.209,84,179,84z"/>
<path data-async="" data-duration="60" fill="none" stroke="#34ABE2" stroke-width="2" stroke-miterlimit="10" d="M161,33v12 M155,39h12"/>
<path data-async="" data-duration="60" fill="none" stroke="#E5E4E6" stroke-width="2" stroke-miterlimit="10" d="M175,22v10 M170,27h10"/>
<path data-async="" data-duration="60" fill="none" stroke="#E5E4E6" stroke-width="2" stroke-miterlimit="10" d="M164,8v8 M160,12h8"/>
<path data-async="" data-duration="80" fill="none" stroke="#B0BEC5" stroke-width="2" stroke-miterlimit="10" d="M100,30h44 M101,30v29 M100,59h39 M145,51V29 M102,36h43"/>
<path data-async="" data-duration="60" fill="none" stroke="#2196F3" stroke-width="2" stroke-miterlimit="10" d="M118.992,47v7 M108.992,48h10 M118.992,53h-10 M108.992,47v7"/>
<path data-async="" data-duration="50" fill="none" stroke="#B0BEC5" stroke-width="2" stroke-miterlimit="10" d="M108,42h30 M123,53h6 M123,48h15 M132,53h6"/>
<path data-async="" data-duration="40" fill="none" stroke="#B0BEC5" stroke-width="2" stroke-miterlimit="10" d="M139,83h46 M184,83V45"/>
<path data-async="" data-duration="30" fill="none" stroke="#B0BEC5" stroke-width="2" stroke-miterlimit="10" d="M184,46h7.787 M184,51h7.787"/>
<path data-async="" data-delay="10" data-duration="100" fill="none" stroke="#B0BEC5" stroke-width="2" stroke-miterlimit="10" d="M52.001,92.002H140 M139,92.002V145 M140,144H52.001 M53.001,144V92.002 M54.001,103.002H139"/>
<path data-async="" data-delay="10" data-duration="80" fill="none" stroke="#2196F3" stroke-width="2" stroke-miterlimit="10" d="M60.001,110.002V120 M60.001,119h14 M73.001,119 v-8.998 M73.001,111.002h-13"/>
<path data-async="" data-duration="60" fill="none" stroke="#2196F3" stroke-width="2" stroke-miterlimit="10" d="M77.001,114h12 M77.001,119h16"/>
<path data-async="" data-delay="10" data-duration="80" fill="none" stroke="#B0BEC5" stroke-width="2" stroke-miterlimit="10" d="M60.001,127v10 M60.001,136h14 M73.001,136v-9 M73.001,128h-13"/>
<path data-async="" data-duration="60" fill="none" stroke="#B0BEC5" stroke-width="2" stroke-miterlimit="10" d="M77.001,131h12 M77.001,136h16"/>
<path data-async="" data-delay="10" data-duration="80" fill="none" stroke="#B0BEC5" stroke-width="2" stroke-miterlimit="10" d="M100,110.002V120 M100,119h14 M113,119v-8.998 M113,111.002h-13"/>
<path data-async="" data-duration="60" fill="none" stroke="#B0BEC5" stroke-width="2" stroke-miterlimit="10" d="M117,114h12 M117,119h16"/>
<path data-async="" data-delay="10" data-duration="80" fill="none" stroke="#B0BEC5" stroke-width="2" stroke-miterlimit="10" d="M100,127v10 M100,136h14 M113,136v-9 M113,128h-13"	/>
<path data-async="" data-duration="60" fill="none" stroke="#B0BEC5" stroke-width="2" stroke-miterlimit="10" d="M117,131h12 M117,136h16"/>
</svg>