<?xml version="1.0" encoding="utf-8"?>
<!-- Generator: Adobe Illustrator 16.0.0, SVG Export Plug-In . SVG Version: 6.00 Build 0)  -->
<!DOCTYPE svg PUBLIC "-//W3C//DTD SVG 1.1//EN" "http://www.w3.org/Graphics/SVG/1.1/DTD/svg11.dtd">
<svg version="1.1" id="Layer_1" xmlns="http://www.w3.org/2000/svg" xmlns:xlink="http://www.w3.org/1999/xlink" x="0px" y="0px"
	 width="72px" height="72px" viewBox="0 0 72 72" enable-background="new 0 0 72 72" xml:space="preserve">
<line fill="none" stroke="#FFD54F" stroke-miterlimit="10" x1="54.332" y1="32.596" x2="57.223" y2="27.69"/>
<path fill="none" stroke="#FFD54F" stroke-width="2" stroke-miterlimit="10" d="M46.186,15.098c0,0-1.615,3.998-7.781,3.665
	c-6.168-0.334-10.418-0.917-16,7.166c-5.584,8.084,1,7.834,1,7.834s4.916-1,7.916-5.75s16.834,2.333,16.834,2.333
	s8.166,2.25,10.25,5c2.082,2.75,1.25,6.333-12.584,2.333c0,0,15.416,5.166,8.5,7.5c-5.834,0.576-10.916-3.166-10.916-3.166
	s14.332,8.5,2.832,6.916l-5.916-2.084c0,0,11.416,6.75,3.75,7l-5.416-1.082l-2.35-0.883l0,0 M51.223,8.076l-6.33,5.548L59.01,29.729
	l6.33-5.547L51.223,8.076z M15.82,43.014l5.334,3.832"/>
<circle fill="none" stroke="#FFD54F" stroke-miterlimit="10" cx="11" cy="41.001" r="1.5"/>
<circle fill="none" stroke="#FFD54F" stroke-miterlimit="10" cx="59" cy="23" r="1.5"/>
<path fill="none" stroke="#FFD54F" stroke-miterlimit="10" d="M22,26.5h-7 M15.5,24.5h-9v21h9V24.5z M4.5,26v18"/>
<path fill="none" stroke="#FFD54F" stroke-miterlimit="10" d="M24.072,45.172c1.008,0.496,1.205,2.152,0.443,3.699
	c-0.762,1.549-2.193,2.4-3.201,1.906c-1.006-0.496-1.205-2.152-0.443-3.699S23.066,44.678,24.072,45.172z M24.689,48.613
	c-0.939,1.91-0.885,3.861,0.121,4.357c1.006,0.494,2.584-0.652,3.525-2.563c0.939-1.912,0.885-3.861-0.121-4.357
	C27.209,45.557,25.631,46.703,24.689,48.613z M28.584,49.771c-1.027,2.088-0.965,4.223,0.139,4.766
	c1.105,0.543,2.834-0.709,3.861-2.799c1.029-2.088,0.967-4.221-0.139-4.766C31.34,46.43,29.611,47.682,28.584,49.771z
	 M33.012,50.926c-0.828,1.686-0.818,3.389,0.025,3.803s2.199-0.615,3.027-2.299c0.83-1.686,0.818-3.389-0.025-3.803
	C35.197,48.213,33.842,49.242,33.012,50.926z M55.588,5.68l11.699,13.349 M19,36.5h14 M32.092,44.93l-7.188-3.834 M33.529,45.596
	l2.563,1.25"/>
<path fill="none" stroke="#FFD54F" stroke-miterlimit="10" d="M14.654,14.354c0,0,10.875-12.133,23.875-9.508 M36.404,8.346
	c-11.75-0.125-17.918,8.75-17.918,8.75 M38.355,67.525c0,0,16.24-1.311,22.02-13.248 M38.492,62.814c0,0,10.797,0.465,17.811-8.965"
	/>
<g>
</g>
<g>
</g>
<g>
</g>
<g>
</g>
<g>
</g>
<g>
</g>
</svg>
