<?xml version="1.0" encoding="utf-8"?>
<!-- Generator: Adobe Illustrator 16.0.0, SVG Export Plug-In . SVG Version: 6.00 Build 0)  -->
<!DOCTYPE svg PUBLIC "-//W3C//DTD SVG 1.1//EN" "http://www.w3.org/Graphics/SVG/1.1/DTD/svg11.dtd">
<svg version="1.1" id="Layer_1" xmlns="http://www.w3.org/2000/svg" xmlns:xlink="http://www.w3.org/1999/xlink" x="0px" y="0px"
	 width="72px" height="72px" viewBox="0 0 72 72" enable-background="new 0 0 72 72" xml:space="preserve">
<path fill="none" stroke="#E57373" stroke-width="2" stroke-miterlimit="10" d="M48.296,26.863c0.065-0.34,0.117-0.705,0.117-1.097
	c0-3.802-3.396-6.897-7.56-6.897c-1.815,0-3.617,0.666-4.963,1.776c-1.396-1.136-3.173-1.776-5.014-1.776
	c-1.972,0-3.839,0.692-5.236,1.973c-1.437,1.307-2.22,3.057-2.22,4.925c0,0.496,0.052,0.979,0.144,1.423
	c-2.076,1.254-3.369,3.409-3.369,5.761c0,1.253,0.301,2.377,0.928,3.409c-0.602,1.019-0.928,2.193-0.928,3.383
	c0,2.364,1.189,4.468,3.252,5.773c-0.026,0.353-0.026,0.691-0.026,1.019c0,1.868,0.796,3.618,2.22,4.925
	c1.397,1.267,3.252,1.973,5.236,1.973c1.841,0,3.604-0.641,5.014-1.777c1.359,1.123,3.147,1.777,4.963,1.777
	c4.164,0,7.56-3.097,7.56-6.885c0-0.234-0.013-0.471-0.038-0.692c2.415-1.201,3.969-3.54,3.969-6.1c0-1.188-0.326-2.351-0.927-3.383
	c0.627-1.032,0.927-2.155,0.927-3.409C52.344,30.364,50.738,28,48.296,26.863L48.296,26.863z"/>
<g>
	<path fill="#E57373" d="M36.675,28.3c-0.288,1.724-0.681,3.411-1.116,5.083c-0.208,0.839-0.459,1.664-0.687,2.496
		c-0.235,0.83-0.502,1.648-0.752,2.473l-1.342-1.115c1.082-0.683,2.193-1.313,3.289-1.972l1.672-0.938
		c0.561-0.307,1.11-0.633,1.68-0.924l2.336-1.192l-0.987,2.334c-0.341,0.806-0.672,1.615-1.021,2.417
		c-0.364,0.797-0.71,1.601-1.089,2.392c-0.751,1.585-1.54,3.155-2.44,4.685c0.323-1.745,0.757-3.448,1.229-5.138
		c0.232-0.846,0.498-1.679,0.746-2.519c0.263-0.835,0.544-1.663,0.814-2.494l1.349,1.143c-0.538,0.347-1.096,0.658-1.643,0.989
		l-1.65,0.976c-1.12,0.616-2.223,1.262-3.356,1.854l-2.27,1.186l0.928-2.302c0.322-0.799,0.627-1.604,0.964-2.398
		c0.345-0.791,0.666-1.591,1.03-2.375C35.067,31.384,35.818,29.824,36.675,28.3z"/>
</g>
<g>
	<path fill="#E57373" d="M36.357,3.916c-0.151,0.672-0.335,1.334-0.511,1.998c-0.17,0.666-0.362,1.325-0.554,1.982
		c-0.387,1.316-0.798,2.623-1.226,3.923l-0.671-0.558c1.74-1.05,3.502-2.064,5.282-3.046l1.154-0.638l-0.48,1.209
		c-0.513,1.292-1.041,2.578-1.596,3.854c-0.28,0.637-0.558,1.275-0.858,1.905c-0.296,0.631-0.583,1.266-0.903,1.888
		c0.166-0.68,0.365-1.347,0.556-2.018c0.186-0.672,0.394-1.336,0.601-2.001c0.418-1.327,0.862-2.645,1.322-3.957l0.674,0.571
		c-1.743,1.046-3.504,2.061-5.286,3.039l-1.109,0.609l0.438-1.167c0.481-1.282,0.98-2.558,1.503-3.826
		c0.263-0.633,0.527-1.266,0.811-1.892C35.782,5.165,36.054,4.535,36.357,3.916z"/>
</g>
<g>
	<path fill="#E57373" d="M58.473,8.841c-0.346,0.596-0.719,1.172-1.086,1.753c-0.362,0.584-0.741,1.155-1.122,1.726
		c-0.763,1.139-1.547,2.263-2.346,3.376l-0.473-0.733c1.976-0.481,3.96-0.92,5.952-1.325l1.292-0.262l-0.82,1.009
		c-0.877,1.079-1.766,2.148-2.678,3.2c-0.458,0.524-0.914,1.05-1.39,1.56c-0.472,0.514-0.936,1.033-1.428,1.531
		c0.362-0.599,0.752-1.176,1.135-1.759c0.379-0.586,0.776-1.157,1.173-1.729c0.797-1.141,1.615-2.265,2.447-3.379l0.472,0.747
		c-1.977,0.476-3.961,0.917-5.954,1.316l-1.24,0.249l0.768-0.981c0.844-1.079,1.701-2.147,2.58-3.2
		c0.44-0.525,0.882-1.05,1.341-1.563C57.55,9.86,57.998,9.34,58.473,8.841z"/>
</g>
<g>
	<path fill="#E57373" d="M12.5,10.559c0.401,0.561,0.773,1.137,1.152,1.71c0.383,0.57,0.748,1.151,1.111,1.732
		c0.726,1.164,1.428,2.34,2.114,3.525l-0.863,0.13c0.374-1.999,0.788-3.988,1.238-5.971l0.292-1.286l0.583,1.163
		c0.623,1.243,1.232,2.493,1.817,3.756c0.29,0.633,0.582,1.265,0.851,1.908c0.274,0.641,0.558,1.277,0.809,1.93
		c-0.397-0.576-0.763-1.169-1.137-1.757c-0.379-0.586-0.736-1.184-1.095-1.78c-0.713-1.195-1.402-2.403-2.076-3.619l0.875-0.124
		c-0.378,1.998-0.792,3.987-1.246,5.969l-0.283,1.233l-0.58-1.104c-0.637-1.212-1.258-2.433-1.857-3.667
		c-0.298-0.618-0.595-1.235-0.874-1.864C13.05,11.819,12.76,11.197,12.5,10.559z"/>
</g>
<g>
	<path fill="#E57373" d="M36.357,68.084c-0.303-0.619-0.575-1.249-0.854-1.877c-0.284-0.626-0.548-1.259-0.811-1.892
		c-0.523-1.268-1.021-2.544-1.503-3.826l-0.438-1.166l1.109,0.608c1.782,0.979,3.543,1.993,5.286,3.039l-0.674,0.571
		c-0.46-1.312-0.904-2.629-1.322-3.957c-0.207-0.664-0.415-1.328-0.601-2.001c-0.19-0.671-0.39-1.338-0.556-2.018
		c0.32,0.622,0.607,1.257,0.903,1.888c0.301,0.63,0.578,1.268,0.858,1.905c0.555,1.276,1.083,2.563,1.596,3.854l0.48,1.208
		l-1.154-0.637c-1.78-0.983-3.542-1.997-5.282-3.047l0.671-0.558c0.428,1.301,0.839,2.607,1.226,3.923
		c0.192,0.658,0.383,1.317,0.554,1.982C36.022,66.75,36.206,67.411,36.357,68.084z"/>
</g>
<g>
	<path fill="#E57373" d="M58.473,63.158c-0.475-0.5-0.923-1.02-1.377-1.534c-0.459-0.513-0.9-1.037-1.341-1.563
		c-0.879-1.053-1.736-2.121-2.58-3.199l-0.768-0.982l1.24,0.249c1.993,0.399,3.978,0.84,5.954,1.316l-0.472,0.746
		c-0.832-1.114-1.65-2.237-2.447-3.379c-0.396-0.572-0.794-1.144-1.173-1.729c-0.383-0.583-0.772-1.16-1.135-1.759
		c0.492,0.498,0.956,1.017,1.428,1.53c0.476,0.511,0.932,1.036,1.39,1.561c0.912,1.052,1.801,2.121,2.678,3.199l0.82,1.01
		l-1.292-0.263c-1.992-0.404-3.977-0.844-5.952-1.324l0.473-0.732c0.799,1.112,1.582,2.236,2.346,3.375
		c0.381,0.57,0.76,1.142,1.122,1.726C57.754,61.986,58.127,62.563,58.473,63.158z"/>
</g>
<g>
	<path fill="#E57373" d="M12.5,61.441c0.26-0.639,0.55-1.26,0.833-1.886c0.278-0.629,0.576-1.247,0.874-1.864
		c0.599-1.233,1.22-2.455,1.857-3.667l0.58-1.104l0.283,1.233c0.455,1.981,0.868,3.972,1.246,5.969l-0.875-0.124
		c0.674-1.215,1.362-2.424,2.076-3.619c0.359-0.596,0.716-1.193,1.095-1.779c0.374-0.588,0.74-1.181,1.137-1.757
		c-0.251,0.653-0.535,1.289-0.809,1.931c-0.27,0.644-0.562,1.274-0.851,1.907c-0.584,1.264-1.194,2.514-1.817,3.756l-0.583,1.163
		l-0.292-1.286c-0.45-1.982-0.864-3.973-1.238-5.971l0.863,0.13c-0.687,1.186-1.389,2.361-2.114,3.525
		c-0.363,0.581-0.728,1.162-1.111,1.732C13.273,60.305,12.901,60.881,12.5,61.441z"/>
</g>
<g>
</g>
<g>
</g>
<g>
</g>
<g>
</g>
<g>
</g>
<g>
</g>
</svg>
