<?xml version="1.0" encoding="utf-8"?>
<svg version="1.1" id="nioliner" xmlns="http://www.w3.org/2000/svg" xmlns:xlink="http://www.w3.org/1999/xlink" x="0px" y="0px"
	 width="1896px" height="130px" viewBox="0 0 1896 130" enable-background="new 0 0 1896 130" xml:space="preserve">
<linearGradient id="niogad" gradientUnits="userSpaceOnUse" x1="-0.5" y1="65.1299" x2="1895.9268" y2="65.1299">
	<stop offset="0" style="stop-color:#00c9ff"><animate attributeName="stop-color" values="#00c9ff; #b6ff85; #00c9ff" dur="3s" repeatCount="indefinite"></animate></stop>
	<stop offset="0.25" style="stop-color:#90fd9e"><animate attributeName="stop-color" values="#90fd9e; #48f0ff; #90fd9e" dur="3s" repeatCount="indefinite"></animate></stop>
	<stop offset="0.50" style="stop-color:#48f0ff"><animate attributeName="stop-color" values="#48f0ff; #90fd9e; #48f0ff" dur="3s" repeatCount="indefinite"></animate></stop>
	<stop offset="0.75" style="stop-color:#b6ff85"><animate attributeName="stop-color" values="#b6ff85; #00c9ff; #b6ff85" dur="3s" repeatCount="indefinite"></animate></stop>
	<stop offset="1" style="stop-color:#00c9ff"><animate attributeName="stop-color" values="#00c9ff; #6ca6e2; #00c9ff" dur="3s" repeatCount="indefinite"></animate></stop>
</linearGradient>
<path fill="none" stroke="url(#niogad)" stroke-miterlimit="10" d="M179,68.5l-10.5-17l10.5-17h21.001l10.499,17l-10.499,17H179z
	 M250.001,51.5l10.499-17l-10.499-17H229l-10.5,17l10.5,17H250.001z M260.749,68.594L250.001,51.5H229l-10.5,17.094l10.5,17
	 M300.001,68.5l10.499-17l-10.499-17H279l-10.5,17l10.5,17H300.001z M279,0.688l-10.5,16.906L279,34.5h21.001l10.748-16.906
	 M172.5,23.594L179,34.5h21.001l10.748-16.953 M474.5,23.594L481,34.5h21.001l10.748-16.953 M329,17.688l-10.5,16.906L329,51.5
	h21.001l10.748-16.906 M259.999,34.5h58 M209.999,51.5h18 M159.999,68.5h58 M222.5,6.594L229,17.5h21.001l10.748-16.953
	 M524.5,6.594L531,17.5h21.001l10.748-16.953 M249.999,17.5h18 M350.248,85.688l10.5-17.094l-10.5-17.094h-21.001l-10.748,17.094
	 M309.999,51.5h18 M310.749,85.594L300.001,68.5H279l-6.5,11.047 M210.749,85.594L200.001,68.5H179l-20.5,35.047 M137.999,103.5h40
	 M189,86.688l-10.5,17l6.5,9 M132.5,112.688l6.5-9l-10.5-17 M150.249,85.688l10.5-17.094l-10.5-17.094h-21.001L118.5,68.594
	 M129,17.688l-10.5,16.906L129,51.5h21.001l10.748-16.906 M163.954,112.688l-5.454-9 M49.001,51.5l10.499-17l-10.499-17H28l-10.5,17
	l10.5,17H49.001z M99.001,68.5l10.499-17l-10.499-17H78l-10.5,17l10.5,17H99.001z M78,0.688L67.5,17.594L78,34.5h21.001
	l10.748-16.906 M21.5,6.594L28,17.5h21.001L59.749,0.547 M48.999,17.5h18 M58.999,34.5h60 M109.749,85.594L99.001,68.5H78
	l-20.5,35.047 M37.999,103.5h39 M88,86.688l-10.5,17l6.5,9 M62.954,112.688l-5.454-9 M108.999,51.5h20 M49.248,85.688l10.5-17.094
	L49.248,51.5H28.247L17.499,68.594 M-0.001,51.5h27 M31.5,112.688l6.5-9l-10.5-17 M552.001,51.5l10.499-17l-10.499-17H531l-10.5,17
	l10.5,17H552.001z M602.001,68.5l10.499-17l-10.499-17H581l-10.5,17l10.5,17H602.001z M552.248,85.688l10.5-17.094l-10.5-17.094
	h-21.001l-10.748,17.094 M389.999,86.688l-10.5,16.906l10.5,16.906H411l10.748-16.906 M502.001,68.5l10.499-17l-10.499-17H481
	l-10.5,17l10.5,17H502.001z M426,23.688l-6.5,10.906L430,51.5h21.001L461.5,34.594l-10.499-16.953 M380,34.688l-10.5,16.906
	L380,68.5h21.001L411.5,51.594l-6.499-10.953 M581,0.688l-10.5,16.906L581,34.5h21.001L612.5,17.594l-6.499-10.953 M512.749,85.594
	L502.001,68.5H481l-20.5,35.047 M438.999,103.5h41 M491,86.688l-10.5,17l6.5,9 M460.5,103.688l5.454,9 M540.999,103.5h40
	 M592,86.688l-10.5,17l6.5,9 M560.5,103.688l5.454,9 M460.999,34.5h59 M510.999,51.5h20 M551.999,17.5h18 M411.749,85.594
	L401.001,68.5H380l-20.5,35.047 M461.749,68.594L451.001,51.5H430l-10.5,17.094l20.5,35 M440,103.688l-10.5,17l6.5,9 M359.999,68.5
	h59 M410.999,51.5h19 M415.954,129.688l-5.454-9 M349.999,103.5h29 M632,51.688l-10.5,17l6.5,9 M611.999,51.5h20 M628,25.688l-6.5,9
	l10.5,17 M612.749,85.594L602.001,68.5H581l-20.5,35.047 M531.374,120.688l10.438-17l-10.563-17 M363.5,129.688l6.5-9l-10.5-17
	 M1443,68.5l-10.5-17l10.5-17h21.001l10.499,17l-10.499,17H1443z M1514.001,51.5l10.499-17l-10.499-17H1493l-10.5,17l10.5,17
	H1514.001z M1524.749,68.594L1514.001,51.5H1493l-10.5,17.094l10.5,17 M1564.001,68.5l10.499-17l-10.499-17H1543l-10.5,17l10.5,17
	H1564.001z M1543,0.688l-10.5,16.906L1543,34.5h21.001l10.748-16.906 M1436.5,23.594L1443,34.5h21.001l10.748-16.953 M1738.5,23.594
	L1745,34.5h21.001l10.748-16.953 M1593,17.688l-10.5,16.906L1593,51.5h21.001l10.748-16.906 M1523.999,34.5h58 M1473.999,51.5h18
	 M1423.999,68.5h58 M1486.5,6.594L1493,17.5h21.001l10.748-16.953 M1788.5,6.594L1795,17.5h21.001l10.748-16.953 M1513.999,17.5h18
	 M1614.248,85.688l10.5-17.094l-10.5-17.094h-21.001l-10.748,17.094 M1573.999,51.5h18 M1574.749,85.594L1564.001,68.5H1543
	l-6.5,11.047 M1474.749,85.594L1464.001,68.5H1443l-20.5,35.047 M1401.999,103.5h40 M1453,86.688l-10.5,17l6.5,9 M1396.5,112.688
	l6.5-9l-10.5-17 M1414.249,85.688l10.5-17.094l-10.5-17.094h-21.001L1382.5,68.594 M1393,17.688l-10.5,16.906L1393,51.5h21.001
	l10.748-16.906 M1422.5,103.688l5.454,9 M1313.001,51.5l10.499-17l-10.499-17H1292l-10.5,17l10.5,17H1313.001z M1363.001,68.5
	l10.499-17l-10.499-17H1342l-10.5,17l10.5,17H1363.001z M1342,0.688l-10.5,16.906L1342,34.5h21.001l10.748-16.906 M1285.5,6.594
	L1292,17.5h21.001l10.748-16.953 M1312.999,17.5h18 M1322.999,34.5h60 M1373.749,85.594L1363.001,68.5H1342l-20.5,35.047
	 M1301.999,103.5h39 M1352,86.688l-10.5,17l6.5,9 M1321.5,103.688l5.454,9 M1372.999,51.5h20 M1313.248,85.688l10.5-17.094
	l-10.5-17.094h-21.001l-10.748,17.094 M1263.999,51.5h27 M1295.5,112.688l6.5-9l-10.5-17 M1816.001,51.5l10.499-17l-10.499-17H1795
	l-10.5,17l10.5,17H1816.001z M1866.001,68.5l10.499-17l-10.499-17H1845l-10.5,17l10.5,17H1866.001z M1816.248,85.688l10.5-17.094
	l-10.5-17.094h-21.001l-10.748,17.094 M1653.999,86.688l-10.5,16.906l10.5,16.906H1675l10.748-16.906 M1766.001,68.5l10.499-17
	l-10.499-17H1745l-10.5,17l10.5,17H1766.001z M1690,23.688l-6.5,10.906L1694,51.5h21.001l10.499-16.906l-10.499-16.953 M1644,34.688
	l-10.5,16.906L1644,68.5h21.001l10.499-16.906l-6.499-10.953 M1845,0.688l-10.5,16.906L1845,34.5h21.001l10.499-16.906
	l-6.499-10.953 M1776.749,85.594L1766.001,68.5H1745l-20.5,35.047 M1702.999,103.5h41 M1755,86.688l-10.5,17l6.5,9
	 M1729.954,112.688l-5.454-9 M1804.999,103.5h40 M1856,86.688l-10.5,17l6.5,9 M1829.954,112.688l-5.454-9 M1724.999,34.5h59
	 M1774.999,51.5h20 M1815.999,17.5h18 M1675.749,85.594L1665.001,68.5H1644l-20.5,35.047 M1725.749,68.594L1715.001,51.5H1694
	l-10.5,17.094l20.5,35 M1704,103.688l-10.5,17l6.5,9 M1623.999,68.5h59 M1674.999,51.5h19 M1674.5,120.688l5.454,9 M1613.999,103.5
	h29 M1896,51.688l-10.5,17l6.5,9 M1875.999,51.5H1897 M1892,25.688l-6.5,9l10.5,17 M1876.749,85.594L1866.001,68.5H1845
	l-20.5,35.047 M1795.374,120.688l10.438-17l-10.563-17 M1627.5,129.688l6.5-9l-10.5-17 M811,68.5l-10.5-17l10.5-17h21.001l10.499,17
	l-10.499,17H811z M882.001,51.5l10.499-17l-10.499-17H861l-10.5,17l10.5,17H882.001z M892.749,68.594L882.001,51.5H861l-10.5,17.094
	l10.5,17 M932.001,68.5l10.499-17l-10.499-17H911l-10.5,17l10.5,17H932.001z M911,0.688l-10.5,16.906L911,34.5h21.001l10.748-16.906
	 M804.5,23.594L811,34.5h21.001l10.748-16.953 M1106.5,23.594L1113,34.5h21.001l10.748-16.953 M961,17.688l-10.5,16.906L961,51.5
	h21.001l10.748-16.906 M891.999,34.5h58 M841.999,51.5h18 M791.999,68.5h58 M854.5,6.594L861,17.5h21.001l10.748-16.953
	 M1156.5,6.594L1163,17.5h21.001l10.748-16.953 M881.999,17.5h18 M982.248,85.688l10.5-17.094l-10.5-17.094h-21.001l-10.748,17.094
	 M941.999,51.5h18 M942.749,85.594L932.001,68.5H911l-6.5,11.047 M842.749,85.594L832.001,68.5H811l-20.5,35.047 M769.999,103.5h40
	 M821,86.688l-10.5,17l6.5,9 M764.5,112.688l6.5-9l-10.5-17 M782.249,85.688l10.5-17.094l-10.5-17.094h-21.001L750.5,68.594
	 M761,17.688l-10.5,16.906L761,51.5h21.001l10.748-16.906 M790.5,103.688l5.454,9 M681.001,51.5l10.499-17l-10.499-17H660l-10.5,17
	l10.5,17H681.001z M731.001,68.5l10.499-17l-10.499-17H710l-10.5,17l10.5,17H731.001z M710,0.688l-10.5,16.906L710,34.5h21.001
	l10.748-16.906 M653.5,6.594L660,17.5h21.001l10.748-16.953 M680.999,17.5h18 M690.999,34.5h60 M741.749,85.594L731.001,68.5H710
	l-20.5,35.047 M669.999,103.5h39 M720,86.688l-10.5,17l6.5,9 M689.5,103.688l5.454,9 M740.999,51.5h20 M681.248,85.688l10.5-17.094
	l-10.5-17.094h-21.001l-10.748,17.094 M631.999,51.5h27 M663.5,112.688l6.5-9l-10.5-17 M1184.001,51.5l10.499-17l-10.499-17H1163
	l-10.5,17l10.5,17H1184.001z M1234.001,68.5l10.499-17l-10.499-17H1213l-10.5,17l10.5,17H1234.001z M1184.248,85.688l10.5-17.094
	l-10.5-17.094h-21.001l-10.748,17.094 M1021.999,86.688l-10.5,16.906l10.5,16.906H1043l10.748-16.906 M1134.001,68.5l10.499-17
	l-10.499-17H1113l-10.5,17l10.5,17H1134.001z M1058,23.688l-6.5,10.906L1062,51.5h21.001l10.499-16.906l-10.499-16.953 M1012,34.688
	l-10.5,16.906L1012,68.5h21.001l10.499-16.906l-6.499-10.953 M1213,0.688l-10.5,16.906L1213,34.5h21.001l10.499-16.906
	l-6.499-10.953 M1144.749,85.594L1134.001,68.5H1113l-20.5,35.047 M1070.999,103.5h41 M1123,86.688l-10.5,17l6.5,9 M1092.5,103.688
	l5.454,9 M1172.999,103.5h40 M1224,86.688l-10.5,17l6.5,9 M1192.5,103.688l5.454,9 M1092.999,34.5h59 M1142.999,51.5h20
	 M1183.999,17.5h18 M1043.749,85.594L1033.001,68.5H1012l-20.5,35.047 M1093.749,68.594L1083.001,51.5H1062l-10.5,17.094l20.5,35
	 M1072,103.688l-10.5,17l6.5,9 M991.999,68.5h59 M1042.999,51.5h19 M1047.954,129.688l-5.454-9 M981.999,103.5h29 M1264,51.688
	l-10.5,17l6.5,9 M1243.999,51.5h20 M1260,25.688l-6.5,9l10.5,17 M1244.749,85.594L1234.001,68.5H1213l-20.5,35.047
	 M1163.374,120.688l10.438-17l-10.563-17 M995.5,129.688l6.5-9l-10.5-17"/>
</svg>
