<?xml version="1.0" encoding="utf-8"?>
<!-- Generator: Adobe Illustrator 16.0.0, SVG Export Plug-In . SVG Version: 6.00 Build 0)  -->
<!DOCTYPE svg PUBLIC "-//W3C//DTD SVG 1.1//EN" "http://www.w3.org/Graphics/SVG/1.1/DTD/svg11.dtd">
<svg version="1.1" id="Layer_1" xmlns="http://www.w3.org/2000/svg" xmlns:xlink="http://www.w3.org/1999/xlink" x="0px" y="0px"
	 width="72px" height="72px" viewBox="0 0 72 72" enable-background="new 0 0 72 72" xml:space="preserve">
<g>
	<path fill="none" stroke="#FF8A65" stroke-miterlimit="10" d="M35.928,29.851l-0.014,0.013l-0.015-0.013
		c-0.661-0.637-1.739-0.637-2.399,0c-0.326,0.314-0.505,0.733-0.505,1.179c0,0.446,0.179,0.864,0.505,1.176l2.123,2.051
		c0.081,0.077,0.185,0.115,0.291,0.115c0.104,0,0.208-0.039,0.288-0.115l2.123-2.051c0.326-0.313,0.505-0.73,0.505-1.176
		c0-0.446-0.179-0.865-0.505-1.179C37.664,29.212,36.589,29.212,35.928,29.851L35.928,29.851z"/>
	<rect x="34.5" y="24.5" fill="none" stroke="#FF8A65" stroke-miterlimit="10" width="3" height="2"/>
	<rect x="34.5" y="19.5" fill="none" stroke="#FF8A65" stroke-miterlimit="10" width="3" height="3"/>
	<path fill="none" stroke="#FF8A65" stroke-miterlimit="10" d="M40.42,9.013c-1.189-0.849-2.89-0.619-3.781,0.514l-0.638,0.811
		l-0.639-0.811c-0.895-1.133-2.59-1.364-3.781-0.514c-0.612,0.438-1.001,1.102-1.069,1.825c-0.069,0.725,0.188,1.445,0.709,1.978
		l4.433,4.54c0.09,0.091,0.216,0.145,0.348,0.145c0.131,0,0.256-0.053,0.345-0.145l4.434-4.54c0.519-0.533,0.778-1.253,0.709-1.978
		C41.418,10.114,41.031,9.45,40.42,9.013L40.42,9.013z M36.001,10.337l0.589,0.746l0.539,0.686c0.324,0.411,0.375,0.948,0.133,1.407
		c-0.24,0.457-0.723,0.741-1.261,0.741c-0.54,0-1.023-0.284-1.265-0.741c-0.24-0.459-0.191-0.997,0.134-1.407l0.542-0.686
		L36.001,10.337z"/>
	<path fill="none" stroke="#FF8A65" stroke-width="2" stroke-miterlimit="10" d="M36.005,38.438c8.021,0,14.524-7.611,14.524-17
		c0-13.019-6.503-17-14.524-17s-14.524,3.981-14.524,17C21.48,30.827,27.983,38.438,36.005,38.438L36.005,38.438z M36.005,38.438"/>
	<path fill="none" stroke="#FF8A65" stroke-width="2" stroke-miterlimit="10" d="M67.421,62.17l-7.178-16.168
		c-0.328-0.742-0.905-1.355-1.623-1.729l-11.139-5.799c-0.25-0.129-0.549-0.098-0.771,0.07c-3.148,2.379-6.851,3.637-10.705,3.637
		s-7.556-1.258-10.704-3.637c-0.224-0.17-0.523-0.199-0.772-0.07L13.39,44.273c-0.721,0.375-1.293,0.984-1.623,1.729L4.626,62.09
		c-0.321,0.721-0.457,1.926-0.273,2.693C4.765,66.506,6.231,68,7.869,68H64.05c0.789,0,1.584-0.597,2.211-1.073
		C67.671,65.854,68.087,63.668,67.421,62.17L67.421,62.17z M67.421,62.6"/>
</g>
<g>
</g>
<g>
</g>
<g>
</g>
<g>
</g>
<g>
</g>
<g>
</g>
</svg>
