<?xml version="1.0" encoding="utf-8"?>
<!-- Generator: Adobe Illustrator 16.0.0, SVG Export Plug-In . SVG Version: 6.00 Build 0)  -->
<!DOCTYPE svg PUBLIC "-//W3C//DTD SVG 1.1//EN" "http://www.w3.org/Graphics/SVG/1.1/DTD/svg11.dtd">
<svg version="1.1" id="Layer_1" xmlns="http://www.w3.org/2000/svg" xmlns:xlink="http://www.w3.org/1999/xlink" x="0px" y="0px"
	 width="144px" height="108px" viewBox="0 0 144 108" enable-background="new 0 0 144 108" xml:space="preserve">
<line fill="none" stroke="#00AFFE" stroke-width="2" stroke-miterlimit="10" x1="62" y1="48" x2="80" y2="48"/>
<polyline fill="none" stroke="#00AFFE" stroke-width="2" stroke-miterlimit="10" points="79,71 79,48.246 78.938,48.314 69.709,36 
	69.643,36 60.998,48.314 61,48.394 61,71 "/>
<line fill="none" stroke="#00AFFE" stroke-width="2" stroke-miterlimit="10" x1="60" y1="66" x2="80" y2="66"/>
<polyline fill="none" stroke="#00AFFE" stroke-width="2" stroke-miterlimit="10" points="55,72 86.186,72 86.316,72 79.313,65.563 
	"/>
<polyline fill="none" stroke="#00AFFE" stroke-width="2" stroke-miterlimit="10" points="84,72 53.412,72 53.282,72 60.019,65.589 
	"/>
<circle opacity="0.5" fill="none" stroke="#2A2B2F" stroke-width="2" stroke-miterlimit="10" cx="70" cy="55.736" r="3"/>
<line fill="none" stroke="#00AFFE" stroke-width="2" stroke-miterlimit="10" x1="66" y1="72" x2="66" y2="77"/>
<line fill="none" stroke="#00AFFE" stroke-width="2" stroke-miterlimit="10" x1="66" y1="81" x2="75" y2="81"/>
<line fill="none" stroke="#00AFFE" stroke-width="2" stroke-miterlimit="10" x1="65" y1="77" x2="76" y2="77"/>
<line fill="none" stroke="#00AFFE" stroke-width="2" stroke-miterlimit="10" x1="75" y1="77" x2="75" y2="72"/>
<polyline fill="none" stroke="#B1B1B1" stroke-miterlimit="10" points="103.191,56.913 97.703,51.5 97.68,51.5 92.191,56.951 "/>
<path fill="none" stroke="#B1B1B1" stroke-miterlimit="10" d="M97.5,52v14 M97.5,67v2 M100.5,63v2 M100.5,71v2 M94.5,60v2 M94.5,69
	v2"/>
<line fill="none" stroke="#00AFFE" stroke-width="2" stroke-miterlimit="10" x1="74" y1="80" x2="74" y2="98"/>
<line fill="none" stroke="#00AFFE" stroke-width="2" stroke-miterlimit="10" x1="67" y1="80" x2="67" y2="97"/>
<path fill="none" stroke="#00AFFE" stroke-width="2" stroke-miterlimit="10" d="M74,97h2.35c2.866-7,9.354-5.09,9.354-5.09
	c1.122-7.534,7.852-6.857,7.852-6.857c8.033,1.221,4.04,10.551,4.04,10.551c4.543,0.708,4.414,7.449,4.414,7.449 M68,97h-2.151
	c-3.015-8-10.671-6.236-10.671-6.236c-9.27,1.396-11.17,12.713-11.17,12.713"/>
<path opacity="0.5" fill="none" stroke="#00AFFE" stroke-width="2" stroke-miterlimit="10" d="M48.722,104.794
	c0,0-0.247-4.225,4.069-5.073c0,0-0.39-3.237,2.785-3.371c0,0,3.287-0.317,3.034,3.652c2.458-0.762,4.825-0.67,6.07,3.905
	 M96.22,104.421c0,0,0-4.105-3.882-5.148c0,0,0.134-1.834-0.99-2.435c0,0-2.899-1.182-4.261,1.814
	c-2.086-1.05-4.574-0.766-6.017,1.587 M79.213,103.967c0,0-1.448-2.462-4.192-1.314c0,0-1-1.965-2.83-0.843
	c0,0-1.963,1.061-0.328,3.19"/>
<polyline fill="none" stroke="#B1B1B1" stroke-miterlimit="10" points="48.191,46.913 42.703,41.5 42.679,41.5 37.191,46.951 "/>
<path fill="none" stroke="#B1B1B1" stroke-miterlimit="10" d="M42.5,42v14 M42.5,57v2 M45.5,53v2 M45.5,61v2 M39.5,50v2 M39.5,59v2"
	/>
<g>
	<path opacity="0.4" fill="none" stroke="#78E381" stroke-linecap="round" stroke-linejoin="round" stroke-miterlimit="10" d="
		M13,18.5h8 M31,18.5h42 M83,18.5h20"/>
	<path opacity="0.4" fill="none" stroke="#78E381" stroke-miterlimit="10" d="M25,18.5h2 M77,18.5h2"/>
	<path opacity="0.4" fill="none" stroke="#78E381" stroke-linecap="round" stroke-linejoin="round" stroke-miterlimit="10" d="
		M31,11.5h19 M60,11.5h52 M125,11.5h15"/>
	<path opacity="0.4" fill="none" stroke="#78E381" stroke-miterlimit="10" d="M54,11.5h2 M116,11.5h5 M118.5,9v5"/>
	
		<line opacity="0.4" fill="none" stroke="#78E381" stroke-linecap="round" stroke-linejoin="round" stroke-miterlimit="10" x1="83" y1="4.5" x2="37" y2="4.5"/>
	
		<line opacity="0.4" fill="none" stroke="#78E381" stroke-linecap="round" stroke-linejoin="round" stroke-miterlimit="10" x1="24" y1="4.5" x2="4" y2="4.5"/>
	<path opacity="0.4" fill="none" stroke="#78E381" stroke-miterlimit="10" d="M33,4.5h-5 M30.5,7V2"/>
	<circle opacity="0.2" fill="#78E381" cx="124" cy="38.736" r="10"/>
	<circle opacity="0.8" fill="none" stroke="#78E381" stroke-miterlimit="10" cx="124.833" cy="29.403" r="4.667"/>
	<circle opacity="0.6" fill="none" stroke="#78E381" stroke-miterlimit="10" cx="12.667" cy="84.403" r="4.667"/>
	<circle opacity="0.8" fill="none" stroke="#78E381" stroke-miterlimit="10" cx="133" cy="45.736" r="7"/>
	<circle opacity="0.8" fill="none" stroke="#78E381" stroke-miterlimit="10" cx="114.5" cy="42.236" r="3.5"/>
</g>
<g>
</g>
<g>
</g>
<g>
</g>
<g>
</g>
<g>
</g>
<g>
</g>
</svg>
