<?xml version="1.0" encoding="utf-8"?>
<!-- Generator: Adobe Illustrator 16.0.0, SVG Export Plug-In . SVG Version: 6.00 Build 0)  -->
<!DOCTYPE svg PUBLIC "-//W3C//DTD SVG 1.1//EN" "http://www.w3.org/Graphics/SVG/1.1/DTD/svg11.dtd">
<svg version="1.1" id="Layer_1" xmlns="http://www.w3.org/2000/svg" xmlns:xlink="http://www.w3.org/1999/xlink" x="0px" y="0px"
	 width="144px" height="108px" viewBox="0 0 144 108" enable-background="new 0 0 144 108" xml:space="preserve">
<g>
	<path opacity="0.4" fill="none" stroke="#23E8E5" stroke-linecap="round" stroke-linejoin="round" stroke-miterlimit="10" d="
		M125,4.5h-8 M107,4.5H65 M55,4.5H35"/>
	<path opacity="0.4" fill="none" stroke="#23E8E5" stroke-miterlimit="10" d="M113,4.5h-2 M61,4.5h-2"/>
	<path opacity="0.4" fill="none" stroke="#23E8E5" stroke-linecap="round" stroke-linejoin="round" stroke-miterlimit="10" d="
		M113,10.5H94 M84,10.5H32 M19,10.5H4"/>
	<path opacity="0.4" fill="none" stroke="#23E8E5" stroke-miterlimit="10" d="M90,10.5h-2 M28,10.5h-5 M25.5,13V8"/>
	
		<line opacity="0.4" fill="none" stroke="#23E8E5" stroke-linecap="round" stroke-linejoin="round" stroke-miterlimit="10" x1="61" y1="17.5" x2="107" y2="17.5"/>
	
		<line opacity="0.4" fill="none" stroke="#23E8E5" stroke-linecap="round" stroke-linejoin="round" stroke-miterlimit="10" x1="120" y1="17.5" x2="140" y2="17.5"/>
	<path opacity="0.4" fill="none" stroke="#23E8E5" stroke-miterlimit="10" d="M111,17.5h5 M113.5,15v5"/>
	<circle opacity="0.8" fill="none" stroke="#23E8E5" stroke-miterlimit="10" cx="118.531" cy="45" r="5.5"/>
	<circle opacity="0.6" fill="none" stroke="#23E8E5" stroke-miterlimit="10" cx="12.031" cy="83.5" r="4"/>
	<circle opacity="0.2" fill="#23E8E5" cx="127.031" cy="54.5" r="13"/>
</g>
<g>
	<rect x="84" y="82" fill="none" stroke="#00AFFE" stroke-width="2" stroke-miterlimit="10" width="22" height="16"/>
	<path fill="none" stroke="#00AFFE" stroke-width="2" stroke-miterlimit="10" d="M106,78H84V36h22V78z M83,72h24"/>
	<path fill="none" stroke="#FF6666" stroke-width="2" stroke-miterlimit="10" d="M91,40h2 M94,40h2 M97,40h2"/>
	<path opacity="0.5" fill="none" stroke="#00AFFE" stroke-miterlimit="10" d="M84.369,96.83L106.031,81 M84.031,81.168L105.988,97"
		/>
	<path opacity="0.3" fill="none" stroke="#2A2B2F" stroke-miterlimit="10" d="M84,101.5h23 M84,104.5h23"/>
	<rect x="37" y="82" fill="none" stroke="#00AFFE" stroke-width="2" stroke-miterlimit="10" width="21" height="16"/>
	<path fill="none" stroke="#00AFFE" stroke-width="2" stroke-miterlimit="10" d="M58,69H37V36h21V69z M36,63h23"/>
	<path opacity="0.3" fill="none" stroke="#2A2B2F" stroke-miterlimit="10" d="M36,72.5h23 M36,75.5h23 M36,78.5h23"/>
	<path fill="none" stroke="#FCB638" stroke-width="2" stroke-miterlimit="10" d="M43,40h2 M46,40h2 M49,40h2"/>
	<path opacity="0.5" fill="none" stroke="#00AFFE" stroke-miterlimit="10" d="M58.031,81L37.354,96.83 M37.031,81.168L57.991,97"/>
	<path opacity="0.3" fill="none" stroke="#2A2B2F" stroke-miterlimit="10" d="M36,101.5h23 M36,104.5h23"/>
	<rect x="61" y="36" fill="none" stroke="#00AFFE" stroke-width="2" stroke-miterlimit="10" width="20" height="16"/>
	<path fill="none" stroke="#00AFFE" stroke-width="2" stroke-miterlimit="10" d="M61,62h20v42H61V62z M81,98H61"/>
	<path fill="none" stroke="#66CC66" stroke-width="2" stroke-miterlimit="10" d="M75,66h-2 M72,66h-2 M69,66h-2"/>
	<path opacity="0.5" fill="none" stroke="#00AFFE" stroke-miterlimit="10" d="M60.531,51l20-15.831 M61.496,35l18.381,15.832"/>
	<path opacity="0.3" fill="none" stroke="#2A2B2F" stroke-miterlimit="10" d="M82,58.5H60 M82,55.5H60"/>
</g>
<g>
</g>
<g>
</g>
<g>
</g>
<g>
</g>
<g>
</g>
<g>
</g>
</svg>
