<?xml version="1.0" encoding="utf-8"?>
<!-- Generator: Adobe Illustrator 16.0.0, SVG Export Plug-In . SVG Version: 6.00 Build 0)  -->
<!DOCTYPE svg PUBLIC "-//W3C//DTD SVG 1.1//EN" "http://www.w3.org/Graphics/SVG/1.1/DTD/svg11.dtd">
<svg version="1.1" id="Layer_1" xmlns="http://www.w3.org/2000/svg" xmlns:xlink="http://www.w3.org/1999/xlink" x="0px" y="0px"
	 width="144px" height="108px" viewBox="0 0 144 108" enable-background="new 0 0 144 108" xml:space="preserve">
<g>
	<rect x="5.5" y="77.5" opacity="0.2" fill="#26FFBF" stroke="#FFFFFF" stroke-miterlimit="10" width="21" height="22"/>
	<g id="squre_9_" opacity="0.8">
		<path fill="#26FFBF" d="M34,72v12H22V72H34 M35,71H21v14h14V71L35,71z"/>
	</g>
	<g id="squre_1_" opacity="0.6">
		<path fill="#26FFBF" d="M133,26v8h-8v-8H133 M134,25h-10v10h10V25L134,25z"/>
	</g>
	<path opacity="0.4" fill="none" stroke="#26FFBF" stroke-linecap="round" stroke-linejoin="round" stroke-miterlimit="10" d="
		M5,4.5h8 M23,4.5h42 M75,4.5h20"/>
	<path opacity="0.4" fill="none" stroke="#26FFBF" stroke-miterlimit="10" d="M17,4.5h2 M69,4.5h2"/>
	<path opacity="0.4" fill="none" stroke="#26FFBF" stroke-linecap="round" stroke-linejoin="round" stroke-miterlimit="10" d="
		M29,10.5h19 M58,10.5h52 M123,10.5h15"/>
	<path opacity="0.4" fill="none" stroke="#26FFBF" stroke-miterlimit="10" d="M52,10.5h2 M114,10.5h5 M116.5,8v5"/>
	
		<line opacity="0.4" fill="none" stroke="#26FFBF" stroke-linecap="round" stroke-linejoin="round" stroke-miterlimit="10" x1="13" y1="17.5" x2="59" y2="17.5"/>
	
		<line opacity="0.4" fill="none" stroke="#26FFBF" stroke-linecap="round" stroke-linejoin="round" stroke-miterlimit="10" x1="72" y1="17.5" x2="92" y2="17.5"/>
	<path opacity="0.4" fill="none" stroke="#26FFBF" stroke-miterlimit="10" d="M63,17.5h5 M65.5,15v5"/>
</g>
<g>
	<rect x="41" y="36" fill="none" stroke="#00AFFE" stroke-width="2" stroke-miterlimit="10" width="61" height="68"/>
	<line fill="none" stroke="#00AFFE" stroke-width="2" stroke-miterlimit="10" x1="42" y1="44" x2="102" y2="44"/>
	<line fill="none" stroke="#00AFFE" stroke-width="2" stroke-miterlimit="10" x1="59" y1="36" x2="59" y2="44"/>
	<line fill="none" stroke="#00AFFE" stroke-width="2" stroke-miterlimit="10" x1="63" y1="40" x2="99" y2="40"/>
	<line fill="none" stroke="#FF6666" stroke-width="2" stroke-miterlimit="10" x1="44" y1="40" x2="46" y2="40"/>
	<line fill="none" stroke="#FCB638" stroke-width="2" stroke-miterlimit="10" x1="49" y1="40" x2="51" y2="40"/>
	<line fill="none" stroke="#66CC66" stroke-width="2" stroke-miterlimit="10" x1="54" y1="40" x2="56" y2="40"/>
	<rect x="44.5" y="47.5" fill="none" stroke="#00AFFE" stroke-miterlimit="10" width="54" height="17"/>
	<rect x="44.5" y="68.5" fill="none" stroke="#00AFFE" stroke-miterlimit="10" width="16" height="12"/>
	<rect x="63.5" y="68.5" fill="none" stroke="#00AFFE" stroke-miterlimit="10" width="16" height="12"/>
	<rect x="82.5" y="68.5" fill="none" stroke="#00AFFE" stroke-miterlimit="10" width="16" height="12"/>
	<path opacity="0.3" fill="none" stroke="#2A2B2F" stroke-miterlimit="10" d="M44,83.5h17 M44,86.5h17 M44,89.5h17"/>
	<path opacity="0.3" fill="none" stroke="#2A2B2F" stroke-miterlimit="10" d="M63,83.5h17 M63,86.5h17 M63,89.5h17"/>
	<path opacity="0.3" fill="none" stroke="#2A2B2F" stroke-miterlimit="10" d="M82,83.5h17 M82,86.5h17 M82,89.5h17"/>
	<path opacity="0.5" fill="none" stroke="#00AFFE" stroke-miterlimit="10" d="M44,93.5h55"/>
	<path fill="none" stroke="#00AFFE" stroke-miterlimit="10" d="M44,96.5h55 M44,99.5h55"/>
	<path opacity="0.3" fill="none" stroke="#2A2B2F" stroke-miterlimit="10" d="M64,57.5h4 M70,57.5h4 M66,54.5h11 M76,57.5h3"/>
</g>
<g>
</g>
<g>
</g>
<g>
</g>
<g>
</g>
<g>
</g>
<g>
</g>
</svg>
