<?xml version="1.0" encoding="utf-8"?>
<!-- Generator: Adobe Illustrator 16.0.0, SVG Export Plug-In . SVG Version: 6.00 Build 0)  -->
<!DOCTYPE svg PUBLIC "-//W3C//DTD SVG 1.1//EN" "http://www.w3.org/Graphics/SVG/1.1/DTD/svg11.dtd">
<svg version="1.1" id="Layer_1" xmlns="http://www.w3.org/2000/svg" xmlns:xlink="http://www.w3.org/1999/xlink" x="0px" y="0px"
	 width="144px" height="108px" viewBox="0 0 144 108" enable-background="new 0 0 144 108" xml:space="preserve">
<line fill="none" stroke="#00AFFE" stroke-width="2" stroke-miterlimit="10" x1="54" y1="42" x2="68" y2="42"/>
<line fill="none" stroke="#FF6666" stroke-width="2" stroke-miterlimit="10" x1="39" y1="42" x2="41" y2="42"/>
<line fill="none" stroke="#FCB638" stroke-width="2" stroke-miterlimit="10" x1="42" y1="42" x2="44" y2="42"/>
<line fill="none" stroke="#66CC66" stroke-width="2" stroke-miterlimit="10" x1="45" y1="42" x2="47" y2="42"/>
<path opacity="0.5" fill="none" stroke="#00AFFE" stroke-miterlimit="10" d="M63.5,64.5c0,1.104-0.896,2-2,2s-2-0.896-2-2
	s0.896-2,2-2S63.5,63.396,63.5,64.5z M67,67.935c-3.279-0.819-3.279,4.918-6.558,5.737c-3.278,0.82,4.099-2.459-3.278-4.918
	S42,79,42,79"/>
<path fill="none" stroke="#00AFFE" stroke-width="2" stroke-miterlimit="10" d="M71,34v6 M71,48v4 M71,54v6 M71,42v4 M71,62v4
	 M71,68v4 M71,74v8 M71,84v8 M71,99v6 M71,94v3"/>
<path fill="none" stroke="#00AFFE" stroke-width="2" stroke-miterlimit="10" d="M74,38h32 M106,37v66 M106,102H74"/>
<path opacity="0.3" fill="none" stroke="#2A2B2F" stroke-miterlimit="10" d="M74,59.5h28 M74,64.5h28 M74,69.5h28 M74,74.5h28
	 M74,79.5h28 M74,84.5h28 M74,89.5h28 M74,94.5h28"/>
<path fill="none" stroke="#00AFFE" stroke-width="2" stroke-miterlimit="10" d="M79.5,48.5l4,4L79.5,48.5l4-4 M96.5,48.5l-4,4
	L96.5,48.5l-4-4"/>
<path fill="none" stroke="#00AFFE" stroke-miterlimit="10" d="M90.375,43.25l-4.989,10.501"/>
<path fill="none" stroke="#00AFFE" stroke-width="2" stroke-miterlimit="10" d="M35,46h33 M68,38H36 M36,37v66 M36,102h32"/>
<path opacity="0.3" fill="none" stroke="#2A2B2F" stroke-miterlimit="10" d="M41.5,59v21 M41,79.5h26 M41,59.5h26"/>
<path opacity="0.3" fill="none" stroke="#2A2B2F" stroke-miterlimit="10" d="M49.5,90.5h-8v-6h8V90.5z M53,84.5h14 M53,87.5h14
	 M53,90.5h10"/>
<g>
	<g id="poly_1_" opacity="0.8">
		<path fill="#82E3B0" d="M17.019,85l4.047,6.998L17.037,99H8.963l-4.038-7.002L8.963,85H17 M17.614,84H8.385l-4.615,7.998
			L8.385,100h9.229l4.615-8.002L17.614,84L17.614,84z"/>
	</g>
	<g id="poly_3_" opacity="0.6">
		<path fill="#82E3B0" d="M126.923,25l2.269,3.998L126.845,33h-4.612l-2.308-4.002L122.231,25H127 M127.423,24h-5.769l-2.884,4.998
			L121.654,34h5.769l2.884-5.002L127.423,24L127.423,24z"/>
	</g>
	<g id="poly_2_" opacity="0.2">
		<polygon fill="#82E3B0" points="12.654,92 6.31,80.997 12.654,70 25.345,70 31.69,80.997 25.345,92 		"/>
	</g>
	<path opacity="0.4" fill="none" stroke="#82E3B0" stroke-linecap="round" stroke-linejoin="round" stroke-miterlimit="10" d="
		M13,17.5h8 M31,17.5h42 M83,17.5h20"/>
	<path opacity="0.4" fill="none" stroke="#82E3B0" stroke-miterlimit="10" d="M25,17.5h2 M77,17.5h2"/>
	<path opacity="0.4" fill="none" stroke="#82E3B0" stroke-linecap="round" stroke-linejoin="round" stroke-miterlimit="10" d="
		M140,10.5h-19 M111,10.5H59 M46,10.5H31"/>
	<path opacity="0.4" fill="none" stroke="#82E3B0" stroke-miterlimit="10" d="M105,10.5h-2 M43,10.5h-5 M40.5,13V8"/>
	
		<line opacity="0.4" fill="none" stroke="#82E3B0" stroke-linecap="round" stroke-linejoin="round" stroke-miterlimit="10" x1="5" y1="4.5" x2="51" y2="4.5"/>
	
		<line opacity="0.4" fill="none" stroke="#82E3B0" stroke-linecap="round" stroke-linejoin="round" stroke-miterlimit="10" x1="64" y1="4.5" x2="84" y2="4.5"/>
	<path opacity="0.4" fill="none" stroke="#82E3B0" stroke-miterlimit="10" d="M55,4.5h5 M57.5,2v5"/>
</g>
<g>
</g>
<g>
</g>
<g>
</g>
<g>
</g>
<g>
</g>
<g>
</g>
</svg>
