<?xml version="1.0" encoding="utf-8"?>
<!-- Generator: Adobe Illustrator 16.0.0, SVG Export Plug-In . SVG Version: 6.00 Build 0)  -->
<!DOCTYPE svg PUBLIC "-//W3C//DTD SVG 1.1//EN" "http://www.w3.org/Graphics/SVG/1.1/DTD/svg11.dtd">
<svg version="1.1" id="Layer_1" xmlns="http://www.w3.org/2000/svg" xmlns:xlink="http://www.w3.org/1999/xlink" x="0px" y="0px"
	 width="144px" height="108px" viewBox="0 0 144 108" enable-background="new 0 0 144 108" xml:space="preserve">
<g>
	<path opacity="0.4" fill="none" stroke="#0CF1FA" stroke-linecap="round" stroke-linejoin="round" stroke-miterlimit="10" d="
		M138,17.5h-8 M120,17.5H78 M68,17.5H48"/>
	<path opacity="0.4" fill="none" stroke="#0CF1FA" stroke-miterlimit="10" d="M126,17.5h-2 M74,17.5h-2"/>
	<path opacity="0.4" fill="none" stroke="#0CF1FA" stroke-linecap="round" stroke-linejoin="round" stroke-miterlimit="10" d="
		M114,10.5H95 M85,10.5H33 M20,10.5H5"/>
	<path opacity="0.4" fill="none" stroke="#0CF1FA" stroke-miterlimit="10" d="M91,10.5h-2 M29,10.5h-5 M26.5,13V8"/>
	
		<line opacity="0.4" fill="none" stroke="#0CF1FA" stroke-linecap="round" stroke-linejoin="round" stroke-miterlimit="10" x1="130" y1="4.5" x2="84" y2="4.5"/>
	
		<line opacity="0.4" fill="none" stroke="#0CF1FA" stroke-linecap="round" stroke-linejoin="round" stroke-miterlimit="10" x1="71" y1="4.5" x2="51" y2="4.5"/>
	<path opacity="0.4" fill="none" stroke="#0CF1FA" stroke-miterlimit="10" d="M80,4.5h-5 M77.5,7V2"/>
	<polygon opacity="0.2" fill="#0CF1FA" points="7.385,102 24.705,72 42.025,102 	"/>
	<polygon opacity="0.8" fill="none" stroke="#0CF1FA" stroke-miterlimit="10" points="7.045,84.5 15.705,69.5 24.365,84.5 	"/>
	<polygon opacity="0.5" fill="none" stroke="#0CF1FA" stroke-miterlimit="10" points="132.504,32.5 127.002,42.029 121.5,32.5 	"/>
</g>
<g>
	<path opacity="0.3" fill="none" stroke="#2A2B2F" stroke-miterlimit="10" d="M59,60c1-6.34,4-11,12-12"/>
	<line fill="none" stroke="#00AFFE" stroke-width="2" stroke-miterlimit="10" x1="62" y1="96" x2="81" y2="96"/>
	<line fill="none" stroke="#00AFFE" stroke-width="2" stroke-miterlimit="10" x1="62" y1="92" x2="81" y2="92"/>
	<line fill="none" stroke="#00AFFE" stroke-width="2" stroke-miterlimit="10" x1="67" y1="104" x2="76" y2="104"/>
	<line fill="none" stroke="#00AFFE" stroke-width="2" stroke-miterlimit="10" x1="62" y1="100" x2="81" y2="100"/>
	<line fill="none" stroke="#00AFFE" stroke-width="2" stroke-miterlimit="10" x1="68" y1="99" x2="68" y2="105"/>
	<line fill="none" stroke="#00AFFE" stroke-width="2" stroke-miterlimit="10" x1="75" y1="105" x2="75" y2="99"/>
	<path opacity="0.5" fill="none" stroke="#B1B1B1" stroke-linecap="round" stroke-miterlimit="10" d="M70.5,38v-4"/>
	<path opacity="0.5" fill="none" stroke="#B1B1B1" stroke-linecap="round" stroke-miterlimit="10" d="M99,62.5h-4"/>
	
		<line opacity="0.5" fill="none" stroke="#B1B1B1" stroke-linecap="round" stroke-miterlimit="10" x1="84.378" y1="39.655" x2="86.623" y2="36.345"/>
	
		<line opacity="0.5" fill="none" stroke="#B1B1B1" stroke-linecap="round" stroke-miterlimit="10" x1="100.844" y1="50.724" x2="97.156" y2="52.276"/>
	
		<line opacity="0.5" fill="none" stroke="#B1B1B1" stroke-linecap="round" stroke-miterlimit="10" x1="96.414" y1="42.086" x2="93.586" y2="44.914"/>
	
		<line opacity="0.5" fill="none" stroke="#B1B1B1" stroke-linecap="round" stroke-miterlimit="10" x1="60.6" y1="36.345" x2="62.845" y2="39.655"/>
	
		<line opacity="0.5" fill="none" stroke="#B1B1B1" stroke-linecap="round" stroke-miterlimit="10" x1="50.066" y1="52.276" x2="46.379" y2="50.724"/>
	
		<line opacity="0.5" fill="none" stroke="#B1B1B1" stroke-linecap="round" stroke-miterlimit="10" x1="53.637" y1="44.914" x2="50.809" y2="42.086"/>
	<path opacity="0.5" fill="none" stroke="#B1B1B1" stroke-linecap="round" stroke-miterlimit="10" d="M48,62.5h-4"/>
	<path fill="#F54F29" d="M82.5,72c0,1.381-1.119,2.5-2.5,2.5s-2.5-1.119-2.5-2.5s1.119-2.5,2.5-2.5S82.5,70.619,82.5,72z"/>
	<path opacity="0.3" fill="none" stroke="#2A2B2F" stroke-miterlimit="10" d="M67,65l4-8 M71,57l8,13"/>
	<circle fill="#FF8A00" cx="71" cy="57" r="2.5"/>
	<circle fill="#8BCC76" cx="66" cy="67" r="2"/>
	<circle opacity="0.3" fill="#2A2B2F" cx="80.5" cy="60.5" r="2"/>
	<path fill="none" stroke="#00AFFE" stroke-width="2" stroke-linecap="round" stroke-miterlimit="10" d="M65,100c0,0,0-1.785,0-7.46
		c0-4.275-1.406-9.634-6.676-16.553c0,0-4.491-7.039-4.491-15.294c0,0,0.033-7.569,5.738-12.977c0,0,5.912-5.631,13.335-5.717
		c0,0,10.009,0.086,14.547,6c0,0,4.124,4,4.124,12.693c0,0-1.064,8.57-6.337,15.334c0,0-7.24,8.482-7.24,16.513V100"/>
	<path opacity="0.5" fill="none" stroke="#B1B1B1" stroke-linecap="round" stroke-miterlimit="10" d="M50.726,69.489l-3.452,2.021"
		/>
	<path opacity="0.5" fill="none" stroke="#B1B1B1" stroke-linecap="round" stroke-miterlimit="10" d="M55.198,78.898l-2.397,3.203"
		/>
	<path opacity="0.5" fill="none" stroke="#B1B1B1" stroke-linecap="round" stroke-miterlimit="10" d="M99.199,71.511l-3.452-2.021"
		/>
	<path opacity="0.5" fill="none" stroke="#B1B1B1" stroke-linecap="round" stroke-miterlimit="10" d="M93.672,82.102l-2.397-3.203"
		/>
</g>
<g>
</g>
<g>
</g>
<g>
</g>
<g>
</g>
<g>
</g>
<g>
</g>
</svg>
