<?xml version="1.0" encoding="utf-8"?>
<!-- Generator: Adobe Illustrator 16.0.0, SVG Export Plug-In . SVG Version: 6.00 Build 0)  -->
<!DOCTYPE svg PUBLIC "-//W3C//DTD SVG 1.1//EN" "http://www.w3.org/Graphics/SVG/1.1/DTD/svg11.dtd">
<svg version="1.1" id="Layer_1" xmlns="http://www.w3.org/2000/svg" xmlns:xlink="http://www.w3.org/1999/xlink" x="0px" y="0px"
	 width="72px" height="72px" viewBox="0 0 72 72" enable-background="new 0 0 72 72" xml:space="preserve">
<path fill="none" stroke="#00DFEA" stroke-miterlimit="10" d="M43,16.5h-7.5V8"/>
<path fill="none" stroke="#00DFEA" stroke-width="2" stroke-miterlimit="10" d="M7,8v34 M42,30V16.177L35.06,9H7 M6,42h9"/>
<line fill="none" stroke="#00DFEA" stroke-width="2" stroke-miterlimit="10" x1="15" y1="34" x2="15" y2="58"/>
<line fill="none" stroke="#00DFEA" stroke-width="2" stroke-miterlimit="10" x1="14" y1="57" x2="51" y2="57"/>
<line fill="none" stroke="#00DFEA" stroke-width="2" stroke-miterlimit="10" x1="50" y1="50" x2="50" y2="57"/>
<circle fill="none" stroke="#00DFEA" stroke-miterlimit="10" cx="44.167" cy="40.083" r="10.833"/>
<circle fill="none" stroke="#00DFEA" stroke-miterlimit="10" cx="44.167" cy="40.083" r="8.417"/>
<line fill="none" stroke="#00DFEA" stroke-width="2" stroke-miterlimit="10" x1="14" y1="35" x2="33" y2="35"/>
<path fill="none" stroke="#00DFEA" stroke-miterlimit="10" d="M14.5,25.5h-3v-3h3V25.5z M16,23.5h21 M14.5,27.5h-3v3h3V27.5z
	 M16,28.5h21"/>
<polygon fill="none" stroke="#00DFEA" stroke-linejoin="round" stroke-miterlimit="10" points="16,11.875 16.944,15.5 20,15.5 
	17.528,17.203 18.472,20.56 16,18.185 13.528,20.357 14.472,17.236 12,15.5 15.056,15.5 "/>
<polyline fill="none" stroke="#00DFEA" stroke-linejoin="round" stroke-miterlimit="10" points="52.828,46.579 62.5,56.333 
	60.75,58.417 50.986,48.5 "/>
<polyline fill="none" stroke="#00DFEA" stroke-width="2" stroke-linejoin="round" stroke-miterlimit="10" points="40.416,38.083 
	45.084,42.833 57.334,30.167 "/>
<path fill="none" stroke="#00DFEA" stroke-miterlimit="10" d="M21.5,41.5h-3v-3h3V41.5z M23,40.5h8"/>
<path fill="none" stroke="#00DFEA" stroke-miterlimit="10" d="M21.5,47.5h-3v-3h3V47.5z M23,46.5h10"/>
<path fill="none" stroke="#00DFEA" stroke-miterlimit="10" d="M21.5,53.5h-3v-3h3V53.5z M23,52.5h17"/>
<path fill="none" stroke="#00DFEA" stroke-miterlimit="10" d="M64.402,11.256l-1.396-0.227c-0.139-0.448-0.348-0.881-0.566-1.293
	l0.758-1.084c0.34-0.476,0.278-1.128-0.135-1.541l-1.174-1.17c-0.223-0.223-0.519-0.345-0.832-0.345
	c-0.246,0-0.481,0.075-0.68,0.218l-1.104,0.786c-0.43-0.227-0.878-0.413-1.342-0.553l-0.219-1.423
	C57.615,4.048,57.115,3.5,56.529,3.5h-1.627c-0.586,0-1.088,0.548-1.186,1.126l-0.228,1.392c-0.444,0.139-0.877,0.353-1.29,0.575
	l-1.091-0.771c-0.198-0.143-0.437-0.21-0.683-0.21c-0.314,0-0.611,0.127-0.83,0.35l-1.171,1.169
	c-0.415,0.413-0.471,1.068-0.13,1.546l0.781,1.098c-0.219,0.416-0.394,0.85-0.528,1.298l-1.172,0.219
	c-0.578,0.098-0.876,0.599-0.876,1.185v1.629c0,0.584,0.297,1.084,0.873,1.182l1.27,0.228c0.139,0.444,0.29,0.877,0.512,1.29
	l-0.781,1.065c-0.344,0.478-0.298,1.134,0.117,1.549l1.165,1.168c0.222,0.222,0.515,0.346,0.827,0.346
	c0.246,0,0.48-0.076,0.678-0.219l1.115-0.794c0.4,0.21,0.821,0.381,1.254,0.517l0.219,1.188c0.096,0.577,0.596,0.876,1.182,0.876
	h1.635c0.586,0,1.086-0.297,1.184-0.874l0.223-1.252c0.449-0.14,0.881-0.287,1.294-0.505l1.099,0.801
	c0.199,0.143,0.438,0.227,0.684,0.227c0.313,0,0.607-0.119,0.83-0.341l1.168-1.166c0.414-0.415,0.469-1.067,0.129-1.545L62.4,16.759
	c0.219-0.416,0.4-0.848,0.535-1.292l1.438-0.219c0.578-0.097,1.127-0.597,1.127-1.184v-1.65
	C65.5,11.839,64.971,11.352,64.402,11.256L64.402,11.256z M64.355,14.177"/>
<path fill="none" stroke="#00DFEA" stroke-miterlimit="10" d="M55.745,16.413c-1.706,0-3.092-1.385-3.092-3.091
	s1.386-3.093,3.092-3.093s3.092,1.387,3.092,3.093S57.451,16.413,55.745,16.413L55.745,16.413z M55.745,16.413"/>
<path fill="none" stroke="#00DFEA" stroke-miterlimit="10" d="M51,61.5H17 M51,67.5H17 M51.5,61v1 M52.5,62v1 M53.5,63v1 M54.5,64v1
	 M53.5,65v1 M52.5,66v1 M51.5,67v1 M50.5,61v7 M48.5,61v7 M19.5,61v7 M17.5,61v7"/>
<g>
</g>
<g>
</g>
<g>
</g>
<g>
</g>
<g>
</g>
<g>
</g>
</svg>
