<?xml version="1.0" encoding="utf-8"?>
<!-- Generator: Adobe Illustrator 16.0.0, SVG Export Plug-In . SVG Version: 6.00 Build 0)  -->
<!DOCTYPE svg PUBLIC "-//W3C//DTD SVG 1.1//EN" "http://www.w3.org/Graphics/SVG/1.1/DTD/svg11.dtd">
<svg version="1.1" id="Layer_1" xmlns="http://www.w3.org/2000/svg" xmlns:xlink="http://www.w3.org/1999/xlink" x="0px" y="0px"
	 width="72px" height="72px" viewBox="0 0 72 72" enable-background="new 0 0 72 72" xml:space="preserve">
<path fill="none" stroke="#64E2A0" stroke-width="2" stroke-miterlimit="10" d="M10.5,18.702l6.688,5.485
	c-12,5.666-3.375,14.332-3.375,14.332l-10,7.125 M20.854,11.688l7.166,6.083c0,0,6-9.083,16.25,0l7.084-6.083 M61.104,18.702
	l-6.5,5.526c0,0,13.416,5.584,2.5,14.5l11.083,6.916 M61.396,60.313l-13.791-12c0,0,0.25,2.916-5.667,6.5
	c-12.25,4.75-17.667-6.5-17.667-6.5l-13.771,12"/>
<path fill="none" stroke="#64E2A0" stroke-miterlimit="10" d="M6.521,52.145l-2.708,2.168 M10.5,49.729l5.104-4.084 M20.021,42.979
	l4.25-3.666 M28.854,36.396l4.666-4.222 M37.688,29.479l4-3.25 M50.438,19.813l-4.417,3.833 M54.604,16.813l3-2.667 M17.604,17.479
	l-3.584-3.25 M24.938,22.979l-4.083-3.833 M48.229,39.063l4.375,3.5 M61.396,49.729l-4.625-4.084 M65.021,52.313l2.75,2
	 M21.104,27.562c-2.025,0-3.667,1.418-3.667,3.167s1.642,3.167,3.667,3.167s3.667-1.418,3.667-3.167S23.129,27.562,21.104,27.562z
	 M36.104,17.645c-1.632,0-2.954,1.213-2.954,2.709s1.322,2.709,2.954,2.709c1.631,0,2.953-1.213,2.953-2.709
	S37.735,17.645,36.104,17.645z M38.149,22.305L23.288,33.272 M28.604,25.313l2.114,2.249 M36.688,40.541
	c-1.88-0.34-3.724,1.15-4.118,3.326c-0.394,2.178,0.812,4.219,2.692,4.559c1.881,0.342,3.725-1.148,4.118-3.326
	S38.568,40.881,36.688,40.541z M51.116,27.287c-1.882-0.34-3.684,0.909-4.024,2.792c-0.34,1.881,0.91,3.683,2.792,4.023
	c1.882,0.34,3.683-0.91,4.023-2.792C54.247,29.429,52.998,27.628,51.116,27.287z M48.521,27.854L33.664,41.641 M41.354,34.718
	l2.083,1.761"/>
<g>
</g>
<g>
</g>
<g>
</g>
<g>
</g>
<g>
</g>
<g>
</g>
</svg>
