<?xml version="1.0" encoding="utf-8"?>
<!-- Generator: Adobe Illustrator 16.0.0, SVG Export Plug-In . SVG Version: 6.00 Build 0)  -->
<!DOCTYPE svg PUBLIC "-//W3C//DTD SVG 1.1//EN" "http://www.w3.org/Graphics/SVG/1.1/DTD/svg11.dtd">
<svg version="1.1" id="Layer_1" xmlns="http://www.w3.org/2000/svg" xmlns:xlink="http://www.w3.org/1999/xlink" x="0px" y="0px"
	 width="72px" height="72px" viewBox="0 0 72 72" enable-background="new 0 0 72 72" xml:space="preserve">
<path fill="none" stroke="#1DE9B6" stroke-width="2" stroke-miterlimit="10" d="M35.854,21.498l-2.394-0.405
	c-0.25-0.805-0.57-1.582-0.961-2.322l1.38-1.933c0.616-0.86,0.518-2.04-0.23-2.787l-2.091-2.09c-0.398-0.399-0.926-0.62-1.488-0.62
	c-0.441,0-0.863,0.135-1.218,0.392l-1.981,1.411c-0.77-0.407-1.573-0.742-2.408-0.992l-0.389-2.315
	c-0.177-1.045-1.081-1.809-2.14-1.809h-2.892c-1.061,0-1.967,0.765-2.145,1.81l-0.406,2.372c-0.797,0.25-1.574,0.577-2.314,0.977
	l-1.958-1.411c-0.357-0.256-0.785-0.391-1.226-0.391c-0.563,0-1.097,0.221-1.489,0.62l-2.093,2.084
	c-0.75,0.748-0.85,1.93-0.235,2.794l1.396,1.958c-0.392,0.748-0.707,1.524-0.948,2.33l-2.314,0.39
	c-1.045,0.177-1.81,1.083-1.81,2.142v2.896c0,1.057,0.763,1.96,1.804,2.138l2.377,0.405c0.25,0.798,0.578,1.575,0.976,2.315
	L7.29,33.358c-0.622,0.864-0.524,2.049,0.228,2.801l2.086,2.087c0.399,0.397,0.926,0.619,1.489,0.619
	c0.441,0,0.862-0.137,1.217-0.393l2.002-1.425c0.72,0.378,1.475,0.685,2.25,0.927l0.391,2.343c0.175,1.044,1.078,1.81,2.136,1.81
	h2.908c1.058,0,1.96-0.764,2.138-1.807l0.397-2.346c0.805-0.249,1.582-0.571,2.323-0.962l1.973,1.41
	c0.356,0.256,0.785,0.392,1.226,0.392c0.563,0,1.089-0.222,1.488-0.619l2.087-2.086c0.75-0.75,0.847-1.932,0.233-2.794l-1.38-1.938
	c0.392-0.748,0.72-1.523,0.961-2.32l2.341-0.391c1.045-0.175,1.812-1.079,1.812-2.14v-2.948
	C37.613,22.546,36.872,21.671,35.854,21.498L35.854,21.498z M36.903,27.608"/>
<path fill="none" stroke="#1DE9B6" stroke-miterlimit="10" d="M20.813,33.603c-4.637,0-8.402-3.764-8.402-8.401
	c0-4.635,3.765-8.402,8.402-8.402c4.634,0,8.4,3.767,8.4,8.402C29.212,29.838,25.446,33.603,20.813,33.603L20.813,33.603z
	 M20.813,33.603"/>
<path fill="none" stroke="#1DE9B6" stroke-width="2" stroke-miterlimit="10" d="M67.082,30.161l-1.944-0.329
	c-0.203-0.655-0.464-1.285-0.781-1.887l1.133-1.587c0.493-0.69,0.414-1.635-0.185-2.234l-1.713-1.711
	c-0.324-0.325-0.752-0.504-1.21-0.504c-0.357,0-0.7,0.11-0.988,0.317l-1.609,1.147c-0.626-0.33-1.279-0.603-1.955-0.806
	l-0.322-1.901c-0.141-0.837-0.865-1.45-1.714-1.45h-2.39c-0.851,0-1.577,0.613-1.72,1.451l-0.332,1.947
	c-0.649,0.203-1.279,0.469-1.881,0.794l-1.592-1.146c-0.29-0.208-0.638-0.319-0.995-0.319c-0.458,0-0.891,0.179-1.209,0.504
	l-1.715,1.708c-0.602,0.6-0.682,1.546-0.189,2.24l1.146,1.607c-0.318,0.607-0.573,1.238-0.771,1.893l-1.899,0.32
	c-0.838,0.142-1.451,0.867-1.451,1.717v2.393c0,0.847,0.611,1.571,1.446,1.714l1.951,0.332c0.202,0.648,0.469,1.28,0.793,1.88
	l-1.124,1.562c-0.497,0.692-0.42,1.644,0.184,2.245l1.711,1.71c0.322,0.323,0.751,0.503,1.209,0.503c0.357,0,0.7-0.111,0.989-0.318
	l1.627-1.158c0.585,0.308,1.197,0.557,1.828,0.754l0.32,1.923c0.14,0.837,0.864,1.45,1.712,1.45h2.404
	c0.847,0,1.571-0.611,1.714-1.448l0.325-1.925c0.655-0.203,1.286-0.465,1.888-0.782l1.603,1.146
	c0.289,0.207,0.637,0.318,0.996,0.318c0.457,0,0.886-0.181,1.21-0.504l1.709-1.71c0.602-0.601,0.681-1.547,0.187-2.239l-1.132-1.59
	c0.318-0.607,0.585-1.237,0.78-1.886l1.924-0.321c0.837-0.14,1.451-0.865,1.451-1.714v-2.417
	C68.512,31.012,67.91,30.302,67.082,30.161L67.082,30.161z M67.924,35.363"/>
<path fill="none" stroke="#1DE9B6" stroke-miterlimit="10" d="M55.025,40.331c-3.715,0-6.732-3.018-6.732-6.733
	c0-3.716,3.018-6.734,6.732-6.734s6.732,3.019,6.732,6.734C61.758,37.313,58.74,40.331,55.025,40.331L55.025,40.331z M55.025,40.331
	"/>
<path fill="none" stroke="#1DE9B6" stroke-miterlimit="10" d="M44.022,51.724l-1.422-0.241c-0.148-0.478-0.339-0.939-0.571-1.378
	l0.814-1.142c0.368-0.516,0.311-1.22-0.137-1.667l-1.236-1.235c-0.236-0.237-0.55-0.367-0.884-0.367
	c-0.262,0-0.512,0.08-0.724,0.231l-1.176,0.838c-0.456-0.241-0.935-0.44-1.43-0.589l-0.229-1.367
	c-0.105-0.624-0.646-1.081-1.279-1.081h-1.701c-0.634,0-1.177,0.457-1.283,1.082l-0.239,1.4c-0.474,0.148-0.935,0.343-1.374,0.58
	l-1.164-0.838c-0.212-0.152-0.466-0.232-0.728-0.232c-0.333,0-0.65,0.132-0.884,0.369l-1.237,1.231
	c-0.448,0.447-0.508,1.154-0.139,1.67l0.823,1.157c-0.233,0.443-0.419,0.905-0.563,1.384l-1.366,0.23
	c-0.625,0.105-1.082,0.646-1.082,1.28v1.703c0,0.633,0.456,1.173,1.079,1.279l1.403,0.239c0.148,0.474,0.343,0.935,0.581,1.374
	l-0.808,1.122c-0.372,0.518-0.314,1.226,0.135,1.676l1.234,1.232c0.237,0.236,0.549,0.369,0.884,0.369
	c0.261,0,0.512-0.082,0.722-0.233l1.188-0.846c0.428,0.224,0.876,0.405,1.337,0.55l0.23,1.383c0.104,0.625,0.646,1.083,1.278,1.083
	h1.71c0.633,0,1.174-0.457,1.279-1.08l0.234-1.386c0.479-0.148,0.94-0.339,1.38-0.571l1.172,0.837
	c0.211,0.152,0.465,0.233,0.728,0.233c0.334,0,0.646-0.132,0.883-0.367l1.234-1.233c0.447-0.448,0.507-1.155,0.14-1.671
	l-0.815-1.146c0.232-0.443,0.428-0.904,0.57-1.377l1.383-0.23c0.625-0.105,1.084-0.646,1.084-1.28v-1.742
	C45.066,52.345,44.626,51.825,44.022,51.724L44.022,51.724z M44.598,56.14"/>
<path fill="none" stroke="#1DE9B6" stroke-miterlimit="10" d="M34.948,58.436c-2.352,0-4.262-1.91-4.262-4.262
	c0-2.353,1.911-4.263,4.262-4.263c2.352,0,4.262,1.91,4.262,4.263C39.21,56.525,37.3,58.436,34.948,58.436L34.948,58.436z
	 M34.948,58.436"/>
<path fill="none" stroke="#1DE9B6" stroke-miterlimit="10" d="M38.131,13.49c0,0,6.394-0.133,10.123,4.129"/>
<path fill="none" stroke="#1DE9B6" stroke-miterlimit="10" d="M58.371,51.26c0,0-2.982,5.656-8.519,6.851"/>
<path fill="none" stroke="#1DE9B6" stroke-miterlimit="10" d="M21.082,57.045c0,0-4.893-4.116-4.885-9.78"/>
<g>
</g>
<g>
</g>
<g>
</g>
<g>
</g>
<g>
</g>
<g>
</g>
</svg>
