<?xml version="1.0" encoding="utf-8"?>
<!-- Generator: Adobe Illustrator 16.0.0, SVG Export Plug-In . SVG Version: 6.00 Build 0)  -->
<!DOCTYPE svg PUBLIC "-//W3C//DTD SVG 1.1//EN" "http://www.w3.org/Graphics/SVG/1.1/DTD/svg11.dtd">
<svg version="1.1" id="Layer_1" xmlns="http://www.w3.org/2000/svg" xmlns:xlink="http://www.w3.org/1999/xlink" x="0px" y="0px"
	 width="72px" height="72px" viewBox="0 0 72 72" enable-background="new 0 0 72 72" xml:space="preserve">
<g>
	<rect x="22" y="31" fill="none" stroke="#FFFFFF" stroke-width="2" stroke-miterlimit="10" width="27" height="12"/>
	<line fill="none" stroke="#FFFFFF" stroke-miterlimit="10" x1="35.5" y1="21.249" x2="35.5" y2="29.249"/>
	<line fill="none" stroke="#23E8E5" stroke-miterlimit="10" x1="12.5" y1="20" x2="12.5" y2="35"/>
	<line fill="none" stroke="#FFFFFF" stroke-miterlimit="10" x1="58.5" y1="20.249" x2="58.5" y2="35.249"/>
	<circle fill="none" stroke="#FFFFFF" stroke-miterlimit="10" cx="36" cy="10.166" r="5.668"/>
	<circle fill="none" stroke="#FFFFFF" stroke-miterlimit="10" cx="59" cy="10.166" r="5.668"/>
	<g>
		<path fill="#F7E967" d="M13,6.498c2.022,0,3.668,1.646,3.668,3.668S15.022,13.834,13,13.834s-3.668-1.646-3.668-3.668
			S10.978,6.498,13,6.498 M13,4.498c-3.131,0-5.668,2.538-5.668,5.668S9.869,15.834,13,15.834s5.668-2.538,5.668-5.668
			S16.131,4.498,13,4.498L13,4.498z"/>
	</g>
	<line fill="none" stroke="#23E8E5" stroke-miterlimit="10" x1="12" y1="34.5" x2="19" y2="34.5"/>
	<line fill="none" stroke="#FFFFFF" stroke-miterlimit="10" x1="52" y1="34.749" x2="59" y2="34.749"/>
	<line fill="none" stroke="#FFFFFF" stroke-miterlimit="10" x1="35.5" y1="53.249" x2="35.5" y2="45.249"/>
	<line fill="none" stroke="#FFFFFF" stroke-miterlimit="10" x1="12.5" y1="53.249" x2="12.5" y2="38.249"/>
	<line fill="none" stroke="#F7E967" stroke-miterlimit="10" x1="58.5" y1="53" x2="58.5" y2="38"/>
	<circle fill="none" stroke="#FFFFFF" stroke-miterlimit="10" cx="36" cy="63.332" r="5.668"/>
	<g>
		<path fill="#23E8E5" d="M59,59.664c2.022,0,3.668,1.646,3.668,3.668S61.022,67,59,67s-3.668-1.646-3.668-3.668
			S56.978,59.664,59,59.664 M59,57.664c-3.131,0-5.668,2.538-5.668,5.668S55.869,69,59,69s5.668-2.538,5.668-5.668
			S62.131,57.664,59,57.664L59,57.664z"/>
	</g>
	<circle fill="none" stroke="#FFFFFF" stroke-miterlimit="10" cx="13" cy="63.332" r="5.668"/>
	<line fill="none" stroke="#FFFFFF" stroke-miterlimit="10" x1="12" y1="38.749" x2="19" y2="38.749"/>
	<line fill="none" stroke="#F7E967" stroke-miterlimit="10" x1="52" y1="38.5" x2="59" y2="38.5"/>
	<line fill="none" stroke="#23E8E5" stroke-width="2" stroke-miterlimit="10" x1="30" y1="35" x2="30" y2="38"/>
	<line fill="none" stroke="#FFFFFF" stroke-miterlimit="10" x1="35.5" y1="35" x2="35.5" y2="38"/>
	<line fill="none" stroke="#F7E967" stroke-width="2" stroke-miterlimit="10" x1="41" y1="35" x2="41" y2="38"/>
	<path fill="none" stroke="#F7E967" stroke-miterlimit="10" d="M58.5,53v1 M59.5,52v1 M60.5,51v1 M61.5,50v1 M62.5,49v1 M57.5,53v-1
		 M56.5,52v-1 M55.5,51v-1 M54.5,50v-1"/>
	<path fill="none" stroke="#FFFFFF" stroke-miterlimit="10" d="M35.5,53v1 M36.5,52v1 M37.5,51v1 M38.5,50v1 M39.5,49v1 M34.5,53v-1
		 M33.5,52v-1 M32.5,51v-1 M31.5,50v-1"/>
	<path fill="none" stroke="#FFFFFF" stroke-miterlimit="10" d="M12.5,53v1 M13.5,52v1 M14.5,51v1 M15.5,50v1 M16.5,49v1 M11.5,53v-1
		 M10.5,52v-1 M9.5,51v-1 M8.5,50v-1"/>
	<path fill="none" stroke="#23E8E5" stroke-miterlimit="10" d="M12.5,20v-1 M11.5,21v-1 M10.5,22v-1 M9.5,23v-1 M8.5,24v-1 M13.5,20
		v1 M14.5,21v1 M15.5,22v1 M16.5,23v1"/>
	<path fill="none" stroke="#FFFFFF" stroke-miterlimit="10" d="M35.5,20v-1 M34.5,21v-1 M33.5,22v-1 M32.5,23v-1 M31.5,24v-1
		 M36.5,20v1 M37.5,21v1 M38.5,22v1 M39.5,23v1"/>
	<path fill="none" stroke="#FFFFFF" stroke-miterlimit="10" d="M58.5,20v-1 M57.5,21v-1 M56.5,22v-1 M55.5,23v-1 M54.5,24v-1
		 M59.5,20v1 M60.5,21v1 M61.5,22v1 M62.5,23v1"/>
</g>
<g>
</g>
<g>
</g>
<g>
</g>
<g>
</g>
<g>
</g>
<g>
</g>
</svg>
