<?xml version="1.0" encoding="utf-8"?>
<!-- Generator: Adobe Illustrator 16.0.0, SVG Export Plug-In . SVG Version: 6.00 Build 0)  -->
<!DOCTYPE svg PUBLIC "-//W3C//DTD SVG 1.1//EN" "http://www.w3.org/Graphics/SVG/1.1/DTD/svg11.dtd">
<svg version="1.1" id="Layer_1" xmlns="http://www.w3.org/2000/svg" xmlns:xlink="http://www.w3.org/1999/xlink" x="0px" y="0px"
	 width="144px" height="108px" viewBox="0 0 144 108" enable-background="new 0 0 144 108" xml:space="preserve">
<g>
	<path opacity="0.2" fill="#00AFFE" d="M68.633,96L43.541,55.637L68.633,12l26.181,43.637L68.633,96z"/>
	<polyline fill="none" stroke="#6F6F6E" stroke-miterlimit="10" points="71.001,79.564 78.669,94.531 103.781,54.294 78.85,12.021 
		69.713,26.996 	"/>
	<g opacity="0.5">
		<g>
			<line fill="none" stroke="#00AFFE" stroke-miterlimit="10" x1="69.713" y1="26.996" x2="68.777" y2="28.764"/>
			
				<line fill="none" stroke="#00AFFE" stroke-miterlimit="10" stroke-dasharray="0,0,0.0096,3.8217,0.0096,0" x1="68.777" y1="28.764" x2="67.448" y2="31.274"/>
			
				<line fill="none" stroke="#00AFFE" stroke-miterlimit="10" stroke-dasharray="3.8409,0,0,0,0.0096,3.8217" x1="66.98" y1="32.158" x2="56.198" y2="52.526"/>
			<polyline fill="none" stroke="#00AFFE" stroke-miterlimit="10" points="56.198,52.526 55.263,54.294 56.32,55.991 			"/>
			
				<line fill="none" stroke="#00AFFE" stroke-miterlimit="10" stroke-dasharray="0,0,0.0092,3.6632,0.0092,0" x1="56.32" y1="55.991" x2="57.738" y2="58.268"/>
			
				<line fill="none" stroke="#00AFFE" stroke-miterlimit="10" stroke-dasharray="3.6816,0,0,0,0.0092,3.6632" x1="58.266" y1="59.116" x2="69.944" y2="77.867"/>
			<line fill="none" stroke="#00AFFE" stroke-miterlimit="10" x1="69.944" y1="77.867" x2="71.001" y2="79.564"/>
		</g>
	</g>
	<circle fill="none" stroke="#F54F29" stroke-miterlimit="10" cx="69" cy="54.5" r="3.5"/>
	
		<line opacity="0.5" fill="none" stroke="#6F6F6E" stroke-miterlimit="10" stroke-dasharray="3,5" x1="74" y1="54.5" x2="109" y2="54.5"/>
	<circle fill="#73D998" cx="113" cy="54.5" r="2.5"/>
	<polygon fill="none" stroke="#2A2B2F" stroke-width="2" stroke-miterlimit="10" points="62.108,94.531 36.218,54.475 
		61.571,14.056 86.441,53.577 	"/>
	<line fill="none" stroke="#00AFFE" stroke-miterlimit="10" x1="31" y1="54.5" x2="64" y2="54.5"/>
	
		<line fill="none" stroke="#868686" stroke-miterlimit="10" stroke-dasharray="4,0,0,0,0,1" x1="101.564" y1="71.243" x2="100.347" y2="74.288"/>
	
		<line fill="none" stroke="#6F6F6E" stroke-miterlimit="10" stroke-dasharray="4,0,0,0,0,1" x1="96.691" y1="78.988" x2="95.474" y2="82.034"/>
	<circle fill="none" stroke="#FF974F" stroke-miterlimit="10" cx="25" cy="54.5" r="4.5"/>
	
		<line fill="none" stroke="#00AFFE" stroke-miterlimit="10" stroke-dasharray="4,0,0,0,0,1" x1="91.819" y1="86.734" x2="90.602" y2="89.78"/>
</g>
<path opacity="0.4" fill="none" stroke="#6F6F6E" stroke-width="2" stroke-linecap="round" stroke-miterlimit="10" stroke-dasharray="5,5,100" d="
	M4,95h50"/>
<path opacity="0.4" fill="none" stroke="#6F6F6E" stroke-width="2" stroke-linecap="round" stroke-miterlimit="10" stroke-dasharray="5,5,100" d="
	M139,95H87"/>
<path opacity="0.4" fill="none" stroke="#6F6F6E" stroke-width="2" stroke-linecap="round" stroke-miterlimit="10" stroke-dasharray="5,5,65,5,10" d="
	M30,102h69"/>
<g>
</g>
<g>
</g>
<g>
</g>
<g>
</g>
<g>
</g>
<g>
</g>
</svg>
