<?xml version="1.0" encoding="utf-8"?>
<!-- Generator: Adobe Illustrator 16.0.0, SVG Export Plug-In . SVG Version: 6.00 Build 0)  -->
<!DOCTYPE svg PUBLIC "-//W3C//DTD SVG 1.1//EN" "http://www.w3.org/Graphics/SVG/1.1/DTD/svg11.dtd">
<svg version="1.1" id="Layer_1" xmlns="http://www.w3.org/2000/svg" xmlns:xlink="http://www.w3.org/1999/xlink" x="0px" y="0px"
	 width="72px" height="72px" viewBox="0 0 72 72" enable-background="new 0 0 72 72" xml:space="preserve">
<g>
	<line fill="none" stroke="#FFFFFF" stroke-miterlimit="10" x1="34.5" y1="18" x2="34.5" y2="15"/>
	<line fill="none" stroke="#FFFFFF" stroke-miterlimit="10" x1="34.5" y1="13" x2="34.5" y2="10"/>
	<path fill="none" stroke="#F7E967" stroke-width="2" stroke-miterlimit="10" d="M31.138,30.746c0,0-6.273-3.658-2.194-10.299
		c5.702-6.177,10.819-1.304,11.6,0.285c0.781,1.588,3.184,6.26-2.446,10.045"/>
	<line fill="none" stroke="#FFFFFF" stroke-miterlimit="10" x1="43.802" y1="27.079" x2="46.759" y2="27.079"/>
	<line fill="none" stroke="#FFFFFF" stroke-miterlimit="10" x1="48.729" y1="27.079" x2="51.686" y2="27.079"/>
	<circle fill="none" stroke="#23E8E5" stroke-width="2" stroke-miterlimit="10" cx="58.336" cy="27.079" r="3.03"/>
	<circle fill="none" stroke="#FFFFFF" stroke-miterlimit="10" cx="34.028" cy="4.994" r="3.941"/>
	<line fill="none" stroke="#23E8E5" stroke-miterlimit="10" x1="25" y1="27.5" x2="22" y2="27.5"/>
	<line fill="none" stroke="#23E8E5" stroke-miterlimit="10" x1="20" y1="27.5" x2="17" y2="27.5"/>
	<circle fill="none" stroke="#FFFFFF" stroke-width="2" stroke-miterlimit="10" cx="11.53" cy="27.079" r="3.03"/>
	<path fill="none" stroke="#FFFFFF" stroke-miterlimit="10" d="M23.353,9.834v7.883c0,0,0.701,2.74,2.86,3.187l0.756,0.193"/>
	<circle fill="none" stroke="#23E8E5" stroke-miterlimit="10" cx="23.19" cy="6.965" r="2.956"/>
	<path fill="none" stroke="#FFFFFF" stroke-miterlimit="10" d="M45.361,9.834v7.883c0,0-0.208,2.74-2.367,3.187l-1.574,0.193"/>
	<circle fill="none" stroke="#F7E967" stroke-miterlimit="10" cx="45.361" cy="6.965" r="2.956"/>
	<path fill="none" stroke="#FFFFFF" stroke-miterlimit="10" d="M38.1,45.959V29.886c0-2.08-1.563-3.776-3.482-3.776
		c-1.915,0-3.479,1.696-3.479,3.776v24.716c0,0.421-0.33,0.762-0.752,0.762l0,0 M39.606,45.959 M30.386,55.364 M34.3,72
		c0.035-1.478-0.675-2.885-0.675-2.885L22.988,58.123c-1.026-1.033-1.713-2.274-1.925-3.497c-0.2-1.129,0.029-2.087,0.646-2.701
		c1.361-1.354,3.617-1.312,5.033,0.111l3.105,3.104c0.294,0.297,0.775,0.297,1.07,0 M48.079,46.822c0,0.42-0.339,0.751-0.763,0.751
		l0,0c-0.412,0-0.749-0.331-0.749-0.751v-3.807c0-1.689-1.563-3.054-3.481-3.054c-1.918,0-3.479,1.373-3.479,3.054v3.807
		c0,0.42-0.333,0.751-0.752,0.751c-0.414,0-0.755-0.331-0.755-0.751v-3.807 M47.316,47.573 M56.537,46.822
		c0,0.42-0.331,0.751-0.751,0.751l0,0c-0.421,0-0.752-0.331-0.752-0.751v-3.179c0-1.313-1.594-2.419-3.481-2.419
		c-1.891,0-3.474,1.105-3.474,2.419v3.179c0,0.42-0.339,0.751-0.763,0.751c-0.412,0-0.749-0.331-0.749-0.751v-3.179 M55.786,47.573
		 M63.5,56.513V46.128c0-2.079-1.563-3.776-3.479-3.776c-2.05,0-3.483,0.98-3.483,1.859v2.611c0,0.412-0.341,0.751-0.751,0.751
		c-0.421,0-0.752-0.339-0.752-0.751v-2.611 M63.098,72v-8.215v-8.537 M33.66,69.073"/>
</g>
<g>
</g>
<g>
</g>
<g>
</g>
<g>
</g>
<g>
</g>
<g>
</g>
</svg>
