<?xml version="1.0" encoding="utf-8"?>
<!-- Generator: Adobe Illustrator 16.0.0, SVG Export Plug-In . SVG Version: 6.00 Build 0)  -->
<!DOCTYPE svg PUBLIC "-//W3C//DTD SVG 1.1//EN" "http://www.w3.org/Graphics/SVG/1.1/DTD/svg11.dtd">
<svg version="1.1" id="Layer_1" xmlns="http://www.w3.org/2000/svg" xmlns:xlink="http://www.w3.org/1999/xlink" x="0px" y="0px"
	 width="72px" height="72px" viewBox="0 0 72 72" enable-background="new 0 0 72 72" xml:space="preserve">
<g>
	<line fill="none" stroke="#FFFFFF" stroke-width="2" stroke-miterlimit="10" x1="13" y1="36" x2="13" y2="28"/>
	<path fill="none" stroke="#FFFFFF" stroke-miterlimit="10" d="M55.5,31v28 M56,31.5H16 M16.5,49v10 M16.5,32v4"/>
	<line fill="none" stroke="#FFFFFF" stroke-width="2" stroke-miterlimit="10" x1="12" y1="28" x2="60" y2="28"/>
	<line fill="none" stroke="#FFFFFF" stroke-width="2" stroke-miterlimit="10" x1="59" y1="27" x2="59" y2="59"/>
	<line fill="none" stroke="#FFFFFF" stroke-width="2" stroke-miterlimit="10" x1="13" y1="49" x2="13" y2="59"/>
	<line fill="none" stroke="#FFFFFF" stroke-width="2" stroke-miterlimit="10" x1="7" y1="60" x2="64" y2="60"/>
	<line fill="none" stroke="#FFFFFF" stroke-width="2" stroke-miterlimit="10" x1="8" y1="59" x2="8" y2="65"/>
	<line fill="none" stroke="#FFFFFF" stroke-width="2" stroke-miterlimit="10" x1="7" y1="64" x2="63" y2="64"/>
	<line fill="none" stroke="#FFFFFF" stroke-width="2" stroke-miterlimit="10" x1="63" y1="59" x2="63" y2="65"/>
	<path fill="none" stroke="#23E8E5" stroke-width="2" stroke-miterlimit="10" d="M3,37h20 M22,37v12 M23,49H3 M4,36v14"/>
	<path fill="none" stroke="#F7E967" stroke-miterlimit="10" d="M7,41.5h12 M7,43.5h7"/>
	<circle fill="none" stroke="#F7E967" stroke-width="2" stroke-miterlimit="10" cx="36.25" cy="45" r="8.375"/>
	<circle fill="none" stroke="#FFFFFF" stroke-miterlimit="10" cx="36.25" cy="44.313" r="2.959"/>
	<path fill="none" stroke="#FFFFFF" stroke-miterlimit="10" d="M12,17.5h17 M25,14.5h9"/>
	<path fill="none" stroke="#23E8E5" stroke-miterlimit="10" d="M46.5,24v2 M46.5,33v2 M48,36.5h-2 M51,36.5h-2 M54,36.5h-2 M46.5,23
		v-2 M46.5,20v-2 M48,18.5h2 M51,18.5h2 M54,18.5h2 M57,18.5h2 M60,18.5h2 M63,18.5h2 M64.5,20v2 M64.5,23v2 M64.5,26v2 M64.5,29v2
		 M64.5,32v2 M64.5,35v2 M63,36.5h-2"/>
	<path fill="none" stroke="#FFFFFF" stroke-miterlimit="10" d="M29.334,51c0,0,6.666-5.583,12.916,0.709"/>
	<path fill="none" stroke="#FFFFFF" stroke-miterlimit="10" d="M65,38.5h1 M66,39.5h1 M67,40.5h1 M68,41.5h1 M67,41.5h1 M66,41.5h1
		 M65,42.5h1 M65,41.5h1 M65,40.5h1 M65,39.5h1 M67,43.5h1"/>
</g>
<g>
</g>
<g>
</g>
<g>
</g>
<g>
</g>
<g>
</g>
<g>
</g>
</svg>
