<?xml version="1.0" encoding="utf-8"?>
<!-- Generator: Adobe Illustrator 16.0.0, SVG Export Plug-In . SVG Version: 6.00 Build 0)  -->
<!DOCTYPE svg PUBLIC "-//W3C//DTD SVG 1.1//EN" "http://www.w3.org/Graphics/SVG/1.1/DTD/svg11.dtd">
<svg version="1.1" id="Layer_1" xmlns="http://www.w3.org/2000/svg" xmlns:xlink="http://www.w3.org/1999/xlink" x="0px" y="0px"
	 width="72px" height="72px" viewBox="0 0 72 72" enable-background="new 0 0 72 72" xml:space="preserve">
<g>
	<rect x="4" y="4" fill="none" stroke="#23E8E5" stroke-width="2" stroke-miterlimit="10" width="9" height="9"/>
	<rect x="60" y="4" fill="none" stroke="#FFFFFF" stroke-width="2" stroke-miterlimit="10" width="9" height="9"/>
	<rect x="4" y="60" fill="none" stroke="#FFFFFF" stroke-width="2" stroke-miterlimit="10" width="9" height="9"/>
	<rect x="60" y="60" fill="none" stroke="#F7E967" stroke-width="2" stroke-miterlimit="10" width="9" height="9"/>
	<circle fill="none" stroke="#FFFFFF" stroke-width="2" stroke-miterlimit="10" cx="36" cy="36.5" r="14"/>
	<path fill="none" stroke="#FFFFFF" stroke-miterlimit="10" d="M7.5,15v4 M7.5,21v4 M7.5,27v4 M7.5,33v4 M7.5,39v4 M7.5,44v3
		 M7.5,48v4 M7.5,54v4"/>
	<path fill="none" stroke="#FFFFFF" stroke-miterlimit="10" d="M58,8.5h-4 M52,8.5h-4 M46,8.5h-4 M40,8.5h-4 M34,8.5h-4 M29,8.5h-3
		 M25,8.5h-4 M19,8.5h-4"/>
	<path fill="none" stroke="#23E8E5" stroke-miterlimit="10" d="M58,64.5h-4 M52,64.5h-4 M46,64.5h-4 M40,64.5h-3 M35,64.5h-4
		 M30,64.5h-3 M26,64.5h-4 M20,64.5h-4"/>
	<path fill="none" stroke="#23E8E5" stroke-miterlimit="10" d="M64.5,15v4 M64.5,21v4 M64.5,27v4 M64.5,33v4 M64.5,39v4 M64.5,44v3
		 M64.5,48v4 M64.5,54v4"/>
	<line fill="none" stroke="#FFFFFF" stroke-miterlimit="10" x1="52.5" y1="18.5" x2="19.5" y2="53.5"/>
	<line fill="none" stroke="#FFFFFF" stroke-miterlimit="10" x1="19.5" y1="18.5" x2="52.5" y2="53.5"/>
	<line fill="none" stroke="#FFFFFF" stroke-miterlimit="10" x1="18.5" y1="17" x2="18.5" y2="25"/>
	<line fill="none" stroke="#FFFFFF" stroke-miterlimit="10" x1="18" y1="17.5" x2="26" y2="17.5"/>
	<line fill="none" stroke="#FFFFFF" stroke-miterlimit="10" x1="54" y1="17.5" x2="46" y2="17.5"/>
	<line fill="none" stroke="#FFFFFF" stroke-miterlimit="10" x1="53.5" y1="17" x2="53.5" y2="25"/>
	<line fill="none" stroke="#FFFFFF" stroke-miterlimit="10" x1="53.5" y1="55" x2="53.5" y2="47"/>
	<line fill="none" stroke="#FFFFFF" stroke-miterlimit="10" x1="54" y1="54.5" x2="46" y2="54.5"/>
	<line fill="none" stroke="#FFFFFF" stroke-miterlimit="10" x1="18" y1="54.5" x2="26" y2="54.5"/>
	<line fill="none" stroke="#FFFFFF" stroke-miterlimit="10" x1="18.5" y1="55" x2="18.5" y2="47"/>
	<line fill="none" stroke="#23E8E5" stroke-width="2" stroke-miterlimit="10" x1="34" y1="27" x2="36" y2="27"/>
	<line fill="none" stroke="#23E8E5" stroke-width="2" stroke-miterlimit="10" x1="37" y1="45" x2="35" y2="45"/>
	<path fill="none" stroke="#F7E967" stroke-width="2" stroke-miterlimit="10" d="M45,35v2 M27,38v-2"/>
</g>
<g>
</g>
<g>
</g>
<g>
</g>
<g>
</g>
<g>
</g>
<g>
</g>
</svg>
