<?xml version="1.0" encoding="utf-8"?>
<!-- Generator: Adobe Illustrator 16.0.0, SVG Export Plug-In . SVG Version: 6.00 Build 0)  -->
<!DOCTYPE svg PUBLIC "-//W3C//DTD SVG 1.1//EN" "http://www.w3.org/Graphics/SVG/1.1/DTD/svg11.dtd">
<svg version="1.1" id="Layer_1" xmlns="http://www.w3.org/2000/svg" xmlns:xlink="http://www.w3.org/1999/xlink" x="0px" y="0px"
	 width="72px" height="72px" viewBox="0 0 72 72" enable-background="new 0 0 72 72" xml:space="preserve">
<g>
	<line fill="none" stroke="#23E8E5" stroke-miterlimit="10" x1="17" y1="13.5" x2="70" y2="13.5"/>
	<line fill="none" stroke="#FFFFFF" stroke-miterlimit="10" x1="29" y1="47.5" x2="70" y2="47.5"/>
	<line fill="none" stroke="#FFFFFF" stroke-miterlimit="10" x1="32" y1="33.5" x2="66" y2="33.5"/>
	<line fill="none" stroke="#FFFFFF" stroke-miterlimit="10" x1="37" y1="29.5" x2="66" y2="29.5"/>
	<line fill="none" stroke="#FFFFFF" stroke-miterlimit="10" x1="32" y1="37.5" x2="66" y2="37.5"/>
	<line fill="none" stroke="#FFFFFF" stroke-miterlimit="10" x1="33" y1="57.5" x2="53" y2="57.5"/>
	<line fill="none" stroke="#FFFFFF" stroke-miterlimit="10" x1="33" y1="61.5" x2="53" y2="61.5"/>
	<line fill="none" stroke="#FFFFFF" stroke-miterlimit="10" x1="32" y1="41.5" x2="66" y2="41.5"/>
	<rect x="37.5" y="19.5" fill="none" stroke="#23E8E5" stroke-miterlimit="10" width="6" height="6"/>
	<rect x="48.5" y="19.5" fill="none" stroke="#FFFFFF" stroke-miterlimit="10" width="6" height="6"/>
	<rect x="59.5" y="19.5" fill="none" stroke="#F7E967" stroke-miterlimit="10" width="6" height="6"/>
	<path fill="none" stroke="#FFFFFF" stroke-width="2" stroke-miterlimit="10" d="M17,9h53 M29,52h41 M69,8v44 M17,8v13"/>
	<line fill="none" stroke="#FFFFFF" stroke-width="2" stroke-miterlimit="10" x1="43" y1="51" x2="43" y2="58"/>
	<line fill="none" stroke="#FFFFFF" stroke-miterlimit="10" x1="52.5" y1="57" x2="52.5" y2="62"/>
	<line fill="none" stroke="#FFFFFF" stroke-miterlimit="10" x1="33.5" y1="57" x2="33.5" y2="62"/>
	<line fill="none" stroke="#FFFFFF" stroke-miterlimit="10" x1="3" y1="27.5" x2="28" y2="27.5"/>
	<line fill="none" stroke="#F7E967" stroke-miterlimit="10" x1="16" y1="51.5" x2="23" y2="51.5"/>
	<line fill="none" stroke="#F7E967" stroke-miterlimit="10" x1="16" y1="54.5" x2="23" y2="54.5"/>
	<line fill="none" stroke="#FFFFFF" stroke-miterlimit="10" x1="8" y1="41.5" x2="23" y2="41.5"/>
	<line fill="none" stroke="#FFFFFF" stroke-miterlimit="10" x1="8" y1="44.5" x2="23" y2="44.5"/>
	<line fill="none" stroke="#FFFFFF" stroke-miterlimit="10" x1="3" y1="58.5" x2="28" y2="58.5"/>
	<path fill="none" stroke="#FFFFFF" stroke-width="2" stroke-miterlimit="10" d="M4,22v42 M3,23h25 M3,63h25 M27,22v41"/>
	<line fill="none" stroke="#23E8E5" stroke-miterlimit="10" x1="14" y1="25.5" x2="17" y2="25.5"/>
	<line fill="none" stroke="#23E8E5" stroke-miterlimit="10" x1="13" y1="60.5" x2="18" y2="60.5"/>
	<rect x="8.5" y="31.5" fill="none" stroke="#23E8E5" stroke-miterlimit="10" width="5" height="5"/>
	<rect x="8.5" y="49.5" fill="none" stroke="#F7E967" stroke-miterlimit="10" width="5" height="5"/>
	<rect x="17.5" y="31.5" fill="none" stroke="#FFFFFF" stroke-miterlimit="10" width="5" height="5"/>
	<line fill="none" stroke="#23E8E5" stroke-miterlimit="10" x1="20" y1="11.5" x2="22" y2="11.5"/>
	<line fill="none" stroke="#23E8E5" stroke-miterlimit="10" x1="24" y1="11.5" x2="26" y2="11.5"/>
	<line fill="none" stroke="#23E8E5" stroke-miterlimit="10" x1="28" y1="11.5" x2="30" y2="11.5"/>
</g>
<g>
</g>
<g>
</g>
<g>
</g>
<g>
</g>
<g>
</g>
<g>
</g>
</svg>
