<?xml version="1.0" encoding="utf-8"?>
<!-- Generator: Adobe Illustrator 16.0.0, SVG Export Plug-In . SVG Version: 6.00 Build 0)  -->
<!DOCTYPE svg PUBLIC "-//W3C//DTD SVG 1.1//EN" "http://www.w3.org/Graphics/SVG/1.1/DTD/svg11.dtd">
<svg version="1.1" id="Layer_1" xmlns="http://www.w3.org/2000/svg" xmlns:xlink="http://www.w3.org/1999/xlink" x="0px" y="0px"
	 width="108px" height="108px" viewBox="0 0 108 108" enable-background="new 0 0 108 108" xml:space="preserve">
<g>
	<line fill="none" stroke="#26FFBF" stroke-miterlimit="10" x1="35.5" y1="39" x2="35.5" y2="33"/>
	<line fill="none" stroke="#26FFBF" stroke-miterlimit="10" x1="35" y1="33.5" x2="51" y2="33.5"/>
	<line fill="none" stroke="#26FFBF" stroke-miterlimit="10" x1="50.5" y1="33" x2="50.5" y2="39"/>
	<path fill="none" stroke="#FFFFFF" stroke-miterlimit="10" d="M30,38.5h50 M54.5,30v9"/>
	<line fill="none" stroke="#FFFFFF" stroke-miterlimit="10" x1="37.5" y1="83" x2="37.5" y2="90"/>
	<path fill="none" stroke="#FFFFFF" stroke-miterlimit="10" d="M59,33.5h7 M59.5,33v6 M65.5,33v6 M68,33.5h7 M68.5,33v6 M74.5,33v6"
		/>
	<path fill="none" stroke="#FFD34E" stroke-width="2" stroke-miterlimit="10" d="M31,29h49 M30,91h50 M31,28v40 M31,83v8 M79,28v27
		 M79,91V70"/>
	<rect x="37.5" y="43.5" fill="none" stroke="#FFFFFF" stroke-miterlimit="10" width="9" height="9"/>
	<rect x="50.5" y="43.5" fill="none" stroke="#FFFFFF" stroke-miterlimit="10" width="9" height="9"/>
	<rect x="63.5" y="43.5" fill="none" stroke="#FFFFFF" stroke-miterlimit="10" width="9" height="9"/>
	<line fill="none" stroke="#FFFFFF" stroke-miterlimit="10" x1="37" y1="57.5" x2="53" y2="57.5"/>
	<line fill="none" stroke="#FFFFFF" stroke-miterlimit="10" x1="37" y1="61.5" x2="61" y2="61.5"/>
	<line fill="none" stroke="#FFFFFF" stroke-miterlimit="10" x1="37" y1="65.5" x2="61" y2="65.5"/>
	<line fill="none" stroke="#FFFFFF" stroke-miterlimit="10" x1="72.5" y1="90" x2="72.5" y2="77"/>
	<line fill="none" stroke="#FFFFFF" stroke-miterlimit="10" x1="73" y1="77.5" x2="47" y2="77.5"/>
	<path fill="none" stroke="#23E8E5" stroke-miterlimit="10" d="M61,83.5h-3 M56,83.5h-2 M52,83.5h-3"/>
	<polygon fill="none" stroke="#FFFFFF" stroke-miterlimit="10" points="87.5,56.5 63.5,56.5 63.5,68.5 80.405,68.5 82.19,68.5 
		83.729,68.5 87.5,68.5 	"/>
	<polygon fill="none" stroke="#FFFFFF" stroke-miterlimit="10" points="23.5,69.5 45.5,69.5 45.5,81.5 29.303,81.5 27.318,81.5 
		25.726,81.5 23.5,81.5 	"/>
	<path fill="none" stroke="#23E8E5" stroke-miterlimit="10" d="M67.5,60v5 M69.5,60v5 M72.5,60v5 M75.5,60v5 M77.5,60v5 M79.5,60v5
		 M81.5,60v5 M68,62.5h2 M71,60.5h3 M81,64.5h3 M75,60.5h5"/>
	<line fill="none" stroke="#23E8E5" stroke-miterlimit="10" x1="41.5" y1="73" x2="41.5" y2="78"/>
	<path fill="none" stroke="#23E8E5" stroke-miterlimit="10" d="M39,73.5h3 M40,75.5h2 M39,77.5h3 M35,73.5h3 M35,75.5h3 M35,77.5h3
		 M31,73.5h3 M31,75.5h3 M31,77.5h3 M27,73.5h3 M27,77.5h3 M31.5,73v3 M33.5,75v3 M35.5,73v3 M37.5,75v3 M27.5,73v5"/>
</g>
<g>
</g>
<g>
</g>
<g>
</g>
<g>
</g>
<g>
</g>
<g>
</g>
</svg>
