<?xml version="1.0" encoding="utf-8"?>
<!-- Generator: Adobe Illustrator 16.0.0, SVG Export Plug-In . SVG Version: 6.00 Build 0)  -->
<!DOCTYPE svg PUBLIC "-//W3C//DTD SVG 1.1//EN" "http://www.w3.org/Graphics/SVG/1.1/DTD/svg11.dtd">
<svg version="1.1" id="Layer_1" xmlns="http://www.w3.org/2000/svg" xmlns:xlink="http://www.w3.org/1999/xlink" x="0px" y="0px"
	 width="108px" height="108px" viewBox="0 0 108 108" enable-background="new 0 0 108 108" xml:space="preserve">
<polyline fill="none" stroke="#FFFFFF" stroke-miterlimit="10" points="57.2,49.31 64.48,40 76.8,54 "/>
<polyline fill="none" stroke="#FFFFFF" stroke-miterlimit="10" points="70,47 79.193,37.517 86,42.947 "/>
<path fill="none" stroke="#FFFFFF" stroke-width="2" stroke-miterlimit="10" d="M21,55h26 M22,27h30 M22,26v30 M51,26v25"/>
<path fill="none" stroke="#FFD34E" stroke-width="2" stroke-miterlimit="10" d="M57,27h30 M61,55h26 M57,26v25 M86,26v29"/>
<path fill="none" stroke="#FFD34E" stroke-width="2" stroke-miterlimit="10" d="M21,61h26 M22,89h30 M22,60v30 M51,65v24"/>
<path fill="none" stroke="#FFD34E" stroke-width="2" stroke-miterlimit="10" d="M57,65v25 M61,61h26 M57,89h30 M86,60v29"/>
<rect x="50.5" y="54.5" fill="none" stroke="#26FFBF" stroke-miterlimit="10" width="7" height="7"/>
<circle fill="none" stroke="#26FFBF" stroke-miterlimit="10" cx="69" cy="34.5" r="2.5"/>
<path fill="none" stroke="#FFFFFF" stroke-miterlimit="10" d="M30.5,34v3 M30,34.5h13 M36.5,34v12 M34,46.5h5 M42.5,34v3"/>
<path fill="none" stroke="#26FFBF" stroke-miterlimit="10" d="M28,82.5h8"/>
<path fill="none" stroke="#FFFFFF" stroke-miterlimit="10" d="M28,67.5h17 M28,70.5h17 M28,73.5h17 M28,76.5h17 M28,79.5h12"/>
<line fill="none" stroke="#26FFBF" stroke-miterlimit="10" x1="61" y1="84.5" x2="82" y2="84.5"/>
<path fill="none" stroke="#FFFFFF" stroke-miterlimit="10" d="M79.911,68.811l-10.05,10.051 M64.607,73.607l9.296-9.081
	 M65.312,73.707l4.95,4.95 M79,64.526L68.826,75.069 M65,74l-2,7l7-2"/>
<g>
</g>
<g>
</g>
<g>
</g>
<g>
</g>
<g>
</g>
<g>
</g>
</svg>
