<?xml version="1.0" encoding="utf-8"?>
<!-- Generator: Adobe Illustrator 16.0.0, SVG Export Plug-In . SVG Version: 6.00 Build 0)  -->
<!DOCTYPE svg PUBLIC "-//W3C//DTD SVG 1.1//EN" "http://www.w3.org/Graphics/SVG/1.1/DTD/svg11.dtd">
<svg version="1.1" id="Layer_1" xmlns="http://www.w3.org/2000/svg" xmlns:xlink="http://www.w3.org/1999/xlink" x="0px" y="0px"
	 width="108px" height="108px" viewBox="0 0 108 108" enable-background="new 0 0 108 108" xml:space="preserve">
<path fill="none" stroke="#FFFFFF" stroke-miterlimit="10" d="M37.5,50v8 M47.5,50v8 M33,57.5h19"/>
<path fill="none" stroke="#FFFFFF" stroke-miterlimit="10" d="M23,45.5h40 M65,86.5h20 M25,86.5h15"/>
<path fill="none" stroke="#FFD34E" stroke-width="2" stroke-miterlimit="10" d="M62,51H23V26h39V51z"/>
<path fill="none" stroke="#FFFFFF" stroke-width="2" stroke-miterlimit="10" d="M84,90H66V64h18V90z"/>
<path fill="none" stroke="#FFD34E" stroke-width="2" stroke-miterlimit="10" d="M39,90H26V70h13V90z"/>
<path fill="none" stroke="#FFFFFF" stroke-miterlimit="10" d="M69,37.5h6 M74.5,37v21 M74.5,58v1 M75.5,57v1 M76.5,56v1 M77.5,55v1
	 M78.5,54v1 M73.5,58v-1 M72.5,57v-1 M71.5,56v-1 M70.5,55v-1"/>
<path fill="none" stroke="#FFFFFF" stroke-miterlimit="10" d="M62,78.5H46 M46,78.5h-1 M47,79.5h-1 M48,80.5h-1 M49,81.5h-1
	 M50,82.5h-1 M46,77.5h1 M47,76.5h1 M48,75.5h1 M49,74.5h1"/>
<path fill="none" stroke="#FFFFFF" stroke-miterlimit="10" d="M32.5,63v-1 M31.5,64v-1 M30.5,65v-1 M29.5,66v-1 M28.5,67v-1
	 M33.5,63v1 M34.5,64v1 M35.5,65v1 M36.5,66v1"/>
<path fill="none" stroke="#26FFBF" stroke-miterlimit="10" d="M41.5,39v1 M42.5,38v1 M43.5,37v1 M44.5,36v1"/>
<path fill="none" stroke="#26FFBF" stroke-miterlimit="10" d="M37.5,39v1 M38.5,38v1 M39.5,37v1 M40.5,36v1 M41.5,35v1 M42.5,34v1
	 M43.5,33v1 M44.5,32v1"/>
<path fill="none" stroke="#26FFBF" stroke-miterlimit="10" d="M72.5,77v1 M73.5,76v1 M74.5,75v1 M75.5,74v1 M76.5,73v1 M77.5,72v1"
	/>
<path fill="none" stroke="#26FFBF" stroke-miterlimit="10" d="M31.5,79v1 M32.5,78v1 M33.5,77v1"/>
<g>
</g>
<g>
</g>
<g>
</g>
<g>
</g>
<g>
</g>
<g>
</g>
</svg>
