<?xml version="1.0" encoding="utf-8"?>
<!-- Generator: Adobe Illustrator 16.0.0, SVG Export Plug-In . SVG Version: 6.00 Build 0)  -->
<!DOCTYPE svg PUBLIC "-//W3C//DTD SVG 1.1//EN" "http://www.w3.org/Graphics/SVG/1.1/DTD/svg11.dtd">
<svg version="1.1" id="Layer_1" xmlns="http://www.w3.org/2000/svg" xmlns:xlink="http://www.w3.org/1999/xlink" x="0px" y="0px"
	 width="108px" height="108px" viewBox="0 0 108 108" enable-background="new 0 0 108 108" xml:space="preserve">
<line fill="none" stroke="#26FFBF" stroke-width="2" stroke-miterlimit="10" x1="54" y1="34" x2="73" y2="34"/>
<line fill="none" stroke="#26FFBF" stroke-width="2" stroke-miterlimit="10" x1="72" y1="33" x2="72" y2="54"/>
<path fill="none" stroke="#FFD34E" stroke-width="2" stroke-miterlimit="10" d="M22,46v44 M21,89h48 M37,89V37 M51,89V46 M68,90V56
	 M21,47h15 M37,38h14"/>
<circle fill="none" stroke="#FFFFFF" stroke-miterlimit="10" cx="67.956" cy="39" r="15"/>
<polyline fill="none" stroke="#FFFFFF" stroke-miterlimit="10" points="79.647,47.602 89.044,55 87.044,58 77.647,50.602 "/>
<line fill="none" stroke="#FFFFFF" stroke-miterlimit="10" x1="41" y1="56.5" x2="47" y2="56.5"/>
<line fill="none" stroke="#FFFFFF" stroke-miterlimit="10" x1="41" y1="60.5" x2="47" y2="60.5"/>
<line fill="none" stroke="#FFFFFF" stroke-miterlimit="10" x1="43" y1="79.5" x2="45" y2="79.5"/>
<path fill="none" stroke="#FFFFFF" stroke-miterlimit="10" d="M29.5,52v12 M59.5,57v9"/>
<path fill="none" stroke="#26FFBF" stroke-miterlimit="10" d="M29.5,78v2 M59.5,78v3"/>
<g>
</g>
<g>
</g>
<g>
</g>
<g>
</g>
<g>
</g>
<g>
</g>
</svg>
