<?xml version="1.0" encoding="utf-8"?>
<!-- Generator: Adobe Illustrator 16.0.0, SVG Export Plug-In . SVG Version: 6.00 Build 0)  -->
<!DOCTYPE svg PUBLIC "-//W3C//DTD SVG 1.1//EN" "http://www.w3.org/Graphics/SVG/1.1/DTD/svg11.dtd">
<svg version="1.1" id="Layer_1" xmlns="http://www.w3.org/2000/svg" xmlns:xlink="http://www.w3.org/1999/xlink" x="0px" y="0px"
	 width="108px" height="108px" viewBox="0 0 108 108" enable-background="new 0 0 108 108" xml:space="preserve">
<g>
	<line fill="none" stroke="#FFFFFF" stroke-miterlimit="10" x1="19" y1="47.5" x2="75" y2="47.5"/>
	<line fill="none" stroke="#FFFFFF" stroke-miterlimit="10" x1="19" y1="76.5" x2="75" y2="76.5"/>
	<line fill="none" stroke="#FFFFFF" stroke-miterlimit="10" x1="46" y1="79.5" x2="48" y2="79.5"/>
	<line fill="none" stroke="#FFFFFF" stroke-miterlimit="10" x1="41.5" y1="82" x2="41.5" y2="87"/>
	<line fill="none" stroke="#FFFFFF" stroke-miterlimit="10" x1="53.5" y1="82" x2="53.5" y2="87"/>
	<line fill="none" stroke="#FFFFFF" stroke-miterlimit="10" x1="37" y1="86.5" x2="58" y2="86.5"/>
	<line fill="none" stroke="#FFFFFF" stroke-miterlimit="10" x1="36" y1="89.5" x2="58" y2="89.5"/>
	<line fill="none" stroke="#FFFFFF" stroke-miterlimit="10" x1="36.5" y1="86" x2="36.5" y2="90"/>
	<line fill="none" stroke="#FFFFFF" stroke-miterlimit="10" x1="57.5" y1="86" x2="57.5" y2="90"/>
	<circle fill="none" stroke="#FFFFFF" stroke-miterlimit="10" cx="47.979" cy="60.622" r="10.079"/>
	<line fill="none" stroke="#FFFFFF" stroke-miterlimit="10" x1="37" y1="61.5" x2="58" y2="61.5"/>
	<path fill="none" stroke="#FFFFFF" stroke-miterlimit="10" d="M42.415,52.219c0,0-1.625,12.643,0.486,17.105"/>
	<path fill="none" stroke="#FFFFFF" stroke-miterlimit="10" d="M46.685,50.543c0,0-1.625,15.12,0.486,20.457"/>
	<path fill="none" stroke="#FFFFFF" stroke-miterlimit="10" d="M52.864,69.324c2.111-4.463,0.486-17.105,0.486-17.105"/>
	<path fill="none" stroke="#FFFFFF" stroke-miterlimit="10" d="M48.595,71c2.111-5.337,0.486-20.457,0.486-20.457"/>
	<circle fill="none" stroke="#26FFBF" stroke-miterlimit="10" cx="65.457" cy="59" r="2"/>
	<polyline fill="none" stroke="#FFFFFF" stroke-miterlimit="10" points="19.958,71.406 30.458,62 39.624,66.251 	"/>
	<line fill="none" stroke="#FFFFFF" stroke-miterlimit="10" x1="56.541" y1="55.167" x2="63.457" y2="59"/>
	<line fill="none" stroke="#FFFFFF" stroke-miterlimit="10" x1="67.457" y1="59" x2="74.873" y2="52.334"/>
	<polyline fill="none" stroke="#26FFBF" stroke-miterlimit="10" points="75.734,59.5 81.064,55.197 82.797,58.922 88,45.5 
		73.678,48.711 	"/>
	<line fill="none" stroke="#26FFBF" stroke-miterlimit="10" x1="79.262" y1="64.938" x2="74.262" y2="68.438"/>
	<path fill="none" stroke="#FFFFFF" stroke-miterlimit="10" d="M76.988,64.5"/>
	<polyline fill="none" stroke="#26FFBF" stroke-miterlimit="10" points="75.824,64.458 79.418,64.844 78.658,68.375 	"/>
	<line fill="none" stroke="#26FFBF" stroke-miterlimit="10" x1="30.5" y1="68" x2="30.5" y2="73"/>
	<line fill="none" stroke="#26FFBF" stroke-miterlimit="10" x1="28" y1="70.5" x2="33" y2="70.5"/>
	<line fill="none" stroke="#FFFFFF" stroke-miterlimit="10" x1="65.5" y1="49" x2="65.5" y2="54"/>
	<line fill="none" stroke="#FFFFFF" stroke-miterlimit="10" x1="63" y1="51.5" x2="68" y2="51.5"/>
	<path fill="none" stroke="#FFD34E" stroke-width="2" stroke-miterlimit="10" d="M19,44h56 M18,83h57 M19,43v40 M74,43v40"/>
</g>
<g>
</g>
<g>
</g>
<g>
</g>
<g>
</g>
<g>
</g>
<g>
</g>
</svg>
