<?xml version="1.0" encoding="utf-8"?>
<!-- Generator: Adobe Illustrator 16.0.0, SVG Export Plug-In . SVG Version: 6.00 Build 0)  -->
<!DOCTYPE svg PUBLIC "-//W3C//DTD SVG 1.1//EN" "http://www.w3.org/Graphics/SVG/1.1/DTD/svg11.dtd">
<svg version="1.1" id="Layer_1" xmlns="http://www.w3.org/2000/svg" xmlns:xlink="http://www.w3.org/1999/xlink" x="0px" y="0px"
	 width="108px" height="108px" viewBox="0 0 108 108" enable-background="new 0 0 108 108" xml:space="preserve">
<line fill="none" stroke="#FFFFFF" stroke-miterlimit="10" x1="24.5" y1="23" x2="24.5" y2="49"/>
<path fill="none" stroke="#FFFFFF" stroke-miterlimit="10" d="M26.375,22.363"/>
<line fill="none" stroke="#FFFFFF" stroke-miterlimit="10" x1="82.5" y1="86" x2="82.5" y2="60"/>
<path fill="none" stroke="#FFFFFF" stroke-miterlimit="10" d="M24.5,22v1 M25.5,23v1 M26.5,24v1 M27.5,25v1 M28.5,26v1 M23.5,24v-1
	 M22.5,25v-1 M21.5,26v-1 M20.5,27v-1"/>
<line fill="none" stroke="#FFFFFF" stroke-miterlimit="10" x1="58" y1="25.5" x2="84" y2="25.5"/>
<line fill="none" stroke="#FFFFFF" stroke-miterlimit="10" x1="22" y1="84.5" x2="48" y2="84.5"/>
<path fill="none" stroke="#FFFFFF" stroke-miterlimit="10" d="M82.5,86v1 M83.5,85v1 M84.5,84v1 M85.5,83v1 M86.5,82v1 M81.5,86v-1
	 M80.5,85v-1 M79.5,84v-1 M78.5,83v-1"/>
<path fill="none" stroke="#FFFFFF" stroke-miterlimit="10" d="M84,25.5h1 M83,24.5h1 M82,23.5h1 M81,22.5h1 M80,21.5h1 M84,26.5h-1
	 M83,27.5h-1 M82,28.5h-1 M81,29.5h-1"/>
<path fill="none" stroke="#FFFFFF" stroke-miterlimit="10" d="M21,84.5h1 M22,83.5h1 M23,82.5h1 M24,81.5h1 M25,80.5h1 M23,85.5h-1
	 M24,86.5h-1 M25,87.5h-1 M26,88.5h-1"/>
<g>
	<path fill="#26FFBF" d="M48.175,34.602c-0.041,0-0.083,0.005-0.124,0.015c-0.025,0.007-0.05,0.013-0.075,0.02h0
		c-0.002,0.001-0.005,0.001-0.007,0.002l0,0c-0.002,0-0.004,0.001-0.006,0.001c0,0-0.001,0-0.002,0
		c-0.002,0-0.004,0.001-0.006,0.001c0,0-0.001,0-0.001,0c-0.002,0-0.004,0.001-0.005,0.001c-0.001,0-0.002,0-0.002,0
		c-0.002,0-0.003,0.001-0.005,0.001c-0.001,0-0.001,0-0.002,0c-0.001,0-0.003,0.001-0.004,0.001c-0.001,0-0.002,0.001-0.004,0.001
		c-0.001,0-0.002,0-0.003,0c-0.001,0-0.003,0.001-0.005,0.001c-0.001,0-0.001,0-0.002,0c-0.001,0-0.003,0.001-0.005,0.001
		c-0.001,0-0.002,0-0.003,0c-0.001,0-0.003,0.001-0.005,0.001c0,0-0.001,0-0.002,0c-0.001,0-0.003,0.001-0.005,0.001
		c-0.001,0-0.002,0-0.002,0c-0.002,0-0.003,0.001-0.005,0.001c-0.001,0-0.002,0-0.002,0c-0.002,0-0.003,0.001-0.005,0.001
		c0,0-0.001,0-0.002,0c-0.002,0-0.003,0.001-0.005,0.001c0,0-0.001,0-0.001,0c-0.002,0-0.004,0.001-0.006,0.001c0,0-0.001,0-0.001,0
		c-0.002,0-0.004,0.001-0.006,0.001c0,0,0,0,0,0c-0.002,0-0.004,0.001-0.007,0.001c0,0,0,0-0.001,0
		c-0.066,0.018-0.132,0.035-0.198,0.054c0,0-0.001,0-0.002,0c0,0-0.002,0-0.002,0.001c-0.002,0-0.003,0.001-0.005,0.001
		c0,0,0,0-0.001,0c-0.005,0.001-0.009,0.003-0.014,0.004c-0.001,0-0.001,0-0.002,0c-0.18,0.05-0.359,0.103-0.538,0.158
		c-0.264,0.082-0.412,0.362-0.33,0.625c0.066,0.215,0.264,0.353,0.478,0.353c0.049,0,0.099-0.007,0.148-0.022
		c0.301-0.093,0.606-0.179,0.914-0.257c0.268-0.068,0.429-0.34,0.361-0.608C48.601,34.752,48.398,34.602,48.175,34.602
		L48.175,34.602z M43.65,36.382c-0.081,0-0.163,0.02-0.239,0.062c-0.014,0.008-0.027,0.015-0.041,0.022l0,0
		c-0.002,0.001-0.004,0.002-0.006,0.003c0,0,0,0,0,0c-0.002,0.001-0.004,0.002-0.005,0.003c0,0-0.002,0.001-0.002,0.001
		c-0.001,0.001-0.002,0.001-0.004,0.002c0,0-0.002,0.001-0.003,0.001c-0.001,0-0.002,0.001-0.003,0.002
		c-0.001,0.001-0.002,0.001-0.003,0.002c-0.001,0-0.002,0.001-0.003,0.001c-0.001,0.001-0.002,0.001-0.004,0.002
		c-0.001,0-0.001,0-0.002,0.001c-0.266,0.147-0.529,0.301-0.788,0.459c-0.234,0.145-0.307,0.452-0.163,0.687
		c0.094,0.153,0.258,0.238,0.426,0.238c0.089,0,0.18-0.024,0.261-0.074c0.27-0.166,0.543-0.324,0.822-0.477
		c0.242-0.133,0.331-0.437,0.198-0.679C43.999,36.477,43.827,36.382,43.65,36.382L43.65,36.382z M39.709,39.23
		c-0.121,0-0.243,0.044-0.339,0.132c-0.086,0.08-0.171,0.161-0.256,0.243c0,0,0,0,0,0c-0.022,0.021-0.045,0.043-0.067,0.065
		c-0.001,0.001-0.002,0.001-0.003,0.002c-0.002,0.003-0.005,0.005-0.008,0.008c-0.001,0.001-0.002,0.002-0.003,0.003
		c-0.002,0.002-0.005,0.005-0.007,0.007c-0.001,0.001-0.002,0.002-0.004,0.004c-0.002,0.002-0.005,0.004-0.008,0.007
		c-0.001,0.001-0.002,0.002-0.003,0.003c-0.003,0.003-0.005,0.005-0.008,0.008C39.002,39.715,39,39.716,39,39.717
		c-0.002,0.003-0.005,0.005-0.007,0.008c-0.001,0.001-0.003,0.002-0.004,0.003c-0.002,0.002-0.005,0.005-0.007,0.007
		c-0.001,0.001-0.003,0.003-0.004,0.004c-0.002,0.002-0.004,0.004-0.007,0.006c-0.001,0.002-0.003,0.003-0.005,0.005
		c-0.001,0.002-0.004,0.004-0.006,0.006c-0.002,0.002-0.004,0.004-0.006,0.006c-0.001,0.001-0.003,0.003-0.004,0.004
		c-0.002,0.002-0.004,0.004-0.007,0.007c-0.001,0.001-0.002,0.002-0.004,0.004c-0.002,0.002-0.005,0.004-0.007,0.007
		c-0.001,0.001-0.003,0.003-0.004,0.004c-0.002,0.002-0.004,0.004-0.006,0.007c-0.001,0.001-0.003,0.003-0.004,0.004
		c-0.002,0.002-0.004,0.005-0.007,0.007c-0.001,0.001-0.003,0.003-0.004,0.004c-0.002,0.002-0.004,0.004-0.007,0.007
		c-0.002,0.002-0.002,0.002-0.004,0.004c-0.002,0.002-0.004,0.004-0.007,0.007c-0.001,0.001-0.003,0.003-0.004,0.004
		c-0.002,0.002-0.004,0.004-0.007,0.006c-0.001,0.001-0.003,0.003-0.004,0.004c-0.002,0.002-0.005,0.005-0.007,0.007
		c-0.001,0.001-0.002,0.002-0.004,0.003c-0.002,0.003-0.005,0.005-0.007,0.008c-0.001,0.001-0.002,0.002-0.003,0.003
		c-0.003,0.003-0.005,0.005-0.008,0.008c-0.001,0.001-0.002,0.002-0.003,0.003c-0.002,0.002-0.005,0.005-0.008,0.008
		c-0.001,0.001-0.002,0.002-0.003,0.003c-0.003,0.003-0.005,0.005-0.008,0.008c-0.001,0.001-0.002,0.002-0.003,0.003
		c-0.003,0.003-0.005,0.005-0.008,0.008c0,0.001-0.002,0.002-0.003,0.003c-0.002,0.002-0.005,0.005-0.008,0.008
		c-0.001,0-0.002,0.001-0.003,0.002c-0.002,0.003-0.005,0.005-0.008,0.008c0,0.001-0.001,0.002-0.002,0.003
		c-0.003,0.003-0.006,0.005-0.009,0.008c0,0-0.001,0.002-0.002,0.002c-0.003,0.003-0.006,0.006-0.009,0.009
		c-0.001,0.001-0.001,0.001-0.002,0.002c-0.003,0.003-0.006,0.006-0.009,0.01c0,0-0.001,0.001-0.001,0.001
		c-0.003,0.003-0.006,0.007-0.01,0.01c0,0-0.001,0.001-0.001,0.001c-0.003,0.003-0.007,0.007-0.01,0.01v0
		c-0.004,0.003-0.007,0.007-0.011,0.011c0,0,0,0,0,0c-0.003,0.003-0.007,0.007-0.011,0.011l0,0
		c-0.003,0.004-0.007,0.007-0.011,0.011h0c-0.014,0.015-0.029,0.03-0.043,0.044c-0.192,0.198-0.188,0.515,0.01,0.707
		c0.097,0.095,0.223,0.142,0.349,0.142c0.13,0,0.261-0.051,0.358-0.151c0.221-0.228,0.447-0.449,0.679-0.665
		c0.202-0.188,0.213-0.505,0.025-0.707C39.977,39.284,39.843,39.23,39.709,39.23L39.709,39.23z M36.59,42.961
		c-0.164,0-0.325,0.081-0.421,0.229c0,0,0,0,0,0c-0.18,0.28-0.354,0.564-0.52,0.854c-0.138,0.239-0.055,0.545,0.185,0.683
		c0.078,0.045,0.164,0.066,0.249,0.066c0.173,0,0.341-0.09,0.434-0.251c0.158-0.274,0.323-0.545,0.494-0.811
		c0.149-0.232,0.083-0.542-0.15-0.691C36.777,42.987,36.683,42.961,36.59,42.961L36.59,42.961z M34.491,47.346
		c-0.209,0-0.405,0.133-0.475,0.342c0,0.001-0.001,0.003-0.001,0.004c0,0.001,0,0.001,0,0.002c0,0.002-0.001,0.003-0.002,0.005
		c0,0.001,0,0.002,0,0.002c-0.001,0.002-0.001,0.003-0.002,0.005c0,0,0,0.001,0,0.002c0,0.002-0.001,0.003-0.002,0.005
		c0,0,0,0.001,0,0.002c0,0.002-0.001,0.004-0.002,0.005c0,0.001,0,0.001,0,0.002c0,0.002-0.001,0.003-0.002,0.005
		c0,0,0,0.001,0,0.002c0,0.002-0.001,0.004-0.002,0.005c0,0,0,0.001,0,0.002c0,0.001-0.001,0.004-0.002,0.005c0,0,0,0.001,0,0.002
		c0,0.001-0.001,0.003-0.002,0.005c0,0,0,0.001,0,0.002c0,0.002-0.001,0.003-0.001,0.005c0,0.001,0,0.001-0.001,0.002
		c0,0.002-0.001,0.003-0.001,0.005c0,0,0,0.001-0.001,0.002c0,0.002-0.001,0.003-0.001,0.005c0,0,0,0.001-0.001,0.002
		c0,0.001-0.001,0.003-0.001,0.005c0,0,0,0.001,0,0.002c-0.001,0.001-0.001,0.003-0.002,0.005c0,0.001,0,0.002,0,0.002
		c0,0.001-0.001,0.004-0.002,0.005c0,0,0,0.001,0,0.002c-0.001,0.002-0.001,0.003-0.002,0.005c0,0,0,0.001,0,0.002
		c0,0.001-0.001,0.003-0.002,0.005c0,0,0,0.001,0,0.002c0,0.001-0.001,0.003-0.001,0.004c0,0.001-0.001,0.002-0.001,0.003
		c0,0.001-0.001,0.003-0.001,0.004c0,0.001,0,0.002-0.001,0.003s-0.001,0.003-0.001,0.004s0,0.002-0.001,0.003
		s-0.001,0.003-0.001,0.004s0,0.002-0.001,0.003s-0.001,0.003-0.001,0.004c0,0.001,0,0.002-0.001,0.003
		c0,0.001-0.001,0.003-0.001,0.005c0,0,0,0.001,0,0.002c0,0.001-0.001,0.003-0.002,0.004c0,0.001,0,0.002,0,0.003
		c0,0.001-0.001,0.003-0.001,0.004c0,0.001-0.001,0.002-0.001,0.003c0,0.001,0,0.002-0.001,0.003c0,0.001-0.001,0.003-0.001,0.004
		c0,0.001,0,0.002-0.001,0.003c0,0.001,0,0.002-0.001,0.003c0,0.001-0.001,0.002-0.001,0.004c0,0.001,0,0.002-0.001,0.003
		c0,0.001-0.001,0.003-0.001,0.004c0,0.001,0,0.003-0.001,0.004s-0.001,0.002-0.001,0.003c0,0.001-0.001,0.003-0.001,0.004
		c0,0.001-0.001,0.003-0.001,0.003c0,0.001-0.001,0.003-0.001,0.004c0,0,0,0.002-0.001,0.003c0,0.001-0.001,0.003-0.001,0.004
		c0,0,0,0.002-0.001,0.003c0,0.002-0.001,0.003-0.001,0.005c0,0,0,0.001,0,0.001c-0.001,0.002-0.001,0.004-0.002,0.006
		c0,0,0,0,0,0.001c0,0.002-0.001,0.004-0.002,0.006l0,0c0,0.002-0.001,0.004-0.002,0.006l0,0.001c0,0.002-0.001,0.004-0.002,0.007v0
		c-0.069,0.218-0.134,0.438-0.196,0.659v0c0,0.002-0.001,0.004-0.002,0.007c0,0,0,0.002,0,0.003c0,0.001-0.001,0.002-0.001,0.004
		c0,0.002,0,0.002-0.001,0.004c0,0.001,0,0.002-0.001,0.003c0,0,0,0.001,0,0.001c-0.073,0.266,0.083,0.542,0.349,0.615
		c0.044,0.012,0.089,0.018,0.134,0.018c0.219,0,0.42-0.145,0.481-0.366c0.085-0.306,0.177-0.609,0.276-0.909
		c0.087-0.262-0.055-0.545-0.316-0.632C34.596,47.354,34.543,47.346,34.491,47.346L34.491,47.346z M33.548,52.116
		c-0.26,0-0.48,0.201-0.499,0.465c-0.002,0.031-0.004,0.061-0.006,0.092l0,0.002c0,0.001,0,0.003,0,0.005c0,0.001,0,0.002,0,0.003
		c0,0.001,0,0.003,0,0.004c0,0.001,0,0.002,0,0.004c0,0.001,0,0.002,0,0.002c0,0.002,0,0.004,0,0.006c0,0,0,0.001,0,0.001
		c0,0.002,0,0.004,0,0.006c0,0,0,0.001,0,0.001c0,0.002,0,0.004,0,0.007c0,0,0,0,0,0.001c-0.008,0.125-0.015,0.249-0.02,0.374
		c0,0,0,0,0,0c0,0.003,0,0.004,0,0.007c0,0,0,0.001,0,0.001c0,0.002,0,0.003,0,0.006c0,0,0,0.001,0,0.001c0,0.002,0,0.003,0,0.006
		c0,0,0,0.001,0,0.002c0,0.002,0,0.004,0,0.006c0,0,0,0.001,0,0.002c0,0.002,0,0.004,0,0.006c0,0,0,0.001,0,0.002
		c0,0.002,0,0.004,0,0.006c0,0,0,0.001,0,0.001c0,0.002,0,0.004,0,0.006c0,0.001,0,0.002,0,0.002c0,0.002,0,0.003,0,0.005
		c0,0.001,0,0.002,0,0.003c0,0.002,0,0.002,0,0.004c0,0.001,0,0.002,0,0.003c0,0.002,0,0.002,0,0.004c0,0.001,0,0.002,0,0.003
		c0,0.002,0,0.003,0,0.005c0,0.001,0,0.002,0,0.003c0,0.002,0,0.002,0,0.004c0,0.001,0,0.002,0,0.003c0,0.001,0,0.003,0,0.004
		c0,0.001,0,0.003,0,0.004c0,0.001,0,0.002,0,0.003s0,0.003,0,0.004c0,0.001,0,0.002,0,0.003c0,0.001,0,0.003,0,0.004
		c0,0,0,0.001,0,0.002c0,0.002,0,0.004,0,0.006l0,0c-0.001,0.015-0.001,0.031-0.002,0.046c0,0,0,0,0,0.001c0,0.005,0,0.01,0,0.015
		c0,0,0,0,0,0c0,0.002,0,0.004,0,0.007c0,0,0,0,0,0.001c0,0.002,0,0.003,0,0.005c0,0.001,0,0.001,0,0.003s0,0.003,0,0.004
		c0,0.001,0,0.002,0,0.003s0,0.003,0,0.004s0,0.002,0,0.003c0,0.001,0,0.003,0,0.004c0,0.002,0,0.002,0,0.004
		c0,0.001,0,0.002,0,0.003c0,0.002,0,0.003,0,0.005c0,0.001,0,0.001,0,0.002c0,0.001,0,0.004,0,0.005c0,0.001,0,0.002,0,0.003
		c0,0.001,0,0.003,0,0.004c0,0.001,0,0.002,0,0.003c0,0.001,0,0.003,0,0.004c0,0.001,0,0.002,0,0.003c0,0.002,0,0.003,0,0.005
		c0,0.001,0,0.001,0,0.002c0,0.002,0,0.003,0,0.006c0,0,0,0.001,0,0.002c0,0.002,0,0.004,0,0.006c0,0,0,0,0,0.001
		c0,0.002,0,0.004,0,0.007v0c0,0.003,0,0.005,0,0.008l0,0c0,0.002,0,0.005,0,0.008l0,0c-0.002,0.06-0.003,0.119-0.004,0.178
		c-0.005,0.275,0.214,0.503,0.49,0.509c0.003,0,0.007,0,0.01,0c0.271,0,0.494-0.217,0.5-0.49c0.007-0.318,0.021-0.635,0.043-0.95
		c0.02-0.275-0.188-0.514-0.463-0.534C33.571,52.116,33.56,52.116,33.548,52.116L33.548,52.116z M33.809,56.973
		c-0.029,0-0.059,0.003-0.089,0.009c-0.271,0.049-0.452,0.308-0.404,0.579c0.059,0.33,0.127,0.658,0.202,0.981
		c0.054,0.23,0.259,0.386,0.486,0.386c0.037,0,0.075-0.004,0.113-0.013c0.269-0.063,0.437-0.331,0.374-0.601
		c-0.071-0.307-0.135-0.617-0.191-0.93C34.257,57.143,34.046,56.973,33.809,56.973L33.809,56.973z M35.262,61.612
		c-0.07,0-0.141,0.015-0.208,0.045c-0.251,0.115-0.361,0.412-0.247,0.663c0.079,0.172,0.16,0.343,0.244,0.513
		c0,0,0.001,0.001,0.001,0.002c0.001,0.002,0.001,0.002,0.002,0.004c0,0.001,0.001,0.002,0.001,0.003
		c0.001,0.001,0.001,0.002,0.002,0.003c0,0.002,0.001,0.003,0.002,0.004c0,0.001,0.001,0.002,0.001,0.003
		c0.001,0.002,0.001,0.003,0.002,0.005c0,0,0.001,0.001,0.001,0.002c0.001,0.002,0.001,0.003,0.002,0.005c0,0.001,0,0.001,0,0.001
		c0.001,0.002,0.002,0.004,0.003,0.006c0,0.001,0,0.001,0,0.001c0.001,0.002,0.002,0.005,0.003,0.007c0,0,0-0.001,0,0
		c0.057,0.114,0.114,0.228,0.173,0.341c0.089,0.171,0.263,0.27,0.444,0.27c0.078,0,0.157-0.019,0.23-0.057
		c0.245-0.128,0.34-0.43,0.212-0.675c-0.146-0.28-0.285-0.564-0.417-0.853C35.632,61.721,35.451,61.612,35.262,61.612L35.262,61.612
		z M37.823,65.745c-0.11,0-0.222,0.036-0.314,0.111c-0.215,0.174-0.248,0.488-0.075,0.703c0.026,0.032,0.052,0.064,0.079,0.097h0
		c0.003,0.004,0.006,0.009,0.01,0.013l0,0c0.016,0.02,0.033,0.04,0.049,0.06l0,0.001c0.003,0.004,0.006,0.008,0.009,0.011
		c0,0.001,0,0.001,0.001,0.001c0.003,0.004,0.006,0.008,0.009,0.011c0,0.001,0.001,0.002,0.001,0.002
		c0.003,0.004,0.006,0.007,0.009,0.011c0,0,0,0.001,0.001,0.001c0.003,0.004,0.006,0.007,0.009,0.011c0,0.001,0,0.001,0.001,0.001
		c0.003,0.004,0.006,0.008,0.009,0.012c0,0,0,0,0,0.001c0.003,0.003,0.006,0.007,0.009,0.011c0,0,0,0,0.001,0.001
		c0.003,0.004,0.006,0.008,0.009,0.011l0,0.001c0.003,0.004,0.006,0.008,0.009,0.012c0,0,0,0,0,0
		c0.014,0.016,0.027,0.032,0.04,0.048h0c0.003,0.004,0.006,0.008,0.01,0.012l0,0c0.003,0.004,0.007,0.008,0.01,0.012
		c0,0.001,0,0,0,0.001c0.003,0.004,0.006,0.008,0.01,0.012l0,0c0.003,0.004,0.007,0.008,0.01,0.012l0,0
		c0.003,0.004,0.007,0.008,0.01,0.012c0,0,0,0,0,0c0.003,0.004,0.006,0.008,0.01,0.012h0c0.027,0.032,0.054,0.063,0.081,0.095
		c0,0.001,0,0,0,0.001c0.003,0.004,0.007,0.008,0.01,0.012l0,0c0.003,0.004,0.007,0.008,0.01,0.012h0
		c0.003,0.004,0.006,0.008,0.01,0.012c0,0,0-0.001,0,0c0.003,0.004,0.006,0.008,0.01,0.012l0,0c0.003,0.004,0.007,0.008,0.01,0.012
		l0,0c0.003,0.004,0.007,0.008,0.01,0.012c0,0,0,0,0,0c0.003,0.004,0.006,0.008,0.01,0.012l0,0c0.003,0.004,0.007,0.008,0.01,0.012
		c0,0,0,0,0,0.001c0.003,0.004,0.006,0.007,0.009,0.011c0,0,0.001,0.001,0.001,0.001c0.003,0.004,0.006,0.007,0.009,0.011
		c0.001,0.001,0.001,0.001,0.002,0.002c0.003,0.003,0.005,0.006,0.008,0.009c0.001,0.001,0.002,0.002,0.003,0.003
		c0.002,0.003,0.005,0.006,0.007,0.009c0.001,0.001,0.002,0.002,0.003,0.004c0.002,0.002,0.005,0.005,0.007,0.008
		c0.001,0.001,0.002,0.002,0.004,0.004c0.002,0.002,0.004,0.005,0.006,0.007c0.001,0.002,0.002,0.003,0.004,0.005
		c0.002,0.002,0.004,0.004,0.006,0.006c0.002,0.003,0.005,0.006,0.007,0.009c0,0.001,0.001,0.002,0.002,0.003
		c0.029,0.033,0.058,0.065,0.087,0.099c0.099,0.109,0.235,0.165,0.372,0.165c0.119,0,0.238-0.042,0.333-0.127
		c0.206-0.185,0.224-0.5,0.04-0.706c-0.211-0.236-0.416-0.478-0.615-0.725C38.113,65.809,37.969,65.745,37.823,65.745L37.823,65.745
		z M41.325,69.12c-0.152,0-0.302,0.069-0.4,0.2c-0.165,0.221-0.121,0.533,0.099,0.699c0.266,0.199,0.537,0.392,0.813,0.577l0,0
		c0.001,0.001,0.003,0.003,0.005,0.004c0.085,0.057,0.182,0.084,0.278,0.084c0.161,0,0.319-0.077,0.416-0.221
		c0.154-0.229,0.093-0.539-0.136-0.693c-0.263-0.178-0.521-0.36-0.774-0.551C41.534,69.152,41.429,69.12,41.325,69.12L41.325,69.12z
		 M45.55,71.526c-0.196,0-0.383,0.116-0.462,0.309c-0.105,0.255,0.016,0.547,0.27,0.653c0.309,0.127,0.62,0.247,0.937,0.359
		c0.055,0.02,0.11,0.028,0.166,0.028c0.206,0,0.398-0.127,0.471-0.332c0.093-0.26-0.043-0.546-0.303-0.639
		c-0.299-0.106-0.594-0.22-0.886-0.341C45.678,71.538,45.613,71.526,45.55,71.526L45.55,71.526z M50.239,72.806
		c-0.245,0-0.459,0.181-0.495,0.431c-0.039,0.273,0.151,0.525,0.424,0.564c0.329,0.047,0.661,0.086,0.995,0.116
		c0.015,0.001,0.03,0.002,0.045,0.002c0.255,0,0.474-0.195,0.497-0.455c0.025-0.274-0.177-0.518-0.453-0.543
		c-0.316-0.029-0.631-0.065-0.943-0.109C50.286,72.808,50.262,72.806,50.239,72.806L50.239,72.806z M56.07,72.76
		c-0.026,0-0.053,0.002-0.079,0.006c-0.312,0.05-0.625,0.091-0.941,0.125c-0.274,0.029-0.473,0.276-0.444,0.551
		c0.027,0.256,0.244,0.446,0.497,0.446c0.018,0,0.036-0.001,0.054-0.003c0.333-0.035,0.664-0.079,0.991-0.131
		c0.273-0.043,0.459-0.3,0.416-0.572C56.524,72.936,56.312,72.76,56.07,72.76L56.07,72.76z M60.738,71.404
		c-0.066,0-0.134,0.014-0.199,0.041c-0.289,0.126-0.583,0.244-0.88,0.355c-0.259,0.097-0.39,0.385-0.293,0.644
		c0.075,0.201,0.266,0.325,0.468,0.325c0.058,0,0.116-0.011,0.174-0.031c0.166-0.063,0.331-0.127,0.495-0.193c0,0,0,0,0.001,0
		c0.002-0.001,0.004-0.002,0.005-0.002c0.001-0.001,0.002-0.001,0.002-0.001c0.002-0.001,0.003-0.001,0.005-0.002
		c0.001,0,0.002-0.001,0.003-0.001c0.001-0.001,0.002-0.001,0.003-0.002c0.002,0,0.003-0.001,0.005-0.001
		c0-0.001,0.001-0.001,0.002-0.001c0.002-0.001,0.003-0.002,0.005-0.002c0.001-0.001,0.001-0.001,0.002-0.001
		c0.002-0.001,0.004-0.002,0.006-0.003l0,0c0.133-0.054,0.265-0.109,0.396-0.166c0.254-0.109,0.37-0.404,0.261-0.657
		C61.115,71.518,60.932,71.404,60.738,71.404L60.738,71.404z M64.924,68.931c-0.107,0-0.215,0.034-0.306,0.104
		c-0.25,0.194-0.506,0.382-0.766,0.563c-0.227,0.158-0.282,0.47-0.124,0.696c0.097,0.14,0.252,0.214,0.41,0.214
		c0.099,0,0.198-0.029,0.285-0.09c0.064-0.044,0.129-0.09,0.192-0.135l0,0c0.004-0.003,0.008-0.006,0.012-0.009
		c0.001-0.001,0.001-0.001,0.001-0.001c0.004-0.003,0.008-0.006,0.012-0.008c0-0.001,0.001-0.001,0.002-0.002
		c0.003-0.002,0.007-0.005,0.011-0.007c0.001-0.001,0.001-0.001,0.002-0.002c0.003-0.003,0.007-0.005,0.01-0.007
		c0.001-0.001,0.002-0.002,0.003-0.003c0.003-0.002,0.007-0.004,0.01-0.007c0.001,0,0.002-0.001,0.003-0.002
		c0.003-0.002,0.006-0.004,0.009-0.007c0.002-0.001,0.003-0.001,0.004-0.002c0.003-0.002,0.006-0.005,0.009-0.007
		c0.002-0.001,0.003-0.002,0.005-0.003c0.003-0.002,0.005-0.004,0.008-0.006c0.002-0.002,0.003-0.002,0.006-0.004
		c0.002-0.002,0.004-0.003,0.006-0.005c0.003-0.002,0.005-0.003,0.008-0.005c0.001-0.001,0.003-0.003,0.004-0.004
		c0.004-0.002,0.005-0.003,0.009-0.006c0.001-0.001,0.003-0.002,0.004-0.003c0.003-0.002,0.006-0.004,0.009-0.006
		c0.001-0.001,0.002-0.002,0.004-0.003c0.002-0.002,0.006-0.005,0.008-0.006s0.003-0.002,0.004-0.003
		c0.003-0.003,0.006-0.005,0.009-0.007c0.001-0.001,0.002-0.001,0.003-0.002c0.004-0.002,0.007-0.005,0.01-0.007
		c0.001-0.001,0.001-0.001,0.002-0.001c0.021-0.017,0.043-0.032,0.064-0.048c0.001-0.001,0.001-0.001,0.001-0.001
		c0.004-0.003,0.007-0.005,0.011-0.008c0.001-0.001,0.001-0.001,0.001-0.001c0.004-0.003,0.008-0.005,0.012-0.009c0,0,0,0,0.001,0
		c0.004-0.003,0.007-0.006,0.011-0.009c0.001,0,0.001,0,0.001,0c0.004-0.003,0.007-0.006,0.011-0.009
		c0.001,0,0.002-0.001,0.002-0.001c0.004-0.003,0.007-0.005,0.011-0.008c0,0,0.001-0.001,0.002-0.001
		c0.003-0.003,0.007-0.006,0.01-0.008c0.001-0.001,0.002-0.001,0.002-0.002c0.004-0.002,0.007-0.005,0.011-0.007
		c0.001-0.001,0.002-0.002,0.003-0.003c0.003-0.002,0.006-0.004,0.009-0.007c0.002-0.001,0.005-0.003,0.007-0.005
		c0.002-0.001,0.003-0.002,0.005-0.004c0.003-0.002,0.005-0.003,0.007-0.005s0.004-0.003,0.006-0.004
		c0.002-0.002,0.005-0.004,0.007-0.006c0.002-0.001,0.004-0.002,0.005-0.003c0.003-0.002,0.006-0.005,0.008-0.007
		c0.002-0.001,0.003-0.002,0.004-0.003c0.003-0.002,0.006-0.004,0.009-0.006c0.001-0.001,0.003-0.002,0.004-0.003
		c0.003-0.002,0.006-0.005,0.009-0.007c0.001-0.001,0.002-0.002,0.003-0.002c0.004-0.003,0.007-0.006,0.011-0.008
		c0-0.001,0.001-0.001,0.002-0.002c0.004-0.003,0.008-0.006,0.012-0.009l0,0c0.058-0.044,0.116-0.088,0.174-0.133
		c0.218-0.169,0.258-0.483,0.089-0.701C65.221,68.997,65.073,68.931,64.924,68.931L64.924,68.931z M68.372,65.5
		c-0.149,0-0.296,0.066-0.395,0.192c-0.195,0.25-0.396,0.494-0.604,0.733c-0.181,0.209-0.158,0.525,0.051,0.706
		c0.095,0.081,0.211,0.121,0.327,0.121c0.14,0,0.278-0.058,0.377-0.171c0.022-0.026,0.045-0.053,0.067-0.079l0,0
		c0.003-0.003,0.006-0.007,0.009-0.01c0.001-0.001,0.002-0.002,0.002-0.002c0.003-0.003,0.006-0.007,0.008-0.01
		c0.001-0.001,0.002-0.002,0.003-0.003c0.002-0.003,0.005-0.005,0.007-0.008c0.001-0.002,0.003-0.004,0.005-0.006
		s0.003-0.003,0.004-0.005c0.003-0.003,0.005-0.006,0.007-0.009c0.002-0.001,0.002-0.001,0.003-0.003
		c0.003-0.003,0.005-0.006,0.008-0.009c0.001-0.001,0.001-0.002,0.002-0.003c0.003-0.003,0.006-0.006,0.009-0.009
		c0-0.001,0-0.001,0.001-0.002c0.003-0.004,0.006-0.007,0.009-0.011l0.001-0.001c0.003-0.004,0.007-0.008,0.01-0.011
		c0-0.001,0-0.001,0-0.001c0.004-0.004,0.007-0.008,0.01-0.012h0.001c0.066-0.08,0.133-0.16,0.199-0.24c0,0,0,0,0-0.001
		c0.003-0.003,0.006-0.007,0.01-0.011v-0.001c0.003-0.004,0.006-0.008,0.01-0.011c0-0.001,0-0.001,0-0.002
		c0.003-0.003,0.006-0.007,0.009-0.011c0.001,0,0.001-0.001,0.002-0.001c0.003-0.004,0.005-0.007,0.008-0.011
		c0.001,0,0.002-0.001,0.002-0.002c0.003-0.003,0.005-0.007,0.008-0.01c0.001-0.001,0.001-0.001,0.002-0.002
		c0.003-0.003,0.005-0.007,0.008-0.01c0.001-0.001,0.001-0.001,0.002-0.002c0.003-0.004,0.005-0.007,0.008-0.01
		c0.001-0.001,0.002-0.003,0.003-0.004c0.002-0.003,0.004-0.006,0.007-0.009c0.001-0.001,0.002-0.002,0.003-0.004
		c0.003-0.003,0.005-0.005,0.007-0.008c0.001-0.002,0.002-0.003,0.003-0.004c0.003-0.003,0.005-0.006,0.007-0.009
		c0.001-0.001,0.003-0.003,0.004-0.004c0.002-0.003,0.004-0.005,0.006-0.008c0.001-0.001,0.003-0.003,0.004-0.005
		c0.002-0.002,0.004-0.004,0.006-0.007c0.001-0.001,0.003-0.004,0.004-0.005c0.002-0.003,0.004-0.005,0.006-0.007
		c0.001-0.002,0.002-0.004,0.004-0.006s0.003-0.004,0.005-0.006s0.003-0.004,0.005-0.006s0.003-0.004,0.005-0.007
		s0.004-0.005,0.007-0.008c0.001-0.001,0.002-0.003,0.003-0.004c0.002-0.003,0.005-0.006,0.007-0.009
		c0.001-0.001,0.002-0.002,0.002-0.003c0.003-0.003,0.005-0.006,0.008-0.01c0.001-0.001,0.001-0.001,0.002-0.002
		c0.003-0.003,0.005-0.007,0.008-0.01c0.001-0.001,0.001-0.001,0.002-0.002c0.003-0.004,0.005-0.007,0.008-0.011l0.001-0.001
		c0.003-0.004,0.006-0.007,0.009-0.011V66.4c0.003-0.004,0.006-0.007,0.01-0.011c0-0.001,0-0.001,0-0.001
		c0.021-0.026,0.043-0.054,0.063-0.081c0.17-0.218,0.131-0.531-0.086-0.701C68.588,65.535,68.479,65.5,68.372,65.5L68.372,65.5z
		 M70.866,61.326c-0.192,0-0.376,0.112-0.458,0.3c-0.128,0.29-0.262,0.577-0.403,0.859c-0.124,0.247-0.023,0.548,0.224,0.671
		c0.071,0.036,0.147,0.053,0.223,0.053c0.184,0,0.36-0.101,0.448-0.275c0-0.002,0.001-0.003,0.001-0.004c0,0,0.001,0,0.001-0.001
		c0.001-0.002,0.002-0.004,0.003-0.006l0,0c0.001-0.003,0.002-0.004,0.003-0.007c0,0,0.001,0,0.001-0.001
		c0.001-0.002,0.002-0.004,0.003-0.006l0,0c0.001-0.003,0.002-0.005,0.003-0.007l0,0c0.003-0.005,0.005-0.009,0.007-0.014l0,0
		c0.142-0.284,0.275-0.571,0.403-0.862c0.11-0.253-0.005-0.547-0.258-0.657C71.001,61.34,70.934,61.326,70.866,61.326L70.866,61.326
		z M72.244,56.665c-0.241,0-0.453,0.174-0.493,0.42c-0.051,0.313-0.11,0.624-0.177,0.933c-0.058,0.271,0.114,0.536,0.384,0.594
		c0.036,0.008,0.071,0.012,0.105,0.012c0.23,0,0.438-0.159,0.488-0.393c0.027-0.125,0.053-0.25,0.077-0.375l0,0
		c0-0.002,0.001-0.005,0.001-0.007c0,0,0-0.001,0-0.002c0.001-0.002,0.001-0.003,0.002-0.005c0-0.001,0-0.002,0-0.002
		c0-0.002,0.001-0.004,0.001-0.006c0-0.001,0-0.001,0.001-0.002c0-0.002,0-0.004,0.001-0.005c0-0.001,0-0.002,0-0.003
		c0-0.002,0.001-0.003,0.001-0.004c0-0.002,0-0.003,0.001-0.004c0-0.002,0-0.003,0-0.004c0.001-0.001,0.001-0.003,0.001-0.004
		s0.001-0.003,0.001-0.004s0-0.003,0.001-0.004c0-0.001,0-0.003,0-0.004c0.001-0.001,0.001-0.002,0.001-0.004
		c0-0.001,0-0.001,0.001-0.003c0-0.001,0-0.003,0.001-0.005c0-0.001,0-0.001,0-0.002c0.001-0.002,0.001-0.004,0.001-0.006
		c0-0.001,0-0.001,0.001-0.002c0-0.002,0-0.004,0.001-0.005c0-0.002,0-0.002,0-0.003c0.001-0.002,0.001-0.004,0.001-0.005
		c0-0.002,0-0.002,0.001-0.003c0-0.002,0-0.003,0.001-0.005c0-0.001,0-0.002,0-0.003c0.001-0.002,0.001-0.003,0.001-0.005
		c0-0.001,0-0.001,0.001-0.002c0-0.002,0-0.004,0.001-0.006c0-0.001,0-0.001,0-0.003c0.001-0.001,0.001-0.003,0.001-0.005
		c0,0,0-0.001,0.001-0.002c0-0.002,0-0.004,0.001-0.006v-0.001c0-0.002,0.001-0.005,0.001-0.007c0,0,0,0,0-0.001
		c0.001-0.002,0.001-0.004,0.002-0.006c0-0.001,0-0.001,0-0.002c0-0.002,0.001-0.004,0.001-0.006V57.7
		c0.001-0.002,0.001-0.005,0.002-0.007l0,0c0-0.003,0.001-0.006,0.001-0.008l0,0c0.001-0.003,0.001-0.006,0.002-0.008v-0.001
		c0.026-0.143,0.052-0.287,0.075-0.431c0.044-0.273-0.141-0.53-0.413-0.574C72.298,56.667,72.271,56.665,72.244,56.665
		L72.244,56.665z M72.428,51.804c-0.015,0-0.028,0-0.043,0.002c-0.275,0.023-0.479,0.266-0.456,0.541
		c0.027,0.314,0.047,0.63,0.059,0.949c0.01,0.27,0.231,0.481,0.499,0.481c0.007,0,0.013,0,0.019,0
		c0.275-0.01,0.491-0.241,0.481-0.517c-0.01-0.284-0.026-0.566-0.048-0.847c0,0,0,0-0.001,0c0-0.002,0-0.004,0-0.007
		c0,0,0-0.001,0-0.001c0-0.002-0.001-0.004-0.001-0.006c0-0.001,0-0.002,0-0.003c0-0.001,0-0.004,0-0.005s0-0.002-0.001-0.003
		c0-0.001,0-0.003,0-0.005c0-0.001,0-0.002,0-0.003c0-0.001,0-0.003-0.001-0.004c0-0.001,0-0.003,0-0.004s0-0.002,0-0.003
		c0-0.002,0-0.004-0.001-0.005c0-0.001,0-0.001,0-0.002c0-0.002,0-0.004,0-0.006v-0.001c-0.003-0.031-0.006-0.062-0.008-0.092
		C72.903,52,72.685,51.804,72.428,51.804L72.428,51.804z M71.408,47.05c-0.055,0-0.11,0.009-0.165,0.028
		c-0.261,0.091-0.397,0.376-0.307,0.637c0.104,0.298,0.201,0.599,0.291,0.904c0.064,0.218,0.264,0.359,0.479,0.359
		c0.047,0,0.095-0.007,0.142-0.021c0.265-0.078,0.416-0.355,0.339-0.62c-0.088-0.297-0.182-0.592-0.283-0.883v0
		c-0.001-0.002-0.001-0.004-0.002-0.007c0,0,0,0,0,0c-0.001-0.002-0.002-0.004-0.003-0.006c0,0,0-0.001,0-0.001
		c-0.001-0.001-0.002-0.004-0.002-0.005c0,0-0.001-0.001-0.001-0.002c0-0.001-0.001-0.004-0.002-0.005c0-0.001,0-0.002-0.001-0.003
		c0-0.001-0.001-0.003-0.001-0.004c-0.001-0.001-0.001-0.002-0.001-0.003c-0.001-0.001-0.001-0.002-0.002-0.004
		c0-0.001-0.001-0.003-0.001-0.004c-0.001-0.001-0.001-0.001-0.001-0.002c-0.001-0.002-0.001-0.003-0.002-0.005
		c0-0.001,0-0.001-0.001-0.002c0-0.002-0.001-0.004-0.002-0.006c0-0.001,0-0.001,0-0.001c-0.001-0.002-0.002-0.004-0.002-0.006
		c-0.001-0.001,0,0-0.001,0C71.809,47.179,71.615,47.05,71.408,47.05L71.408,47.05z M69.238,42.7c-0.096,0-0.191,0.027-0.277,0.084
		c-0.229,0.153-0.292,0.463-0.139,0.693c0.176,0.263,0.345,0.531,0.507,0.803c0.094,0.157,0.26,0.244,0.431,0.244
		c0.087,0,0.175-0.023,0.255-0.071c0.237-0.141,0.314-0.448,0.174-0.685c-0.171-0.288-0.351-0.571-0.535-0.849
		C69.557,42.777,69.399,42.7,69.238,42.7L69.238,42.7z M66.061,39.019c-0.137,0-0.273,0.056-0.372,0.165
		c-0.185,0.205-0.168,0.521,0.036,0.706c0.235,0.212,0.466,0.431,0.689,0.654c0.098,0.097,0.226,0.146,0.354,0.146
		s0.256-0.049,0.354-0.147c0.195-0.195,0.195-0.512-0.001-0.707c-0.154-0.154-0.312-0.306-0.472-0.456c0,0,0,0,0,0
		c-0.004-0.003-0.008-0.007-0.012-0.01v0c-0.004-0.003-0.007-0.007-0.011-0.01l-0.001,0c-0.003-0.003-0.007-0.006-0.011-0.01
		c0,0,0,0-0.001-0.001c-0.003-0.003-0.007-0.006-0.01-0.009c0,0-0.001-0.001-0.002-0.001c-0.003-0.003-0.006-0.006-0.009-0.009
		c-0.001-0.001-0.003-0.002-0.003-0.003c-0.003-0.002-0.006-0.005-0.009-0.007c-0.001-0.001-0.002-0.002-0.004-0.004
		c-0.002-0.002-0.005-0.004-0.007-0.006c-0.002-0.001-0.003-0.003-0.005-0.005c-0.002-0.001-0.004-0.003-0.006-0.005
		c-0.002-0.001-0.004-0.003-0.006-0.005c-0.002-0.001-0.003-0.003-0.005-0.004c-0.002-0.002-0.005-0.004-0.007-0.006
		c-0.001-0.001-0.002-0.002-0.003-0.003c-0.049-0.044-0.097-0.088-0.146-0.132C66.298,39.061,66.179,39.019,66.061,39.019
		L66.061,39.019z M62.074,36.235c-0.18,0-0.354,0.097-0.443,0.267c-0.129,0.244-0.035,0.546,0.21,0.675
		c0.28,0.148,0.557,0.302,0.828,0.463c0.08,0.047,0.168,0.07,0.255,0.07c0.171,0,0.337-0.087,0.431-0.245
		c0.141-0.237,0.063-0.544-0.176-0.685c-0.116-0.069-0.232-0.136-0.351-0.203l-0.001,0c-0.002-0.001-0.004-0.002-0.006-0.003l0,0
		c-0.003-0.001-0.005-0.002-0.007-0.004h-0.001c-0.002-0.001-0.004-0.002-0.006-0.003v0c-0.003-0.001-0.005-0.002-0.007-0.003
		l-0.001,0c-0.002-0.001-0.004-0.002-0.006-0.003v0c-0.003-0.001-0.005-0.002-0.007-0.003l0,0c-0.005-0.002-0.009-0.005-0.014-0.008
		l0,0c-0.154-0.086-0.311-0.171-0.467-0.254C62.232,36.253,62.152,36.235,62.074,36.235L62.074,36.235z M57.521,34.527
		c-0.227,0-0.432,0.155-0.486,0.384c-0.063,0.269,0.103,0.539,0.371,0.602c0.31,0.074,0.615,0.154,0.918,0.243
		c0.047,0.014,0.094,0.02,0.141,0.02c0.217,0,0.416-0.142,0.479-0.36c0.077-0.265-0.074-0.542-0.339-0.62
		c-0.319-0.093-0.644-0.178-0.969-0.256C57.599,34.531,57.56,34.527,57.521,34.527L57.521,34.527z M53,34c-0.003,0-0.005,0-0.008,0
		c0,0-0.001,0-0.001,0c-0.002,0-0.005,0-0.007,0c0,0-0.001,0-0.002,0c-0.002,0-0.004,0-0.006,0c-0.001,0-0.001,0-0.002,0
		c-0.002,0-0.004,0-0.006,0c0,0-0.001,0-0.002,0c-0.002,0-0.004,0-0.006,0c-0.001,0-0.001,0-0.002,0c-0.002,0-0.004,0-0.006,0
		c-0.001,0-0.002,0-0.003,0c-0.002,0-0.003,0-0.005,0c-0.001,0-0.001,0-0.002,0c-0.002,0-0.003,0-0.005,0c-0.001,0-0.002,0-0.003,0
		c-0.002,0-0.003,0-0.005,0c0,0-0.001,0-0.002,0c-0.002,0-0.003,0-0.005,0c-0.001,0-0.002,0-0.002,0c-0.002,0-0.003,0-0.005,0
		c-0.001,0-0.002,0-0.003,0c-0.002,0-0.003,0-0.005,0c-0.001,0-0.001,0-0.002,0c-0.001,0-0.004,0-0.005,0c-0.001,0-0.002,0-0.002,0
		c-0.001,0-0.004,0-0.006,0c0,0-0.001,0-0.002,0c-0.002,0-0.003,0-0.005,0c-0.001,0-0.001,0-0.002,0c-0.002,0-0.004,0-0.006,0
		c0,0-0.001,0-0.002,0c-0.002,0-0.004,0-0.006,0c0,0-0.001,0-0.001,0c-0.002,0-0.004,0-0.006,0c0,0-0.001,0-0.002,0
		c-0.002,0-0.003,0-0.006,0c0,0-0.001,0-0.001,0c-0.002,0-0.004,0-0.007,0c0,0,0,0-0.001,0c-0.003,0-0.004,0-0.007,0h0
		c-0.279,0.003-0.555,0.011-0.831,0.024c-0.275,0.014-0.487,0.236-0.474,0.512C51.539,34.804,51.76,35,52.024,35
		c0.008,0,0.017,0,0.025,0c0.315,0,0.632-0.017,0.951-0.017l0,0c0.216,0,0.432,0.017,0.646,0.017c0.006,0,0.011,0,0.017,0
		c0.268,0,0.49-0.213,0.5-0.483C54.171,34.241,53.956,34,53.68,34c0,0-0.001,0-0.002,0s-0.002,0-0.003,0c-0.004,0-0.008,0-0.013,0
		c0,0,0,0,0,0C53.658,34,54,34,54,34v0.005C53,34,53,34,53,33.998V34c0,0,0.181,0,0.178,0c0,0,0,0,0,0c-0.007,0-0.015,0-0.022,0
		c-0.001,0-0.002,0-0.003,0c-0.002,0-0.004,0-0.006,0c-0.001,0-0.002,0-0.003,0c-0.003,0-0.007,0-0.011,0c-0.001,0-0.002,0-0.003,0
		c-0.002,0-0.003,0-0.005,0c-0.001,0-0.003,0-0.004,0s-0.003,0-0.005,0s-0.003,0-0.005,0s-0.003,0-0.004,0c-0.003,0-0.006,0-0.009,0
		c-0.001,0-0.002,0-0.004,0c-0.002,0-0.003,0-0.005,0c-0.001,0-0.003,0-0.004,0c-0.002,0-0.004,0-0.006,0c-0.001,0-0.002,0-0.003,0
		c-0.003,0-0.006,0-0.009,0c0,0-0.002,0-0.003,0c-0.002,0-0.004,0-0.007,0c-0.001,0-0.002,0-0.003,0c-0.002,0-0.004,0-0.006,0
		c-0.001,0-0.002,0-0.003,0c-0.003,0-0.006,0-0.009,0c0,0-0.001,0-0.002,0c-0.002,0-0.005,0-0.008,0c0,0-0.002,0-0.003,0
		c-0.002,0-0.005,0-0.007,0c-0.001,0-0.002,0-0.003,0C53.006,34,53.003,34,53,34L53,34L53,34z"/>
</g>
<path fill="none" stroke="#FFD34E" stroke-width="2" stroke-miterlimit="10" d="M82.125,51.056
	C80.33,38.117,69.952,27.888,56.943,26.316"/>
<path fill="none" stroke="#FFD34E" stroke-width="2" stroke-miterlimit="10" d="M56.943,83.783
	C69.952,82.21,80.33,71.98,82.125,59.043"/>
<path fill="none" stroke="#FFD34E" stroke-width="2" stroke-miterlimit="10" d="M48.957,26.446
	C36.417,28.41,26.52,38.448,24.772,51.056"/>
<path fill="none" stroke="#FFD34E" stroke-width="2" stroke-miterlimit="10" d="M24.772,59.043
	C26.52,71.651,36.417,81.689,48.957,83.65"/>
<circle fill="none" stroke="#FFFFFF" stroke-miterlimit="10" cx="53.782" cy="49.559" r="6.073"/>
<path fill="none" stroke="#FFFFFF" stroke-miterlimit="10" d="M49.999,54.551c0,3.655-3.499,6.614-7.499,6.614v0.083v1.997
	l10.107,3.848L63.5,63.161V63.5h0.984c-3.963,0-7.334-4.127-7.334-7.781"/>
<g>
</g>
<g>
</g>
<g>
</g>
<g>
</g>
<g>
</g>
<g>
</g>
</svg>
