<?xml version="1.0" encoding="utf-8"?>
<!-- Generator: Adobe Illustrator 16.0.0, SVG Export Plug-In . SVG Version: 6.00 Build 0)  -->
<!DOCTYPE svg PUBLIC "-//W3C//DTD SVG 1.1//EN" "http://www.w3.org/Graphics/SVG/1.1/DTD/svg11.dtd">
<svg version="1.1" id="Layer_1" xmlns="http://www.w3.org/2000/svg" xmlns:xlink="http://www.w3.org/1999/xlink" x="0px" y="0px"
	 width="108px" height="108px" viewBox="0 0 108 108" enable-background="new 0 0 108 108" xml:space="preserve">
<polygon fill="none" stroke="#FFFFFF" stroke-miterlimit="10" points="41.275,64.5 37.551,58 41.275,51.5 48.725,51.5 52.45,58 
	48.725,64.5 "/>
<polygon fill="none" stroke="#FFFFFF" stroke-miterlimit="10" points="56.275,54.5 52.551,48 56.275,41.5 63.725,41.5 67.45,48 
	63.725,54.5 "/>
<polygon fill="none" stroke="#FFFFFF" stroke-miterlimit="10" points="56.275,74.5 52.551,68 56.275,61.5 63.725,61.5 67.45,68 
	63.725,74.5 "/>
<line fill="none" stroke="#FFD34E" stroke-miterlimit="10" x1="51" y1="85.5" x2="29" y2="85.5"/>
<line fill="none" stroke="#FFFFFF" stroke-miterlimit="10" x1="30" y1="78.5" x2="23" y2="78.5"/>
<line fill="none" stroke="#FFFFFF" stroke-miterlimit="10" x1="30" y1="80.5" x2="23" y2="80.5"/>
<line fill="none" stroke="#FFFFFF" stroke-miterlimit="10" x1="69" y1="88.5" x2="80" y2="88.5"/>
<line fill="none" stroke="#FFFFFF" stroke-miterlimit="10" x1="69" y1="90.5" x2="76" y2="90.5"/>
<line fill="none" stroke="#FFFFFF" stroke-miterlimit="10" x1="69" y1="26.5" x2="80" y2="26.5"/>
<line fill="none" stroke="#FFFFFF" stroke-miterlimit="10" x1="72" y1="28.5" x2="80" y2="28.5"/>
<circle fill="none" stroke="#26FFBF" stroke-miterlimit="10" cx="47.333" cy="44.5" r="2"/>
<circle fill="none" stroke="#26FFBF" stroke-miterlimit="10" cx="68.333" cy="56.5" r="2"/>
<circle fill="none" stroke="#26FFBF" stroke-miterlimit="10" cx="47.333" cy="68.5" r="2"/>
<path fill="none" stroke="#FFD34E" stroke-width="2" stroke-miterlimit="10" d="M51.741,29.136
	c-13.966,1.39-24.909,13.204-24.909,27.529c0,8.517,3.87,16.145,9.942,21.224"/>
<path fill="none" stroke="#FFD34E" stroke-miterlimit="10" d="M41,85.5c5.479,0,9.491,0,14,0c15.256,0,27.167-14.329,27.167-29.585
	c0-14.08-10.574-24.603-24.197-26.316"/>
<path fill="none" stroke="#FFD34E" stroke-miterlimit="10" d="M58.088,29.092l-0.914-0.408 M58.592,30.412l-0.912-0.407
	 M59.096,31.733l-0.912-0.408 M59.6,33.056l-0.912-0.409 M58.496,28.18l0.912,0.407 M59.816,27.675l0.913,0.408 M61.139,27.169
	l0.912,0.408"/>
<g>
</g>
<g>
</g>
<g>
</g>
<g>
</g>
<g>
</g>
<g>
</g>
</svg>
