<?xml version="1.0" encoding="utf-8"?>
<!-- Generator: Adobe Illustrator 16.0.0, SVG Export Plug-In . SVG Version: 6.00 Build 0)  -->
<!DOCTYPE svg PUBLIC "-//W3C//DTD SVG 1.1//EN" "http://www.w3.org/Graphics/SVG/1.1/DTD/svg11.dtd">
<svg version="1.1" id="Layer_1" xmlns="http://www.w3.org/2000/svg" xmlns:xlink="http://www.w3.org/1999/xlink" x="0px" y="0px"
	 width="108px" height="108px" viewBox="0 0 108 108" enable-background="new 0 0 108 108" xml:space="preserve">
<path fill="none" stroke="#FFD34E" stroke-width="2" stroke-miterlimit="10" d="M30,41V27 M30,89v-5 M41,90V27 M29,28h11 M29,89h11"
	/>
<path fill="none" stroke="#FFFFFF" stroke-miterlimit="10" d="M32.5,47v35 M26.5,47v35 M26,46.5h1 M27,45.5h1 M28,44.5h1 M29,43.5h1
	 M30,44.5h1 M31,45.5h1 M32,46.5h1 M26,48.5h7 M26,50.5h7 M26,79.5h7 M26,81.5h7"/>
<path fill="none" stroke="#FFFFFF" stroke-miterlimit="10" d="M40,39.5h-5 M40,43.5h-4 M40,47.5h-5 M40,51.5h-4 M40,55.5h-5
	 M40,59.5h-4"/>
<path fill="none" stroke="#FFFFFF" stroke-miterlimit="10" d="M51.5,30v18 M51.5,59v24 M63.5,30v15 M63.5,73v10 M75.5,67v16
	 M75.5,30v28 M44,38.5h39 M44,76.5h39 M44,67.5h18 M44,57.5h4 M54,57.5h14 M63.5,54v11 M83,57.5h-8 M83,67.5h-3 M83,47.5H67
	 M56,47.5H44"/>
<circle fill="none" stroke="#26FFBF" stroke-miterlimit="10" cx="57" cy="43" r="2"/>
<circle fill="none" stroke="#26FFBF" stroke-miterlimit="10" cx="78" cy="63" r="2"/>
<line fill="none" stroke="#26FFBF" stroke-miterlimit="10" x1="58.167" y1="43.083" x2="77.417" y2="62.333"/>
<circle fill="none" stroke="#26FFBF" stroke-miterlimit="10" cx="51" cy="54.001" r="2"/>
<circle fill="none" stroke="#26FFBF" stroke-miterlimit="10" cx="67" cy="70" r="2"/>
<path fill="none" stroke="#26FFBF" stroke-miterlimit="10" d="M52,53c0,0,11.25-8.834,18.334,3.833
	c2.416,5.25,1.5,8.001-1.75,11.667"/>
<g>
</g>
<g>
</g>
<g>
</g>
<g>
</g>
<g>
</g>
<g>
</g>
</svg>
