<?xml version="1.0" encoding="utf-8"?>
<!-- Generator: Adobe Illustrator 16.0.0, SVG Export Plug-In . SVG Version: 6.00 Build 0)  -->
<!DOCTYPE svg PUBLIC "-//W3C//DTD SVG 1.1//EN" "http://www.w3.org/Graphics/SVG/1.1/DTD/svg11.dtd">
<svg version="1.1" id="Layer_1" xmlns="http://www.w3.org/2000/svg" xmlns:xlink="http://www.w3.org/1999/xlink" x="0px" y="0px"
	 width="108px" height="108px" viewBox="0 0 108 108" enable-background="new 0 0 108 108" xml:space="preserve">
<g>
	<line fill="none" stroke="#FFFFFF" stroke-miterlimit="10" x1="42" y1="46.5" x2="80" y2="46.5"/>
	<path fill="none" stroke="#FFD34E" stroke-width="2" stroke-miterlimit="10" d="M42,40h38 M41,84h18 M79,39v25 M42,39v45"/>
	<circle fill="none" stroke="#FFFFFF" stroke-miterlimit="10" cx="73" cy="78" r="12"/>
	<line fill="none" stroke="#FFFFFF" stroke-miterlimit="10" x1="26" y1="69.5" x2="22" y2="69.5"/>
	<line fill="none" stroke="#FFFFFF" stroke-miterlimit="10" x1="34" y1="69.5" x2="38" y2="69.5"/>
	<path fill="none" stroke="#FFFFFF" stroke-miterlimit="10" d="M26,57.5h-4 M22.5,57v13 M34,57.5h4 M37.5,57v13"/>
	<path fill="none" stroke="#26FFBF" stroke-miterlimit="10" d="M26,63.5h2 M29,63.5h2 M32,63.5h2"/>
	<path fill="none" stroke="#26FFBF" stroke-miterlimit="10" d="M47,43.5h2 M51,43.5h2 M55,43.5h2"/>
	<path fill="none" stroke="#FFFFFF" stroke-miterlimit="10" d="M47,52.5h6 M47,55.5h13 M62,55.5h6 M62,59.5h6 M53,59.5h7 M62,62.5
		h12 M53,62.5h7 M47,66.5h6 M52,74.5h6 M52,77.5h6 M47,70.5h12"/>
	<path fill="none" stroke="#FFFFFF" stroke-miterlimit="10" d="M34.5,85c0,1.657-1.344,3-3,3s-3-1.343-3-3s1.344-3,3-3
		S34.5,83.343,34.5,85z M37.5,81v8 M73.5,28.5c-1.933,0-3.5,1.567-3.5,3.5s1.567,3.5,3.5,3.5S77,33.933,77,32S75.433,28.5,73.5,28.5
		z M65.5,28v8 M62.5,28v8"/>
	<path fill="none" stroke="#26FFBF" stroke-miterlimit="10" d="M77,75.5h1 M78,76.5h1 M79,77.5h1 M78,78.5h1 M77,79.5h1 M68,75.5h1
		 M67,76.5h1 M66,77.5h1 M67,78.5h1 M68,79.5h1 M72,77.5h1 M71,78.5h1 M74,75.5h1 M73,76.5h1 M70,79.5h1"/>
</g>
<g>
</g>
<g>
</g>
<g>
</g>
<g>
</g>
<g>
</g>
<g>
</g>
</svg>
