<?xml version="1.0" encoding="utf-8"?>
<!-- Generator: Adobe Illustrator 16.0.0, SVG Export Plug-In . SVG Version: 6.00 Build 0)  -->
<!DOCTYPE svg PUBLIC "-//W3C//DTD SVG 1.1//EN" "http://www.w3.org/Graphics/SVG/1.1/DTD/svg11.dtd">
<svg version="1.1" id="Layer_1" xmlns="http://www.w3.org/2000/svg" xmlns:xlink="http://www.w3.org/1999/xlink" x="0px" y="0px"
	 width="108px" height="108px" viewBox="0 0 108 108" enable-background="new 0 0 108 108" xml:space="preserve">
<path fill="none" stroke="#26FFBF" stroke-miterlimit="10" d="M63.512,57.281l-1.592-0.27c-0.166-0.535-0.379-1.051-0.639-1.543
	l0.938-1.313c0.397-0.559,0.336-1.32-0.151-1.805l-1.411-1.41c-0.266-0.266-0.616-0.412-0.99-0.412c-0.293,0-0.573,0.09-0.81,0.26
	l-1.317,0.938c-0.512-0.27-1.046-0.492-1.6-0.658l-0.266-1.572c-0.113-0.678-0.696-1.17-1.383-1.17h-1.994
	c-0.688,0-1.27,0.492-1.383,1.17l-0.275,1.609c-0.529,0.166-1.047,0.385-1.539,0.65l-1.302-0.939c-0.237-0.17-0.521-0.26-0.815-0.26
	c-0.373,0-0.729,0.146-0.989,0.412l-1.416,1.412c-0.483,0.482-0.55,1.244-0.151,1.805l0.947,1.33
	c-0.261,0.496-0.469,1.014-0.631,1.549l-1.571,0.266c-0.678,0.113-1.17,0.695-1.17,1.383v1.994c0,0.686,0.492,1.268,1.17,1.383
	l1.61,0.273c0.166,0.531,0.383,1.047,0.648,1.539l-0.934,1.299c-0.397,0.559-0.336,1.32,0.152,1.805l1.411,1.41
	c0.265,0.266,0.616,0.412,0.989,0.412c0.294,0,0.574-0.09,0.811-0.26l1.33-0.947c0.479,0.25,0.98,0.455,1.497,0.615l0.265,1.592
	c0.114,0.678,0.697,1.17,1.383,1.17h2c0.686,0,1.269-0.492,1.383-1.17l0.27-1.592c0.535-0.166,1.051-0.379,1.544-0.639l1.312,0.938
	c0.236,0.17,0.521,0.26,0.814,0.26c0.375,0,0.725-0.146,0.99-0.412l1.411-1.41c0.483-0.484,0.55-1.246,0.151-1.805l-0.938-1.318
	c0.261-0.496,0.479-1.012,0.639-1.543l1.592-0.266c0.678-0.113,1.17-0.695,1.17-1.383v-1.994
	C64.682,57.979,64.189,57.396,63.512,57.281L63.512,57.281z M63.402,60.658"/>
<path fill="none" stroke="#FFFFFF" stroke-miterlimit="10" d="M53.337,63.277c-1.994,0-3.614-1.619-3.614-3.613
	s1.62-3.615,3.614-3.615c1.993,0,3.613,1.621,3.613,3.615S55.33,63.277,53.337,63.277L53.337,63.277z M53.337,63.277"/>
<polyline fill="none" stroke="#FFD34E" stroke-width="2" stroke-miterlimit="10" points="63,82 52.928,86.994 31,73.021 31,46.861 
	53.484,33.904 77,46.692 77,55 "/>
<path fill="none" stroke="#FFFFFF" stroke-miterlimit="10" d="M69.941,85.332l5.899-8.863c0.922-1.385,2.443-2.243,4.102-2.388
	c2.793-0.243,5.441-1.705,7.109-4.211c2.016-3.034,2.07-6.798,0.462-9.806c-0.145-0.261-0.504-0.277-0.671-0.036l-3.112,4.671
	c-0.899,1.355-2.749,1.725-4.11,0.818l-2.073-1.379c-1.355-0.906-1.738-2.756-0.833-4.114l2.943-4.417
	c0.17-0.255-0.005-0.596-0.315-0.604c-3.194-0.096-6.356,1.393-8.25,4.237c-1.588,2.387-1.955,5.231-1.255,7.796
	c0.416,1.511,0.183,3.125-0.683,4.428L63,80.702C63,80.702,63.591,87.031,69.941,85.332z"/>
<path fill="none" stroke="#FFFFFF" stroke-miterlimit="10" d="M20.9,80.979c0,0,2.25-2.5,4.917-0.918
	c2.666,1.584,4.832,1.584,6.416-0.332"/>
<path fill="none" stroke="#FFFFFF" stroke-miterlimit="10" d="M24.15,86.146c0,0,4.083,3.916,6.333,2.082
	c2.25-1.832,2.5-4.25,5.75,0.418c2.917,2.666,4.167-2.5,4.167-2.5"/>
<path fill="none" stroke="#FFFFFF" stroke-miterlimit="10" d="M70.567,29.979c0,0,3.749-6.752,7.666,0.416
	c2.25,0.75,4.167-3.25,4.167-3.25s3.167-0.416,4.5,3.834"/>
<path fill="none" stroke="#FFFFFF" stroke-miterlimit="10" d="M65,35.197c0,0,2.731-4.919,5.586,0.304
	c1.639,0.546,3.036-2.368,3.036-2.368s2.307-0.304,3.278,2.793"/>
<line fill="none" stroke="#26FFBF" stroke-miterlimit="10" x1="76" y1="67" x2="74" y2="71"/>
<g>
</g>
<g>
</g>
<g>
</g>
<g>
</g>
<g>
</g>
<g>
</g>
</svg>
