<?xml version="1.0" encoding="utf-8"?>
<!-- Generator: Adobe Illustrator 16.0.0, SVG Export Plug-In . SVG Version: 6.00 Build 0)  -->
<!DOCTYPE svg PUBLIC "-//W3C//DTD SVG 1.1//EN" "http://www.w3.org/Graphics/SVG/1.1/DTD/svg11.dtd">
<svg version="1.1" id="Layer_1" xmlns="http://www.w3.org/2000/svg" xmlns:xlink="http://www.w3.org/1999/xlink" x="0px" y="0px"
	 width="108px" height="108px" viewBox="0 0 108 108" enable-background="new 0 0 108 108" xml:space="preserve">
<path fill="none" stroke="#FFFFFF" stroke-miterlimit="10" d="M21.5,52.5h26 M60.5,52.5h26"/>
<path fill="none" stroke="#FFD34E" stroke-width="2" stroke-miterlimit="10" d="M47,70H22V48h25V70z"/>
<path fill="none" stroke="#FFD34E" stroke-width="2" stroke-miterlimit="10" d="M86,70H61V48h25V70z"/>
<path fill="none" stroke="#26FFBF" stroke-miterlimit="10" d="M76,50.5h2 M79,50.5h2 M82,50.5h2"/>
<path fill="none" stroke="#26FFBF" stroke-miterlimit="10" d="M24,50.5h2 M27,50.5h2 M30,50.5h2"/>
<line fill="none" stroke="#26FFBF" stroke-miterlimit="10" x1="33.5" y1="74" x2="33.5" y2="76"/>
<path fill="none" stroke="#FFFFFF" stroke-miterlimit="10" d="M73,75.5h1 M72,76.5h1 M74,74.5h1 M71,77.5h1 M76,75.5h-1 M77,76.5h-1
	 M78,77.5h-1 M33.5,77v13 M33,89.5h42 M74.5,90V74"/>
<line fill="none" stroke="#26FFBF" stroke-miterlimit="10" x1="74.5" y1="44" x2="74.5" y2="42"/>
<path fill="none" stroke="#FFFFFF" stroke-miterlimit="10" d="M34,43.5h-1 M35,42.5h-1 M36,41.5h-1 M37,40.5h-1 M32,42.5h1 M31,41.5
	h1 M30,40.5h1 M74.5,41V27 M75,27.5H33 M33.5,27v16"/>
<line fill="none" stroke="#FFFFFF" stroke-miterlimit="10" x1="30" y1="61.5" x2="43" y2="61.5"/>
<line fill="none" stroke="#FFFFFF" stroke-miterlimit="10" x1="26" y1="59.5" x2="35" y2="59.5"/>
<line fill="none" stroke="#FFFFFF" stroke-miterlimit="10" x1="69" y1="61.5" x2="82" y2="61.5"/>
<line fill="none" stroke="#FFFFFF" stroke-miterlimit="10" x1="65" y1="59.5" x2="74" y2="59.5"/>
<g>
</g>
<g>
</g>
<g>
</g>
<g>
</g>
<g>
</g>
<g>
</g>
</svg>
